<svg width="71" height="81" viewBox="0 0 71 81" fill="none" xmlns="http://www.w3.org/2000/svg">
<g filter="url(#filter0_d)">
<path d="M32.6736 30.3546C32.3172 29.9327 31.6862 29.8797 31.2644 30.2362C30.8425 30.5927 30.7895 31.2236 31.146 31.6454L32.6736 30.3546ZM39.9375 40.5L40.7013 41.1454C41.0162 40.7728 41.0162 40.2272 40.7013 39.8546L39.9375 40.5ZM31.146 49.3546C30.7895 49.7764 30.8425 50.4073 31.2644 50.7638C31.6862 51.1203 32.3172 51.0673 32.6736 50.6454L31.146 49.3546ZM31.146 31.6454L39.1737 41.1454L40.7013 39.8546L32.6736 30.3546L31.146 31.6454ZM39.1737 39.8546L31.146 49.3546L32.6736 50.6454L40.7013 41.1454L39.1737 39.8546Z" fill="#00FFA9"/>
</g>
<defs>
<filter id="filter0_d" x="0.910156" y="0" width="70.0277" height="81" filterUnits="userSpaceOnUse" color-interpolation-filters="sRGB">
<feFlood flood-opacity="0" result="BackgroundImageFix"/>
<feColorMatrix in="SourceAlpha" type="matrix" values="0 0 0 0 0 0 0 0 0 0 0 0 0 0 0 0 0 0 127 0"/>
<feOffset/>
<feGaussianBlur stdDeviation="15"/>
<feColorMatrix type="matrix" values="0 0 0 0 0.00392157 0 0 0 0 0.690196 0 0 0 0 0.458824 0 0 0 0.3 0"/>
<feBlend mode="normal" in2="BackgroundImageFix" result="effect1_dropShadow"/>
<feBlend mode="normal" in="SourceGraphic" in2="effect1_dropShadow" result="shape"/>
</filter>
</defs>
</svg>
