<svg width="14" height="26" viewBox="0 0 14 26" fill="none" xmlns="http://www.w3.org/2000/svg">
<path d="M1.69191 0.278012C1.29316 -0.104117 0.660141 -0.0906484 0.278011 0.308095C-0.104117 0.706838 -0.0906487 1.33986 0.308095 1.72199L1.69191 0.278012ZM13 12.5L13.7214 13.1925C13.9052 13.0011 14.0053 12.7445 13.9998 12.4792C13.9943 12.2139 13.8835 11.9616 13.6919 11.778L13 12.5ZM0.278613 24.3075C-0.103862 24.7059 -0.0909436 25.3389 0.307468 25.7214C0.705879 26.1039 1.33891 26.0909 1.72139 25.6925L0.278613 24.3075ZM0.308095 1.72199L12.3081 13.222L13.6919 11.778L1.69191 0.278012L0.308095 1.72199ZM12.2786 11.8075L0.278613 24.3075L1.72139 25.6925L13.7214 13.1925L12.2786 11.8075Z" fill="#00FFA9"/>
<defs>
<filter id="filter0_d" x="-1.90735e-06" y="0" width="74" height="86" filterUnits="userSpaceOnUse" color-interpolation-filters="sRGB">
<feFlood flood-opacity="0" result="BackgroundImageFix"/>
<feColorMatrix in="SourceAlpha" type="matrix" values="0 0 0 0 0 0 0 0 0 0 0 0 0 0 0 0 0 0 127 0"/>
<feOffset/>
<feGaussianBlur stdDeviation="15"/>
<feColorMatrix type="matrix" values="0 0 0 0 0.00392157 0 0 0 0 0.690196 0 0 0 0 0.458824 0 0 0 0.3 0"/>
<feBlend mode="normal" in2="BackgroundImageFix" result="effect1_dropShadow"/>
<feBlend mode="normal" in="SourceGraphic" in2="effect1_dropShadow" result="shape"/>
</filter>
</defs>
</svg>

