<svg width="24" height="18" viewBox="0 0 24 18"  xmlns="http://www.w3.org/2000/svg">
<path d="M23.482 12.212C23.4159 10.9644 23.2662 9.7226 23.034 8.495C22.8278 7.27782 22.5625 6.07139 22.239 4.88C22.0871 4.28224 21.8909 3.69662 21.652 3.128C21.418 2.555 21.159 1.989 20.701 1.482C20.0246 0.735659 19.1049 0.254083 18.1062 0.12329C17.1075 -0.00750296 16.0948 0.221005 15.249 0.768H8.75201C7.90614 0.220734 6.89324 -0.00792924 5.89429 0.122869C4.89535 0.253668 3.97546 0.735406 3.29901 1.482C2.84101 1.989 2.58201 2.555 2.34901 3.128C2.10944 3.69656 1.91256 4.28218 1.76001 4.88C1.43869 6.07192 1.1734 7.27824 0.965009 8.495C0.732857 9.72261 0.583189 10.9644 0.517009 12.212C0.462009 12.847 0.447009 13.485 0.471009 14.122C0.479009 14.805 0.585009 15.484 0.784009 16.137C0.91443 16.5362 1.1402 16.8975 1.44176 17.1897C1.74332 17.4819 2.11158 17.6962 2.51463 17.814C2.91769 17.9318 3.34339 17.9496 3.75486 17.8658C4.16633 17.782 4.55115 17.5991 4.87601 17.333C5.39601 16.89 5.85101 16.375 6.22601 15.804C6.59952 15.2869 6.9306 14.7405 7.21601 14.17C7.48901 13.63 7.76501 13.084 8.00801 12.6H15.99C16.234 13.084 16.509 13.63 16.783 14.17C17.068 14.74 17.399 15.287 17.773 15.804C18.1477 16.3755 18.6019 16.8907 19.122 17.334C19.4469 17.6001 19.8318 17.7829 20.2434 17.8667C20.6549 17.9504 21.0806 17.9326 21.4837 17.8147C21.8868 17.6968 22.255 17.4823 22.5565 17.19C22.858 16.8977 23.0837 16.5362 23.214 16.137C23.4135 15.4836 23.5189 14.8051 23.527 14.122C23.551 13.485 23.537 12.847 23.481 12.212H23.482ZM16.277 4.32C16.3873 4.32 16.4965 4.34173 16.5985 4.38394C16.7004 4.42616 16.793 4.48803 16.871 4.56603C16.949 4.64403 17.0109 4.73663 17.0531 4.83855C17.0953 4.94046 17.117 5.04969 17.117 5.16C17.117 5.27031 17.0953 5.37954 17.0531 5.48145C17.0109 5.58337 16.949 5.67597 16.871 5.75397C16.793 5.83197 16.7004 5.89385 16.5985 5.93606C16.4965 5.97827 16.3873 6 16.277 6C16.0542 6 15.8406 5.9115 15.683 5.75397C15.5255 5.59644 15.437 5.38278 15.437 5.16C15.437 4.93722 15.5255 4.72356 15.683 4.56603C15.8406 4.4085 16.0542 4.32 16.277 4.32V4.32ZM10.087 7.374H8.41301V9.046H7.03301V7.374H5.36001V5.993H7.03301V4.32H8.41401V5.993H10.086V7.373L10.087 7.374ZM14.754 7.524C14.5312 7.524 14.3176 7.4355 14.16 7.27797C14.0025 7.12044 13.914 6.90678 13.914 6.684C13.914 6.46122 14.0025 6.24756 14.16 6.09003C14.3176 5.9325 14.5312 5.844 14.754 5.844C14.9768 5.844 15.1904 5.9325 15.348 6.09003C15.5055 6.24756 15.594 6.46122 15.594 6.684C15.594 6.90678 15.5055 7.12044 15.348 7.27797C15.1904 7.4355 14.9768 7.524 14.754 7.524V7.524ZM16.277 9.049C16.0541 9.049 15.8403 8.96045 15.6827 8.80282C15.5251 8.6452 15.4365 8.43141 15.4365 8.2085C15.4365 7.98559 15.5251 7.7718 15.6827 7.61418C15.8403 7.45655 16.0541 7.368 16.277 7.368C16.4998 7.368 16.7134 7.4565 16.871 7.61403C17.0285 7.77156 17.117 7.98522 17.117 8.208C17.117 8.43078 17.0285 8.64444 16.871 8.80197C16.7134 8.9595 16.4998 9.048 16.277 9.048V9.049ZM17.8 7.523C17.5772 7.523 17.3636 7.4345 17.206 7.27697C17.0485 7.11944 16.96 6.90578 16.96 6.683C16.96 6.46022 17.0485 6.24656 17.206 6.08903C17.3636 5.9315 17.5772 5.843 17.8 5.843C18.0228 5.843 18.2364 5.9315 18.394 6.08903C18.5515 6.24656 18.64 6.46022 18.64 6.683C18.64 6.90578 18.5515 7.11944 18.394 7.27697C18.2364 7.4345 18.0228 7.523 17.8 7.523V7.523Z" />
</svg>
