<svg width="19" height="21" viewBox="0 0 19 21" fill="none" xmlns="http://www.w3.org/2000/svg">
<path d="M12.7831 10.236L13.7931 12.953H11.7671L12.7831 10.236ZM18.6691 1.42897V20.781C18.6688 20.819 18.6549 20.8558 18.63 20.8845C18.6051 20.9133 18.5707 20.9323 18.5331 20.938C18.5082 20.9415 18.4828 20.9391 18.4591 20.931L12.6441 18.927H1.17105C0.948516 18.9262 0.735318 18.8374 0.577958 18.6801C0.420599 18.5227 0.331845 18.3095 0.331055 18.087V1.42997C0.331583 1.20735 0.420252 0.993996 0.577668 0.83658C0.735085 0.679163 0.948435 0.590494 1.17105 0.589966H17.8291C18.0516 0.590756 18.2648 0.67951 18.4222 0.836869C18.5795 0.994229 18.6683 1.20743 18.6691 1.42997V1.42897ZM7.49305 8.79097C8.20834 8.26307 8.84591 7.63729 9.38705 6.93197C10.0471 6.08197 10.4801 4.98197 10.6961 4.34197C10.7042 4.3182 10.7066 4.29283 10.7029 4.26797C10.6992 4.24312 10.6896 4.21951 10.6749 4.19913C10.6602 4.17875 10.6408 4.16219 10.6184 4.15085C10.596 4.13951 10.5712 4.13372 10.5461 4.13397H3.18005C3.15922 4.13383 3.13857 4.13782 3.11928 4.1457C3.1 4.15359 3.08246 4.1652 3.06768 4.17989C3.05291 4.19457 3.04118 4.21204 3.03318 4.23127C3.02517 4.2505 3.02105 4.27113 3.02105 4.29197V5.29997C3.02105 5.3208 3.02517 5.34143 3.03318 5.36066C3.04118 5.3799 3.05291 5.39736 3.06768 5.41204C3.08246 5.42673 3.1 5.43835 3.11928 5.44623C3.13857 5.45411 3.15922 5.4581 3.18005 5.45797H8.76405C8.1927 6.43345 7.40686 7.26614 6.46605 7.89297C5.83849 7.39301 5.17204 6.94392 4.47305 6.54997C4.45459 6.53989 4.4343 6.53359 4.41337 6.53146C4.39244 6.52933 4.37129 6.53139 4.35118 6.53754C4.33106 6.54369 4.31237 6.55379 4.2962 6.56726C4.28004 6.58073 4.26673 6.59729 4.25705 6.61597L3.79305 7.51097C3.77401 7.54715 3.76983 7.58934 3.7814 7.62856C3.79298 7.66778 3.81941 7.70093 3.85505 7.72097C4.38305 8.01797 6.35805 9.20297 7.66105 10.971C7.68533 11.0044 7.72175 11.027 7.7625 11.034C7.80326 11.0409 7.8451 11.0315 7.87905 11.008L8.70105 10.428C8.72717 10.4097 8.74715 10.384 8.75839 10.3542C8.76964 10.3244 8.77161 10.2919 8.76405 10.261C8.75953 10.2405 8.75104 10.2211 8.73905 10.204C8.36405 9.69897 7.94805 9.22597 7.49305 8.79097ZM16.0201 15.142L13.7101 8.93197C13.6988 8.90159 13.6784 8.87542 13.6518 8.85699C13.6251 8.83857 13.5935 8.82879 13.5611 8.82897H12.0061C11.9737 8.82879 11.942 8.83857 11.9153 8.85699C11.8887 8.87542 11.8683 8.90159 11.8571 8.93197L9.53505 15.142C9.5262 15.166 9.52327 15.1918 9.52653 15.2172C9.52978 15.2426 9.53912 15.2668 9.55375 15.2878C9.56838 15.3088 9.58787 15.326 9.61055 15.3379C9.63324 15.3497 9.65845 15.3559 9.68405 15.356H10.7581C10.7905 15.3561 10.8221 15.3464 10.8488 15.3279C10.8754 15.3095 10.8958 15.2833 10.9071 15.253L11.2721 14.276H14.2851L14.6491 15.253C14.6604 15.2831 14.6806 15.3091 14.707 15.3275C14.7335 15.3459 14.7649 15.3558 14.7971 15.356H15.8711C15.8967 15.356 15.9219 15.3498 15.9446 15.338C15.9672 15.3261 15.9867 15.3089 16.0013 15.2878C16.0158 15.2668 16.0251 15.2425 16.0281 15.2171C16.0312 15.1917 16.0281 15.1659 16.0191 15.142H16.0201Z" fill="#6F7174"/>
</svg>
