<svg width="22" height="22" viewBox="0 0 22 22" fill="none" xmlns="http://www.w3.org/2000/svg">
<path d="M20.4407 7.12202H17.0677C16.8532 8.0369 16.4313 8.89022 15.8344 9.61605C15.2376 10.3419 14.4819 10.9208 13.6257 11.308H16.5407C16.5831 11.3081 16.6238 11.325 16.6537 11.355C16.6831 11.3849 16.6997 11.4251 16.6997 11.467V12.39C16.6997 12.4109 16.6956 12.4315 16.6876 12.4507C16.6796 12.47 16.6679 12.4874 16.6531 12.5021C16.6383 12.5168 16.6208 12.5284 16.6015 12.5363C16.5822 12.5442 16.5616 12.5482 16.5407 12.548H5.45773C5.41582 12.548 5.37563 12.5314 5.346 12.5017C5.31637 12.4721 5.29973 12.4319 5.29973 12.39V11.467C5.29959 11.4462 5.30358 11.4255 5.31147 11.4062C5.31935 11.387 5.33096 11.3694 5.34565 11.3547C5.36033 11.3399 5.3778 11.3281 5.39703 11.3201C5.41627 11.3121 5.43689 11.308 5.45773 11.308H8.61373C7.75754 10.9208 7.00184 10.3419 6.40501 9.61605C5.80819 8.89022 5.38623 8.0369 5.17173 7.12202H1.55973C1.33694 7.12202 1.12329 7.21052 0.965757 7.36805C0.808226 7.52558 0.719727 7.73924 0.719727 7.96202V20.202C0.719727 20.4248 0.808226 20.6385 0.965757 20.796C1.12329 20.9535 1.33694 21.042 1.55973 21.042H20.4397C20.6625 21.042 20.8762 20.9535 21.0337 20.796C21.1912 20.6385 21.2797 20.4248 21.2797 20.202V7.96202C21.2797 7.73924 21.1912 7.52558 21.0337 7.36805C20.8762 7.21052 20.6625 7.12202 20.4397 7.12202H20.4407ZM15.3527 14.515L11.2317 18.636C11.2094 18.658 11.1811 18.673 11.1503 18.679C11.1196 18.685 11.0877 18.6819 11.0587 18.67C11.0397 18.6621 11.0224 18.6505 11.0077 18.636L6.88673 14.515C6.86452 14.4929 6.84938 14.4647 6.84324 14.434C6.83709 14.4033 6.84022 14.3714 6.85223 14.3425C6.86423 14.3135 6.88457 14.2888 6.91066 14.2715C6.93674 14.2541 6.9674 14.2449 6.99873 14.245H15.2407C15.2721 14.2449 15.3027 14.2541 15.3288 14.2715C15.3549 14.2888 15.3752 14.3135 15.3872 14.3425C15.3992 14.3714 15.4024 14.4033 15.3962 14.434C15.3901 14.4647 15.3749 14.4929 15.3527 14.515ZM11.1197 0.95802C10.4857 0.948853 9.85623 1.06581 9.26784 1.30209C8.67944 1.53837 8.14389 1.88926 7.69231 2.33436C7.24073 2.77945 6.88213 3.30988 6.63737 3.8948C6.39261 4.47972 6.26656 5.10746 6.26656 5.74152C6.26656 6.37558 6.39261 7.00332 6.63737 7.58824C6.88213 8.17316 7.24073 8.70359 7.69231 9.14868C8.14389 9.59378 8.67944 9.94467 9.26784 10.181C9.85623 10.4172 10.4857 10.5342 11.1197 10.525C12.3764 10.5068 13.5755 9.99488 14.4577 9.09978C15.34 8.20467 15.8346 6.99834 15.8346 5.74152C15.8346 4.4847 15.34 3.27837 14.4577 2.38326C13.5755 1.48816 12.3764 0.97619 11.1197 0.95802ZM11.9627 8.47402L11.6567 8.47502L11.6597 9.21202C11.6599 9.23695 11.6527 9.26138 11.639 9.2822C11.6253 9.30303 11.6057 9.31933 11.5827 9.32902C11.5675 9.33546 11.5512 9.33886 11.5347 9.33902L10.7287 9.34102C10.7122 9.34128 10.6958 9.33828 10.6805 9.33218C10.6652 9.32608 10.6512 9.317 10.6394 9.30547C10.6276 9.29395 10.6182 9.2802 10.6117 9.26501C10.6053 9.24983 10.6019 9.23352 10.6017 9.21702L10.5987 8.47802L9.29173 8.48202C9.25848 8.48202 9.22658 8.46888 9.20298 8.44547C9.17938 8.42206 9.16599 8.39026 9.16573 8.35702L9.16373 7.55002C9.16372 7.51678 9.17686 7.48488 9.20028 7.46128C9.22369 7.43767 9.25548 7.42428 9.28873 7.42402L11.9597 7.41602C12.0351 7.41582 12.1097 7.40078 12.1793 7.37175C12.2488 7.34272 12.312 7.30028 12.3652 7.24684C12.4183 7.1934 12.4604 7.13001 12.4891 7.06029C12.5178 6.99058 12.5324 6.9159 12.5322 6.84052C12.532 6.76514 12.517 6.69054 12.488 6.62097C12.4589 6.55141 12.4165 6.48824 12.363 6.43508C12.3096 6.38192 12.2462 6.3398 12.1765 6.31114C12.1068 6.28247 12.0321 6.26782 11.9567 6.26802L10.2857 6.27302C9.85854 6.27418 9.44792 6.10779 9.14204 5.80957C8.83617 5.51136 8.65941 5.1051 8.64973 4.67802C8.62973 3.76302 9.40973 3.01102 10.3257 3.00802H10.5827L10.5797 2.27102C10.5794 2.25437 10.5824 2.23782 10.5886 2.22236C10.5948 2.20689 10.604 2.19283 10.6157 2.18102C10.6395 2.15784 10.6715 2.14491 10.7047 2.14502L11.5107 2.14202C11.5273 2.14189 11.5437 2.14502 11.559 2.15123C11.5744 2.15744 11.5883 2.16661 11.6001 2.17822C11.6119 2.18982 11.6213 2.20364 11.6278 2.21888C11.6342 2.23411 11.6376 2.25047 11.6377 2.26702L11.6407 3.00502L12.9927 3.00002C13.026 3.00002 13.0579 3.01316 13.0815 3.03657C13.1051 3.05998 13.1185 3.09178 13.1187 3.12502L13.1207 3.93202C13.1205 3.96537 13.1072 3.99731 13.0837 4.02102C13.0604 4.04451 13.0288 4.05781 12.9957 4.05802L10.2797 4.06602C10.1516 4.06726 10.0276 4.11118 9.92721 4.19083C9.82685 4.27048 9.75592 4.38132 9.72563 4.50581C9.69533 4.63031 9.70741 4.76134 9.75996 4.8782C9.8125 4.99506 9.9025 5.09106 10.0157 5.15102C10.0974 5.19379 10.1885 5.21544 10.2807 5.21402H10.2827L11.9527 5.20902C12.2988 5.20886 12.6361 5.31791 12.9165 5.52062C13.197 5.72334 13.4063 6.00938 13.5147 6.33802C13.5929 6.58285 13.6124 6.84265 13.5715 7.09639C13.5306 7.35014 13.4306 7.59069 13.2794 7.79858C13.1283 8.00647 12.9304 8.17585 12.7016 8.29302C12.4729 8.41019 12.2197 8.47186 11.9627 8.47302V8.47402Z" fill="#6F7174"/>
</svg>
