<svg width="40" height="40" viewBox="0 0 40 40" fill="none" xmlns="http://www.w3.org/2000/svg">
<circle cx="16.5" cy="13.5" r="11" stroke="white" stroke-opacity="0.36"/>
<path d="M15.8362 17.6228C15.6533 17.0189 15.4776 16.414 15.3456 15.8344C14.4779 15.3338 13.8876 14.4229 13.8876 13.3701C13.8876 11.7864 15.2085 10.4996 16.8318 10.4996C18.455 10.4996 19.7759 11.7875 19.7759 13.3701C19.7759 13.588 19.7458 13.7977 19.699 14.0014C19.9806 14.6063 20.2082 15.2872 20.4077 15.9793C20.9689 15.2497 21.314 14.353 21.314 13.3701C21.314 10.9556 19.3082 9 16.8318 9C14.3553 9 12.3506 10.9556 12.3506 13.3701C12.3506 15.4493 13.8419 17.181 15.8362 17.6228Z" fill="white"/>
<path d="M12.7414 27.969C13.8461 26.8048 15.0859 27.2608 16.7455 27.507C18.1714 27.7208 19.5754 27.3307 19.4818 26.5799C19.3343 25.365 19.1264 24.8219 18.6536 23.2483C18.2763 21.9969 17.5603 19.7415 16.9087 17.5853C16.0357 14.7005 15.7832 13.361 16.9451 13.0266C18.1973 12.671 18.9155 14.4057 19.566 16.8111C20.307 19.5489 20.6967 20.7577 20.9149 20.6939C21.2995 20.5865 20.7736 19.4152 21.7796 19.1264C23.037 18.7697 23.2802 19.7283 23.6325 19.632C23.9848 19.5287 23.8653 18.558 24.8682 18.2722C25.8762 17.9885 26.3823 19.1984 26.798 19.0778C27.2096 18.9592 27.2002 18.5225 27.8217 18.3492C28.4442 18.1689 30.7866 19.1913 32.1272 23.6567C33.8097 29.2711 31.9142 30.3147 32.4888 32.2156L24.9783 35C24.3704 33.5743 22.4873 33.469 20.8214 32.5601C19.143 31.639 18.003 29.8446 13.6289 29.9317C11.9838 29.9641 12.0617 28.6854 12.7414 27.969Z" fill="white"/>
</svg>
