<svg width="23" height="22" viewBox="0 0 23 22" fill="none" xmlns="http://www.w3.org/2000/svg">
<path d="M21.7235 17.388C19.4805 18.538 15.7265 20.454 14.2535 21.146C13.994 21.2679 13.711 21.3317 13.4243 21.3329C13.1376 21.3341 12.8541 21.2727 12.5935 21.153L7.25752 18.704C6.05952 18.154 5.71252 17.87 4.39452 17.87H1.69952C1.13952 17.87 0.686523 16.788 0.686523 15.453C0.686523 14.117 1.13952 13.035 1.69952 13.035C1.69952 13.035 3.53752 13.079 4.17152 12.902C4.89952 12.698 6.10452 12.308 6.72352 12.252C7.79852 12.156 9.11052 12.134 11.0815 13.475C11.5535 13.797 12.0765 14.13 12.6175 14.424C13.1245 14.699 13.6465 14.944 14.1815 15.158L15.1545 15.549C15.3484 15.6228 15.5214 15.743 15.6582 15.899C15.795 16.055 15.8916 16.2421 15.9395 16.444C15.9595 16.536 15.9655 16.63 15.9595 16.724L15.9575 16.744C15.954 16.7813 15.9484 16.8184 15.9405 16.855L15.9345 16.887C15.9243 16.9309 15.9109 16.974 15.8945 17.016C15.8057 17.2156 15.6589 17.384 15.4734 17.4993C15.2878 17.6147 15.0719 17.6717 14.8535 17.663C14.6797 17.6624 14.5076 17.6284 14.3465 17.563L11.5185 16.428C11.5185 16.428 10.1355 15.785 9.15152 15.668C9.15137 16.0112 9.25619 16.3462 9.45192 16.6281C9.64765 16.91 9.92492 17.1252 10.2465 17.245C10.5725 17.365 10.8545 17.487 10.9965 17.553L11.0265 17.567L11.0565 17.579L13.8835 18.715C14.1915 18.839 14.5215 18.903 14.8535 18.903C15.3195 18.9124 15.7775 18.7816 16.1682 18.5275C16.5589 18.2734 16.8642 17.9078 17.0445 17.478C17.0745 17.405 17.0985 17.33 17.1195 17.254L20.7465 15.454C21.0015 15.3278 21.2959 15.3069 21.5661 15.396C21.8363 15.4851 22.0606 15.6769 22.1905 15.93C22.2556 16.0564 22.2952 16.1945 22.3069 16.3362C22.3186 16.4779 22.3023 16.6206 22.2588 16.756C22.2153 16.8914 22.1456 17.017 22.0536 17.1254C21.9615 17.2338 21.8491 17.3231 21.7225 17.388H21.7235ZM16.6065 6.547C16.601 6.58463 16.5821 6.619 16.5532 6.6438C16.5244 6.6686 16.4876 6.68216 16.4495 6.682H15.3165C15.2178 7.12073 15.0443 7.53918 14.8035 7.919L15.6065 8.722C15.6335 8.74869 15.6499 8.7842 15.6529 8.82202C15.6558 8.85984 15.645 8.89746 15.6225 8.928C15.3325 9.314 14.9885 9.658 14.6015 9.948C14.5708 9.97065 14.5329 9.98141 14.4948 9.97829C14.4568 9.97516 14.4211 9.95836 14.3945 9.931L13.5935 9.13C13.2135 9.37 12.7945 9.544 12.3555 9.641V10.776C12.3555 10.8141 12.3419 10.8509 12.3172 10.8799C12.2924 10.9089 12.2582 10.928 12.2205 10.934C11.7422 11.0018 11.2568 11.0018 10.7785 10.934C10.7406 10.9282 10.7061 10.9089 10.6813 10.8797C10.6565 10.8505 10.6431 10.8133 10.6435 10.775V9.643C10.2047 9.54398 9.78627 9.3701 9.40652 9.129L8.60352 9.932C8.57677 9.95921 8.54107 9.97583 8.50302 9.97877C8.46497 9.98171 8.42714 9.97078 8.39652 9.948C8.01045 9.65776 7.66738 9.31436 7.37752 8.928C7.35494 8.8973 7.34414 8.85952 7.34707 8.82152C7.35001 8.78353 7.36649 8.74786 7.39352 8.721L8.19552 7.919C7.95472 7.53931 7.7815 7.1208 7.68352 6.682H6.54952C6.5114 6.68192 6.47457 6.66814 6.44575 6.64318C6.41693 6.61821 6.39804 6.58372 6.39252 6.546C6.32479 6.06805 6.32479 5.58294 6.39252 5.105C6.39828 5.06728 6.41741 5.03289 6.44641 5.00811C6.47542 4.98333 6.51237 4.9698 6.55052 4.97H7.68352C7.78252 4.53 7.95552 4.112 8.19652 3.733L7.39352 2.929C7.36657 2.9023 7.35012 2.8668 7.34718 2.82897C7.34425 2.79115 7.35502 2.75353 7.37752 2.723C7.66752 2.337 8.01152 1.993 8.39752 1.703C8.42841 1.68027 8.46648 1.66947 8.5047 1.6726C8.54293 1.67572 8.57873 1.69255 8.60552 1.72L9.40652 2.521C9.78652 2.281 10.2055 2.108 10.6445 2.01V0.874997C10.6445 0.836901 10.6581 0.800058 10.6829 0.771095C10.7076 0.742132 10.7419 0.722949 10.7795 0.716997C11.2578 0.649502 11.7433 0.649839 12.2215 0.717997C12.2592 0.723755 12.2936 0.742882 12.3184 0.771888C12.3432 0.800894 12.3567 0.837845 12.3565 0.875997V2.008C12.7955 2.108 13.2135 2.281 13.5935 2.522L14.3965 1.719C14.4233 1.69178 14.459 1.67517 14.497 1.67222C14.5351 1.66928 14.5729 1.68021 14.6035 1.703C14.9895 1.993 15.3325 2.337 15.6225 2.723C15.6449 2.75377 15.6556 2.79151 15.6527 2.82944C15.6497 2.86738 15.6334 2.90303 15.6065 2.93L14.8045 3.732C15.0445 4.112 15.2185 4.531 15.3165 4.97H16.4515C16.4894 4.97024 16.5261 4.98395 16.5548 5.00868C16.5836 5.0334 16.6026 5.06754 16.6085 5.105C16.6764 5.58327 16.6764 6.06873 16.6085 6.547H16.6065ZM13.6335 5.419C13.5829 5.13607 13.4767 4.86598 13.321 4.62439C13.1653 4.38279 12.9632 4.17449 12.7265 4.01153C12.4897 3.84857 12.223 3.7342 11.9417 3.67504C11.6605 3.61588 11.3703 3.6131 11.0879 3.66687C10.8056 3.72064 10.5367 3.82989 10.2969 3.98829C10.0571 4.14669 9.85103 4.35109 9.69074 4.58966C9.53046 4.82824 9.41909 5.09624 9.36309 5.37815C9.3071 5.66006 9.30758 5.95028 9.36452 6.232C9.47233 6.79823 9.80067 7.29845 10.2773 7.62261C10.7539 7.94677 11.3398 8.06831 11.906 7.9605C12.4723 7.85269 12.9725 7.52435 13.2966 7.04773C13.6208 6.57111 13.7423 5.98523 13.6345 5.419H13.6335Z" fill="#6F7174"/>
</svg>
