<svg width="19" height="19" viewBox="0 0 19 19" fill="none" xmlns="http://www.w3.org/2000/svg">
<path d="M17.7319 9.53051V18.2182C17.7319 18.4255 17.6426 18.6244 17.4837 18.771C17.3248 18.9176 17.1093 19 16.8845 19H10.1678V9.53051H17.7319ZM1.26808 9.53051V18.2182C1.26808 18.4255 1.35736 18.6244 1.51628 18.771C1.6752 18.9176 1.89074 19 2.11548 19H8.83217V9.53051H1.26808ZM19 4.0642C19 3.85685 18.9107 3.65798 18.7518 3.51136C18.5929 3.36474 18.3773 3.28237 18.1526 3.28237H14.7862V1.1919C14.7861 1.00018 14.7359 0.811312 14.6399 0.641298C14.5439 0.471284 14.4048 0.325142 14.2346 0.215262C14.0643 0.105383 13.8678 0.0350075 13.6618 0.0101031C13.4557 -0.0148013 13.2462 0.00649984 13.051 0.0722003L12.4205 0.284412C11.5719 0.571189 10.8396 1.09213 10.3232 1.77641C10.0742 1.64055 9.79027 1.56888 9.50101 1.56888C9.21175 1.56888 8.9278 1.64055 8.67883 1.77641C8.16241 1.09213 7.43011 0.571189 6.5815 0.284412L5.95099 0.0722003C5.75578 0.00649984 5.54628 -0.0148013 5.34025 0.0101031C5.13422 0.0350075 4.93773 0.105383 4.76746 0.215262C4.59718 0.325142 4.45813 0.471284 4.36211 0.641298C4.26608 0.811312 4.2159 1.00018 4.21583 1.1919V3.2833H0.847404C0.622658 3.2833 0.407118 3.36567 0.248199 3.51229C0.0892798 3.65891 0 3.85778 0 4.06513V8.2982H8.6526V4.67291H10.3474V8.2982H19V4.06513V4.0642Z" />
</svg>
