<svg width="21" height="19" viewBox="0 0 21 19" fill="none" xmlns="http://www.w3.org/2000/svg">
<path d="M20.1743 0.000804824H0.82571C0.606718 0.000804824 0.396696 0.0719466 0.241845 0.19858C0.0869942 0.325213 0 0.496965 0 0.676051V12.2196C0 12.3987 0.0869942 12.5705 0.241845 12.6971C0.396696 12.8237 0.606718 12.8949 0.82571 12.8949H4.45726L4.45529 12.816C4.45436 12.5042 4.53944 12.1962 4.70422 11.915C4.86899 11.6338 5.1092 11.3866 5.40697 11.1919L5.50834 11.1251L5.49456 11.0188C5.45347 10.709 5.49788 10.3956 5.62451 10.1017C5.75115 9.80775 5.9568 9.5408 6.22631 9.32048C6.49582 9.10015 6.82233 8.93208 7.18179 8.82862C7.54125 8.72516 7.92451 8.68895 8.30335 8.72267L8.43228 8.73474L8.51397 8.65104C8.75264 8.40796 9.05498 8.21179 9.39871 8.07699C9.74244 7.9422 10.1188 7.87222 10.5 7.87222C10.8812 7.87222 11.2576 7.9422 11.6013 8.07699C11.945 8.21179 12.2474 8.40796 12.486 8.65104L12.5677 8.73393L12.6966 8.72267C13.0754 8.68893 13.4587 8.72512 13.8181 8.82859C14.1775 8.93205 14.504 9.10014 14.7734 9.32048C15.0429 9.54082 15.2484 9.80779 15.3749 10.1017C15.5014 10.3957 15.5457 10.7091 15.5044 11.0188L15.4917 11.1251L15.593 11.1919C15.8908 11.3866 16.131 11.6338 16.2958 11.915C16.4606 12.1962 16.5456 12.5042 16.5447 12.816C16.5447 12.8426 16.5427 12.8683 16.5418 12.8949H20.1743C20.3933 12.8949 20.6033 12.8237 20.7582 12.6971C20.913 12.5705 21 12.3987 21 12.2196V0.676051C21.0001 0.587309 20.9789 0.499416 20.9374 0.417398C20.896 0.335381 20.8352 0.260847 20.7585 0.198059C20.6818 0.135272 20.5907 0.0854615 20.4905 0.0514769C20.3903 0.0174923 20.2828 -6.30342e-08 20.1743 0V0.000804824ZM6.89305 2.85953C6.89305 2.82581 6.90944 2.79346 6.9386 2.76962C6.96776 2.74577 7.00731 2.73237 7.04855 2.73237H13.9514C13.9719 2.73227 13.9922 2.73548 14.0111 2.74183C14.03 2.74819 14.0472 2.75755 14.0617 2.76938C14.0762 2.78121 14.0876 2.79527 14.0954 2.81075C14.1031 2.82622 14.1071 2.84281 14.1069 2.85953V3.78267C14.1069 3.79937 14.1029 3.8159 14.0951 3.83133C14.0873 3.84676 14.0758 3.86077 14.0614 3.87258C14.047 3.88439 14.0298 3.89376 14.011 3.90015C13.9921 3.90654 13.9719 3.90983 13.9514 3.90983H7.04855C7.00731 3.90983 6.96776 3.89643 6.9386 3.87258C6.90944 3.84874 6.89305 3.81639 6.89305 3.78267V2.86034V2.85953ZM17.6991 6.40558C17.6989 6.43924 17.6824 6.47146 17.6533 6.49527C17.6242 6.51907 17.5848 6.53253 17.5436 6.53274H3.45637C3.41513 6.53274 3.37558 6.51935 3.34642 6.4955C3.31725 6.47165 3.30087 6.43931 3.30087 6.40558V5.48245C3.30087 5.46575 3.30489 5.44922 3.31271 5.43379C3.32052 5.41836 3.33198 5.40434 3.34642 5.39253C3.36085 5.38073 3.378 5.37136 3.39686 5.36497C3.41573 5.35858 3.43595 5.35529 3.45637 5.35529H17.5436C17.5641 5.35518 17.5844 5.3584 17.6033 5.36475C17.6222 5.3711 17.6394 5.38047 17.6539 5.3923C17.6683 5.40413 17.6798 5.41819 17.6876 5.43366C17.6953 5.44914 17.6993 5.46572 17.6991 5.48245V6.40558ZM14.7781 12.0208L14.6541 11.9395C14.4909 11.8323 14.3633 11.6931 14.2831 11.5348C14.2029 11.3766 14.1728 11.2044 14.1955 11.0341L14.2122 10.9037C14.2323 10.7521 14.2106 10.5987 14.1486 10.4549C14.0866 10.311 13.9859 10.1804 13.854 10.0726C13.722 9.96479 13.5622 9.88256 13.3863 9.83196C13.2104 9.78135 13.0228 9.76367 12.8374 9.7802L12.6799 9.79389C12.4715 9.81251 12.2608 9.78791 12.0671 9.72236C11.8734 9.65682 11.7031 9.55243 11.5717 9.41884L11.4723 9.31743C11.3556 9.19828 11.2076 9.1021 11.0393 9.03601C10.871 8.96993 10.6867 8.93561 10.5 8.93561C10.3133 8.93561 10.129 8.96993 9.96068 9.03601C9.79238 9.1021 9.64439 9.19828 9.52765 9.31743L9.42825 9.41884C9.29701 9.55231 9.1268 9.65662 8.93331 9.72216C8.73983 9.7877 8.52928 9.81237 8.32107 9.79389L8.16262 9.7802C7.97726 9.76382 7.78976 9.78161 7.61391 9.83227C7.43806 9.88293 7.27832 9.96517 7.14644 10.0729C7.01456 10.1807 6.91388 10.3113 6.85181 10.4551C6.78974 10.5988 6.76785 10.7521 6.78775 10.9037L6.80448 11.0341C6.82717 11.2044 6.79706 11.3766 6.7169 11.5348C6.63675 11.6931 6.50914 11.8323 6.34586 11.9395L6.22186 12.0208C6.07632 12.1164 5.95886 12.2374 5.87815 12.3751C5.79745 12.5127 5.75555 12.6634 5.75555 12.816C5.75555 12.9686 5.79745 13.1193 5.87815 13.2569C5.95886 13.3946 6.07632 13.5156 6.22186 13.6112L6.34586 13.6924C6.50914 13.7997 6.63675 13.9389 6.7169 14.0971C6.79706 14.2554 6.82717 14.4276 6.80448 14.5979L6.78775 14.7274C6.75527 14.9703 6.8305 15.2146 6.99974 15.416C7.16899 15.6173 7.421 15.7622 7.70991 15.8244L6.40885 17.6675C6.39376 17.6892 6.38682 17.7141 6.38892 17.739C6.39101 17.7639 6.40204 17.7878 6.42062 17.8076C6.4392 17.8275 6.46452 17.8424 6.4934 17.8505C6.52229 17.8586 6.55347 17.8596 6.58304 17.8534L7.8162 17.5838C7.92778 17.5594 8.04661 17.5723 8.14661 17.6195C8.24662 17.6667 8.31962 17.7445 8.34961 17.8357L8.68029 18.8433C8.68636 18.8615 8.69724 18.8783 8.71217 18.8926C8.7271 18.9069 8.74571 18.9184 8.76667 18.9261C8.78762 18.9339 8.81042 18.9378 8.83342 18.9375C8.85642 18.9372 8.87907 18.9328 8.89975 18.9246C8.92703 18.9133 8.94963 18.8957 8.96471 18.8739L10.4882 16.7121L12.053 18.9359C12.0683 18.9578 12.0912 18.9755 12.1189 18.9867C12.1465 18.998 12.1776 19.0022 12.2083 18.9989C12.2389 18.9956 12.2676 18.985 12.2908 18.9683C12.314 18.9516 12.3305 18.9297 12.3384 18.9053L12.6779 17.8679C12.693 17.8216 12.7191 17.7782 12.7548 17.7401C12.7904 17.7021 12.8349 17.6702 12.8856 17.6463C12.9364 17.6224 12.9924 17.6069 13.0505 17.6007C13.1086 17.5945 13.1676 17.5978 13.2242 17.6103L14.4927 17.8888C14.5224 17.8952 14.5538 17.8943 14.5829 17.8861C14.6119 17.878 14.6374 17.8629 14.656 17.843C14.6747 17.823 14.6856 17.7989 14.6876 17.7739C14.6895 17.7488 14.6823 17.7238 14.6669 17.7021L13.3334 15.8132C13.6117 15.7444 13.8518 15.5982 14.0123 15.3999C14.1728 15.2017 14.2435 14.9638 14.2122 14.7274L14.1955 14.5987C14.1727 14.4283 14.2027 14.2559 14.2828 14.0975C14.363 13.9391 14.4907 13.7998 14.6541 13.6924L14.7781 13.6112C14.9235 13.5155 15.0408 13.3944 15.1214 13.2568C15.202 13.1192 15.2439 12.9686 15.2439 12.816C15.2439 12.6634 15.202 12.5128 15.1214 12.3752C15.0408 12.2375 14.9235 12.1165 14.7781 12.0208ZM10.4163 11.2208C10.6725 11.2208 10.9262 11.2621 11.1628 11.3423C11.3995 11.4224 11.6145 11.5399 11.7956 11.688C11.9768 11.8362 12.1204 12.012 12.2185 12.2056C12.3165 12.3991 12.367 12.6065 12.367 12.816C12.367 13.0255 12.3165 13.2329 12.2185 13.4264C12.1204 13.62 11.9768 13.7958 11.7956 13.9439C11.6145 14.0921 11.3995 14.2096 11.1628 14.2897C10.9262 14.3699 10.6725 14.4112 10.4163 14.4112C9.89901 14.4112 9.40287 14.2431 9.03706 13.9439C8.67125 13.6448 8.46574 13.2391 8.46574 12.816C8.46574 12.3929 8.67125 11.9872 9.03706 11.688C9.40287 11.3889 9.89901 11.2208 10.4163 11.2208Z" />
</svg>
