<svg width="24" height="20" viewBox="0 0 24 20"  xmlns="http://www.w3.org/2000/svg">
<path d="M23.3229 4.139L13.6129 1.051C13.4512 0.999045 13.2774 0.99765 13.1149 1.047L13.7049 4.512L14.5949 3.378C14.6147 3.3526 14.6418 3.33389 14.6725 3.32441C14.7033 3.31493 14.7362 3.31514 14.7669 3.325L15.2409 3.475C15.2717 3.48464 15.2988 3.50354 15.3185 3.52913C15.3382 3.55471 15.3495 3.58575 15.3509 3.618L15.4609 5.911C15.4621 5.93625 15.4571 5.9614 15.4465 5.98432C15.4359 6.00725 15.4198 6.02726 15.3998 6.04268C15.3798 6.05809 15.3563 6.06844 15.3315 6.07285C15.3066 6.07726 15.281 6.0756 15.2569 6.068L14.6609 5.878C14.6302 5.86843 14.6032 5.84968 14.5836 5.82429C14.5639 5.7989 14.5525 5.76808 14.5509 5.736L14.5359 5.414L14.2199 5.314L14.0199 5.568C14.005 5.58691 13.986 5.60215 13.9644 5.61255C13.9427 5.62295 13.9189 5.62824 13.8949 5.628L14.3529 8.318C15.0399 7.90864 15.7803 7.59634 16.5529 7.39C16.6793 7.35498 16.8132 7.35782 16.938 7.39817C17.0627 7.43853 17.1729 7.51461 17.2549 7.617C17.8689 8.382 19.2319 10.318 18.6679 11.811C18.4189 12.47 17.5979 12.953 16.9009 12.85C16.5588 12.8015 16.2405 12.6469 15.9909 12.408C15.9725 12.3891 15.9487 12.3762 15.9228 12.3711C15.8969 12.366 15.8701 12.3689 15.8459 12.3795C15.8217 12.39 15.8012 12.4077 15.7873 12.4301C15.7734 12.4525 15.7666 12.4786 15.7679 12.505C15.7889 12.843 15.8579 13.175 15.9699 13.495C15.9805 13.5254 15.9825 13.5581 15.9754 13.5896C15.9684 13.621 15.9527 13.6498 15.93 13.6727C15.9074 13.6956 15.8788 13.7118 15.8475 13.7192C15.8162 13.7267 15.7834 13.7252 15.7529 13.715L15.2449 13.55L15.5249 15.2C15.6168 15.7436 15.4895 16.3014 15.1708 16.7513C14.8522 17.2012 14.3682 17.5064 13.8249 17.6L11.9979 17.91L18.3059 19.916C18.5182 19.9835 18.7486 19.9639 18.9465 19.8615C19.1443 19.7591 19.2934 19.5823 19.3609 19.37L23.8689 5.194C23.9364 4.9817 23.9168 4.75128 23.8144 4.55343C23.712 4.35558 23.5352 4.2065 23.3229 4.139V4.139ZM18.7409 15.783L17.3229 17.589C17.3031 17.6144 17.276 17.6331 17.2452 17.6426C17.2145 17.6521 17.1815 17.6519 17.1509 17.642L16.6769 17.492C16.6461 17.4824 16.619 17.4635 16.5993 17.4379C16.5796 17.4123 16.5683 17.3813 16.5669 17.349L16.4569 15.056C16.4557 15.0306 16.4606 15.0054 16.4713 14.9823C16.482 14.9593 16.4981 14.9392 16.5182 14.9238C16.5384 14.9083 16.562 14.898 16.587 14.8937C16.612 14.8894 16.6377 14.8912 16.6619 14.899L17.2569 15.089C17.2876 15.0986 17.3145 15.1173 17.3342 15.1427C17.3539 15.1681 17.3653 15.1989 17.3669 15.231L17.3819 15.553L17.6989 15.653L17.8989 15.399C17.9187 15.3742 17.9455 15.3559 17.9758 15.3466C18.0062 15.3373 18.0386 15.3375 18.0689 15.347L18.6649 15.537C18.7012 15.5487 18.7321 15.5732 18.7517 15.606C18.7714 15.6387 18.7786 15.6774 18.7719 15.715C18.7674 15.7397 18.7572 15.763 18.7419 15.783H18.7409ZM14.3029 15.408L11.8049 0.743003C11.7864 0.634174 11.7466 0.530063 11.6878 0.436623C11.629 0.343182 11.5524 0.262246 11.4623 0.198442C11.3722 0.134637 11.2704 0.0892161 11.1628 0.0647754C11.0551 0.0403347 10.9437 0.0373538 10.8349 0.0560033L0.789894 1.767C0.681064 1.78552 0.576953 1.82531 0.483513 1.8841C0.390073 1.94289 0.309136 2.01951 0.245332 2.1096C0.181528 2.19969 0.136106 2.30147 0.111666 2.40913C0.0872249 2.51678 0.0842441 2.6282 0.102894 2.737L2.60189 17.4C2.63931 17.6196 2.76241 17.8153 2.94413 17.9442C3.12585 18.073 3.3513 18.1244 3.57089 18.087L13.6159 16.376C13.7247 16.3575 13.8288 16.3177 13.9223 16.2589C14.0157 16.2001 14.0967 16.1235 14.1605 16.0334C14.2243 15.9433 14.2697 15.8415 14.2941 15.7339C14.3186 15.6262 14.3215 15.5148 14.3029 15.406V15.408ZM2.31489 4.869C2.30824 4.82804 2.31808 4.78611 2.34225 4.75239C2.36642 4.71866 2.40297 4.69587 2.44389 4.689L3.02789 4.589C3.067 4.58233 3.10716 4.59141 3.13959 4.61428C3.17201 4.63714 3.19405 4.67192 3.20089 4.711C3.20269 4.72258 3.20692 4.73364 3.21329 4.74346C3.21967 4.75329 3.22805 4.76165 3.23789 4.768C3.24981 4.77525 3.26355 4.77893 3.2775 4.77861C3.29144 4.77829 3.305 4.77399 3.31657 4.7662C3.32814 4.75842 3.33724 4.74748 3.3428 4.73468C3.34835 4.72189 3.35012 4.70777 3.34789 4.694L3.11789 3.348C3.11124 3.30704 3.12108 3.26511 3.14525 3.23139C3.16942 3.19766 3.20597 3.17487 3.24689 3.168L3.82389 3.068C3.84432 3.06458 3.86523 3.06523 3.88541 3.06991C3.90558 3.0746 3.92463 3.08324 3.94146 3.09532C3.95828 3.10741 3.97255 3.1227 3.98344 3.14032C3.99432 3.15795 4.00162 3.17755 4.00489 3.198L4.23489 4.543C4.27722 4.79738 4.21715 5.05816 4.06781 5.26839C3.91848 5.47862 3.69202 5.62121 3.43789 5.665C3.18366 5.70766 2.92288 5.648 2.71248 5.49905C2.50208 5.3501 2.35915 5.12396 2.31489 4.87V4.869ZM11.4669 13.122C10.9884 13.269 10.5507 13.5256 10.1888 13.8714C9.82683 14.2172 9.55054 14.6427 9.38189 15.114C9.36413 15.1627 9.33374 15.2057 9.29385 15.2387C9.25396 15.2718 9.206 15.2936 9.15489 15.302L7.42489 15.596C7.37382 15.6052 7.32121 15.6007 7.2725 15.5827C7.2238 15.5648 7.18077 15.5342 7.14789 15.494C6.83271 15.105 6.43115 14.7949 5.97512 14.5883C5.51908 14.3818 5.02115 14.2844 4.52089 14.304C4.37024 14.3089 4.22106 14.2731 4.08907 14.2003C3.95707 14.1275 3.84715 14.0205 3.77088 13.8905C3.69462 13.7604 3.65483 13.6123 3.65571 13.4615C3.65659 13.3108 3.69811 13.1631 3.77589 13.034L4.51389 11.804C4.25617 11.1809 4.12626 10.5123 4.13189 9.838L3.01189 7.79C2.98921 7.7487 2.97675 7.70257 2.97555 7.65546C2.97436 7.60835 2.98446 7.56165 3.00502 7.51925C3.02559 7.47685 3.05601 7.43999 3.09374 7.41177C3.13147 7.38354 3.17541 7.36476 3.22189 7.357L10.3919 6.136C10.4381 6.12826 10.4855 6.13163 10.5301 6.14584C10.5748 6.16005 10.6154 6.1847 10.6487 6.21773C10.6819 6.25077 10.7068 6.29124 10.7212 6.33581C10.7357 6.38037 10.7394 6.42775 10.7319 6.474L10.2819 9.221L10.2869 9.226C10.4519 9.41 10.8409 9.843 10.7729 10.483C10.7609 10.593 10.7349 10.7 10.6969 10.803L11.7489 11.675C11.8653 11.7711 11.9535 11.8968 12.0044 12.0389C12.0553 12.181 12.0669 12.3342 12.0381 12.4823C12.0092 12.6305 11.9409 12.7681 11.8404 12.8807C11.7399 12.9932 11.6108 13.0766 11.4669 13.122V13.122ZM9.32489 10.638C9.26281 10.7119 9.23101 10.8066 9.23589 10.903C9.24989 11.131 9.30589 11.355 9.32189 11.583C9.32984 11.6316 9.32743 11.6814 9.31482 11.729C9.30221 11.7766 9.27969 11.8211 9.24873 11.8594C9.21777 11.8977 9.17906 11.9291 9.13515 11.9514C9.09124 11.9737 9.0431 11.9866 8.99389 11.989C8.48962 12.0391 7.98076 12.0165 7.48289 11.922C7.02289 12.726 5.75589 12.735 5.75589 12.735C5.78989 12.637 5.81389 12.537 5.82989 12.435C5.91389 11.954 5.71989 11.519 5.56989 11.052C5.38647 10.5049 5.32804 9.92366 5.39889 9.351L9.03889 8.73C8.87689 9.23 9.04289 9.697 9.36389 10.055C9.61789 10.337 9.59189 10.369 9.32489 10.638V10.638Z" />
</svg>
