<svg width="22" height="20" viewBox="0 0 22 20"  xmlns="http://www.w3.org/2000/svg">
<path d="M2.14089 2.694C2.68165 2.01174 3.3696 1.46048 4.15333 1.08143C4.93706 0.702383 5.79631 0.505333 6.66689 0.505005H12.0279C12.8986 0.505255 13.7581 0.702265 14.542 1.08132C15.3259 1.46037 16.014 2.01166 16.5549 2.694H2.13989H2.14089ZM21.9119 6.18701C21.9118 6.3962 21.8597 6.60209 21.7602 6.7861C21.6607 6.97011 21.5169 7.12645 21.3419 7.241V14.255C21.3419 14.2862 21.3328 14.3167 21.3155 14.3427C21.2982 14.3687 21.2737 14.389 21.2449 14.401C21.2259 14.4089 21.2055 14.413 21.1849 14.413H18.6069V16.012C18.6066 16.2429 18.5148 16.4643 18.3515 16.6276C18.1882 16.7909 17.9668 16.8827 17.7359 16.883H0.958891C0.727968 16.8827 0.50658 16.7909 0.343293 16.6276C0.180006 16.4643 0.0881553 16.2429 0.0878906 16.012V4.848C0.0878906 4.617 0.179656 4.39546 0.343001 4.23211C0.506345 4.06877 0.727887 3.97701 0.958891 3.97701H17.7359C17.9668 3.97727 18.1882 4.06912 18.3515 4.23241C18.5148 4.39569 18.6066 4.61708 18.6069 4.848V13.032H19.9609V7.24C19.7785 7.12038 19.6303 6.95546 19.5307 6.76137C19.4312 6.56729 19.3838 6.35068 19.393 6.13276C19.4023 5.91483 19.468 5.70305 19.5837 5.51813C19.6994 5.33321 19.8611 5.18149 20.053 5.07781C20.2449 4.97413 20.4604 4.92205 20.6785 4.92666C20.8966 4.93127 21.1097 4.99242 21.2971 5.10411C21.4845 5.21581 21.6396 5.37422 21.7474 5.56387C21.8551 5.75351 21.9118 5.96788 21.9119 6.186V6.18701ZM5.80089 5.358H1.46889V13.128H5.80089V5.358V5.358ZM11.5139 5.358H7.18089V13.128H11.5129V5.358H11.5139ZM17.2259 5.358H12.8949V13.128H17.2259V5.358V5.358ZM17.5779 18.172H1.11789C1.07599 18.172 1.0358 18.1887 1.00617 18.2183C0.976537 18.2479 0.959891 18.2881 0.959891 18.33V19.337C0.959891 19.3789 0.976537 19.4191 1.00617 19.4487C1.0358 19.4784 1.07599 19.495 1.11789 19.495H17.5779C17.5987 19.495 17.6194 19.4909 17.6386 19.4829C17.6578 19.4749 17.6753 19.4632 17.69 19.4484C17.7047 19.4336 17.7163 19.4161 17.7242 19.3968C17.732 19.3775 17.736 19.3568 17.7359 19.336V18.33C17.7359 18.3092 17.7318 18.2885 17.7238 18.2693C17.7158 18.2501 17.704 18.2326 17.6893 18.2179C17.6745 18.2032 17.6569 18.1916 17.6377 18.1837C17.6184 18.1759 17.5977 18.1719 17.5769 18.172H17.5779ZM16.3929 8.421C16.3099 8.20702 16.1818 8.0134 16.0174 7.85328C15.853 7.69315 15.656 7.57028 15.4399 7.493C15.421 7.40732 15.3735 7.33066 15.3051 7.27569C15.2367 7.22073 15.1516 7.19076 15.0639 7.19076C14.9762 7.19076 14.8911 7.22073 14.8227 7.27569C14.7543 7.33066 14.7067 7.40732 14.6879 7.493C14.1199 7.692 13.7879 8.139 13.6289 8.74C13.5432 9.06639 13.5425 9.40927 13.6269 9.736C13.7839 10.342 14.1169 10.792 14.6879 10.993C14.7063 11.0792 14.7537 11.1565 14.8223 11.2119C14.8908 11.2673 14.9763 11.2976 15.0644 11.2976C15.1525 11.2976 15.238 11.2673 15.3065 11.2119C15.375 11.1565 15.4225 11.0792 15.4409 10.993C15.6899 10.908 15.9109 10.759 16.0829 10.56C16.3969 10.195 16.5649 9.728 16.5559 9.248C16.5605 8.96393 16.5049 8.68209 16.3929 8.421V8.421ZM4.96789 8.421C4.8849 8.20702 4.75683 8.0134 4.5924 7.85328C4.42796 7.69315 4.23101 7.57028 4.01489 7.493C3.99603 7.40732 3.94848 7.33066 3.8801 7.27569C3.81172 7.22073 3.72662 7.19076 3.63889 7.19076C3.55116 7.19076 3.46606 7.22073 3.39768 7.27569C3.3293 7.33066 3.28175 7.40732 3.26289 7.493C2.69489 7.692 2.36289 8.139 2.20289 8.74C2.11752 9.06647 2.11717 9.40937 2.20189 9.736C2.35789 10.342 2.69189 10.792 3.26189 10.993C3.28031 11.0792 3.32774 11.1565 3.39626 11.2119C3.46479 11.2673 3.55026 11.2976 3.63839 11.2976C3.72653 11.2976 3.81199 11.2673 3.88052 11.2119C3.94904 11.1565 3.99647 11.0792 4.01489 10.993C4.26489 10.908 4.48589 10.759 4.65789 10.56C4.97089 10.195 5.13989 9.728 5.13089 9.248C5.13553 8.96392 5.07998 8.68208 4.96789 8.421V8.421ZM10.6799 8.421C10.5969 8.20702 10.4688 8.0134 10.3044 7.85328C10.14 7.69315 9.94301 7.57028 9.72689 7.493C9.70803 7.40732 9.66048 7.33066 9.5921 7.27569C9.52372 7.22073 9.43862 7.19076 9.35089 7.19076C9.26316 7.19076 9.17806 7.22073 9.10968 7.27569C9.0413 7.33066 8.99375 7.40732 8.97489 7.493C8.40689 7.692 8.07489 8.139 7.91689 8.74C7.83086 9.0663 7.82983 9.40919 7.91389 9.736C8.07089 10.342 8.40389 10.792 8.97589 10.993C8.99475 11.0787 9.0423 11.1554 9.11068 11.2103C9.17906 11.2653 9.26416 11.2952 9.35189 11.2952C9.43962 11.2952 9.52472 11.2653 9.5931 11.2103C9.66148 11.1554 9.70903 11.0787 9.72789 10.993C9.97689 10.908 10.1979 10.759 10.3709 10.56C10.6839 10.195 10.8519 9.728 10.8439 9.248C10.8482 8.96386 10.7923 8.68201 10.6799 8.421V8.421Z" />
</svg>
