<svg width="18" height="18" viewBox="0 0 18 18" xmlns="http://www.w3.org/2000/svg">
<path d="M4.69483 0.764001C5.02741 0.580273 5.40288 0.488315 5.78272 0.49756C6.16256 0.506804 6.53311 0.616917 6.85636 0.816607C7.1796 1.0163 7.44392 1.29837 7.62219 1.63391C7.80046 1.96944 7.88628 2.34636 7.87083 2.726C7.80883 4.716 5.47083 6.47 4.44083 7.148C4.29867 7.24176 4.13213 7.29174 3.96183 7.29174C3.79154 7.29174 3.62499 7.24176 3.48283 7.148C2.45283 6.47 0.112833 4.714 0.052833 2.723C0.0382435 2.34123 0.125979 1.9625 0.306952 1.62604C0.487926 1.28957 0.755557 1.00761 1.08213 0.809337C1.4087 0.611068 1.78234 0.503707 2.16435 0.498373C2.54636 0.49304 2.92285 0.589927 3.25483 0.779001C3.32083 0.816001 3.65483 1.014 3.83683 1.122C3.8729 1.14363 3.91414 1.15514 3.9562 1.15532C3.99825 1.15549 4.03958 1.14433 4.07583 1.123C4.26783 1.011 4.62883 0.801001 4.69583 0.764001H4.69483ZM0.293833 14.688C0.333833 15.542 1.09983 16.411 1.94183 16.559C2.35283 16.634 2.77683 16.579 3.15583 16.401C3.18446 16.3869 3.21663 16.3818 3.24822 16.3861C3.27981 16.3905 3.30937 16.4042 3.33312 16.4254C3.35688 16.4467 3.37373 16.4746 3.38151 16.5055C3.3893 16.5365 3.38767 16.569 3.37683 16.599C3.22683 16.977 3.02583 17.332 2.77983 17.655C2.75494 17.686 2.73933 17.7235 2.73481 17.763C2.73029 17.8026 2.73705 17.8426 2.7543 17.8785C2.77155 17.9143 2.7986 17.9446 2.83231 17.9657C2.86603 17.9869 2.90503 17.9981 2.94483 17.998H4.95783C4.99702 17.9981 5.03547 17.9874 5.06888 17.9669C5.10228 17.9464 5.12932 17.917 5.14697 17.882C5.16462 17.847 5.17218 17.8078 5.1688 17.7688C5.16542 17.7298 5.15123 17.6924 5.12783 17.661C4.87701 17.3327 4.67274 16.9712 4.52083 16.587C4.50974 16.5567 4.50807 16.5238 4.51602 16.4925C4.52398 16.4613 4.54119 16.4331 4.56541 16.4118C4.58963 16.3905 4.61973 16.3771 4.65174 16.3732C4.68376 16.3693 4.71621 16.3751 4.74483 16.39C5.12383 16.574 5.55083 16.634 5.96683 16.562C6.81483 16.42 7.58883 15.55 7.62983 14.69C7.72483 12.744 5.41283 11.006 4.41183 10.347C4.2782 10.2591 4.12177 10.2123 3.96183 10.2123C3.8019 10.2123 3.64546 10.2591 3.51183 10.347C2.51183 11.005 0.201833 12.742 0.293833 14.687V14.688ZM17.4238 13.578L14.6198 10.49C14.5464 10.4091 14.4569 10.3444 14.357 10.3001C14.2571 10.2559 14.1491 10.233 14.0398 10.233C13.9306 10.233 13.8225 10.2559 13.7226 10.3001C13.6228 10.3444 13.5332 10.4091 13.4598 10.49L10.6538 13.578C10.5228 13.7224 10.4502 13.9105 10.4502 14.1055C10.4502 14.3005 10.5228 14.4886 10.6538 14.633L13.4588 17.72C13.5323 17.8011 13.622 17.8659 13.7221 17.9103C13.8221 17.9547 13.9304 17.9776 14.0398 17.9776C14.1493 17.9776 14.2575 17.9547 14.3576 17.9103C14.4577 17.8659 14.5473 17.8011 14.6208 17.72L17.4258 14.633C17.5571 14.4887 17.6298 14.3006 17.6298 14.1055C17.6298 13.9104 17.5571 13.7223 17.4258 13.578H17.4238ZM16.6018 2.363C16.5174 2.32901 16.4313 2.29931 16.3438 2.274C16.2988 2.26108 16.2592 2.23374 16.2312 2.19616C16.2032 2.15859 16.1883 2.11286 16.1888 2.066C16.1888 2.02 16.1868 1.976 16.1848 1.95C16.1302 1.42006 15.8814 0.929079 15.4864 0.571649C15.0913 0.214219 14.578 0.0156283 14.0452 0.0141381C13.5125 0.0126479 12.998 0.208363 12.601 0.563578C12.204 0.918793 11.9524 1.40837 11.8948 1.938C11.8914 1.98125 11.8897 2.02462 11.8898 2.068C11.8899 2.11452 11.8748 2.15979 11.8468 2.19696C11.8189 2.23413 11.7795 2.26118 11.7348 2.274C11.6237 2.30319 11.5153 2.342 11.4108 2.39C10.9577 2.5879 10.5866 2.93572 10.3597 3.37501C10.1328 3.8143 10.064 4.3183 10.1649 4.80232C10.2658 5.28634 10.5302 5.72089 10.9137 6.03296C11.2972 6.34502 11.7764 6.51559 12.2708 6.516C12.6038 6.516 12.9318 6.438 13.2288 6.288C13.2552 6.27382 13.2853 6.26826 13.315 6.2721C13.3447 6.27595 13.3724 6.289 13.3942 6.30943C13.4161 6.32986 13.431 6.35663 13.4369 6.38597C13.4427 6.41531 13.4392 6.44575 13.4268 6.473C13.2812 6.82135 13.0917 7.14967 12.8628 7.45C12.8389 7.48119 12.8241 7.51849 12.8203 7.55765C12.8165 7.5968 12.8237 7.63624 12.8413 7.67148C12.8588 7.70671 12.8858 7.73631 12.9193 7.75691C12.9529 7.77751 12.9915 7.78829 13.0308 7.788H15.0458C15.0853 7.78848 15.124 7.77784 15.1577 7.75731C15.1914 7.73679 15.2186 7.7072 15.2362 7.67193C15.2538 7.63666 15.2612 7.59715 15.2574 7.5579C15.2536 7.51865 15.2389 7.48126 15.2148 7.45C14.9852 7.14823 14.7953 6.8182 14.6498 6.468C14.6374 6.44127 14.6337 6.4113 14.6393 6.38234C14.6449 6.35339 14.6594 6.32694 14.6809 6.30677C14.7025 6.2866 14.7298 6.27373 14.759 6.27C14.7883 6.26627 14.818 6.27187 14.8438 6.286C15.1037 6.41799 15.3876 6.49582 15.6784 6.51479C15.9692 6.53376 16.2608 6.49346 16.5356 6.39634C16.8104 6.29922 17.0626 6.14731 17.2769 5.94981C17.4912 5.75231 17.6631 5.51334 17.7823 5.2474C17.9015 4.98145 17.9654 4.69407 17.9702 4.40268C17.975 4.11129 17.9205 3.82197 17.8101 3.55225C17.6997 3.28254 17.5357 3.03805 17.328 2.83363C17.1203 2.6292 16.8733 2.46909 16.6018 2.363V2.363Z" />
</svg>
