<svg width="24" height="20" viewBox="0 0 24 20"  xmlns="http://www.w3.org/2000/svg">
<path d="M23.3 18.915L20.53 14.693C20.4862 14.6265 20.4265 14.5719 20.3563 14.5342C20.2862 14.4965 20.2077 14.4768 20.128 14.477H3.95403C3.87558 14.4768 3.79828 14.4959 3.72889 14.5325C3.65951 14.5691 3.60015 14.6221 3.55603 14.687L0.702027 18.913C0.677775 18.949 0.663757 18.991 0.661467 19.0343C0.659177 19.0777 0.668701 19.1209 0.689024 19.1593C0.709347 19.1977 0.739706 19.2298 0.776866 19.2523C0.814025 19.2748 0.856592 19.2868 0.900027 19.287H23.1C23.1432 19.2868 23.1854 19.275 23.2224 19.2528C23.2594 19.2306 23.2897 19.1989 23.3102 19.1609C23.3307 19.1229 23.3405 19.0801 23.3387 19.037C23.3369 18.994 23.3236 18.9521 23.3 18.916V18.915ZM14.454 17.839H9.54403C9.51604 17.8389 9.48859 17.8313 9.46444 17.8172C9.44029 17.803 9.42031 17.7827 9.40651 17.7584C9.39271 17.734 9.38559 17.7065 9.38585 17.6785C9.38612 17.6505 9.39377 17.6231 9.40803 17.599L10.024 16.575C10.0452 16.5395 10.0752 16.5101 10.1111 16.4896C10.1471 16.4691 10.1877 16.4582 10.229 16.458H13.789C13.831 16.4581 13.8722 16.4693 13.9085 16.4904C13.9449 16.5114 13.975 16.5416 13.996 16.578L14.591 17.601C14.6118 17.6375 14.6174 17.6808 14.6065 17.7214C14.5957 17.762 14.5693 17.7967 14.533 17.818C14.509 17.8318 14.4817 17.839 14.454 17.839V17.839ZM19.044 2.095V11.715H5.07003V2.095H19.043H19.044ZM20.108 0.713999H4.00503C3.92113 0.714264 3.84075 0.747779 3.78152 0.807199C3.72229 0.866619 3.68903 0.947098 3.68903 1.031V12.779C3.68929 12.8627 3.72267 12.9429 3.78187 13.0022C3.84108 13.0614 3.9213 13.0947 4.00503 13.095H20.108C20.1918 13.0947 20.272 13.0614 20.3312 13.0022C20.3904 12.9429 20.4238 12.8627 20.424 12.779V1.03C20.4243 0.98838 20.4163 0.947122 20.4005 0.908608C20.3848 0.870093 20.3615 0.835087 20.3321 0.805611C20.3027 0.776135 20.2678 0.752774 20.2293 0.736878C20.1909 0.720982 20.1496 0.712866 20.108 0.712999V0.713999ZM10.491 10.094C10.3022 10.1271 10.1077 10.1002 9.93503 10.017C9.92196 10.0103 9.90717 10.0076 9.89258 10.0094C9.87799 10.0112 9.86429 10.0174 9.85327 10.0271C9.84225 10.0369 9.83442 10.0497 9.83081 10.0639C9.8272 10.0782 9.82797 10.0932 9.83303 10.107C9.90303 10.28 9.99503 10.445 10.109 10.594C10.1171 10.6046 10.1229 10.6168 10.1261 10.6297C10.1292 10.6427 10.1295 10.6562 10.127 10.6693C10.1246 10.6824 10.1194 10.6949 10.1118 10.7058C10.1042 10.7168 10.0944 10.7261 10.083 10.733C10.068 10.7422 10.0507 10.747 10.033 10.747H9.11803C9.10457 10.7468 9.0913 10.7438 9.07907 10.7382C9.06684 10.7326 9.05591 10.7245 9.04697 10.7144C9.03804 10.7043 9.03129 10.6925 9.02717 10.6797C9.02305 10.6669 9.02164 10.6534 9.02303 10.64C9.02502 10.6221 9.03195 10.6052 9.04303 10.591C9.15503 10.444 9.24603 10.283 9.31403 10.111C9.31873 10.0974 9.31933 10.0828 9.31575 10.0689C9.31217 10.055 9.30457 10.0424 9.29389 10.0328C9.28322 10.0232 9.26995 10.017 9.25574 10.0149C9.24154 10.0128 9.22703 10.0149 9.21403 10.021C9.04197 10.1017 8.84904 10.1269 8.66203 10.093C8.46399 10.0474 8.28524 9.94087 8.15089 9.7884C8.01654 9.63594 7.93335 9.4452 7.91303 9.243C7.87103 8.359 8.92103 7.57 9.37503 7.271C9.43585 7.23083 9.50714 7.20942 9.58003 7.20942C9.65292 7.20942 9.7242 7.23083 9.78503 7.271C10.239 7.571 11.289 8.36 11.246 9.244C11.2253 9.447 11.1413 9.63833 11.0058 9.79089C10.8702 9.94345 10.6902 10.0495 10.491 10.094ZM9.79703 6.31C9.73243 6.35245 9.65682 6.37508 9.57953 6.37508C9.50223 6.37508 9.42662 6.35245 9.36203 6.31C8.89403 6 7.83103 5.203 7.80403 4.299C7.79735 4.12549 7.83717 3.95336 7.91938 3.80041C8.00158 3.64747 8.12317 3.51928 8.27157 3.42912C8.41996 3.33897 8.58976 3.29012 8.76337 3.28763C8.93699 3.28515 9.10812 3.32912 9.25903 3.415L9.52303 3.571C9.53949 3.58087 9.55833 3.58608 9.57753 3.58608C9.59672 3.58608 9.61556 3.58087 9.63203 3.571C9.71903 3.521 9.88303 3.425 9.91303 3.409C10.064 3.32553 10.2345 3.2837 10.407 3.28781C10.5794 3.29192 10.7477 3.34182 10.8946 3.43238C11.0414 3.52295 11.1615 3.65094 11.2426 3.80322C11.3237 3.9555 11.3628 4.12661 11.356 4.299C11.328 5.204 10.266 6.001 9.79703 6.309V6.31ZM16.067 9.219L14.792 10.622C14.7586 10.6586 14.7179 10.6878 14.6725 10.7078C14.6271 10.7278 14.5781 10.7381 14.5285 10.7381C14.4789 10.7381 14.4299 10.7278 14.3845 10.7078C14.3392 10.6878 14.2985 10.6586 14.265 10.622L12.99 9.219C12.9302 9.15341 12.897 9.06781 12.897 8.979C12.897 8.89019 12.9302 8.80459 12.99 8.739L14.264 7.337C14.2974 7.30011 14.3381 7.27062 14.3836 7.25044C14.4291 7.23026 14.4783 7.21983 14.528 7.21983C14.5778 7.21983 14.627 7.23026 14.6724 7.25044C14.7179 7.27062 14.7587 7.30011 14.792 7.337L16.067 8.74C16.1266 8.80553 16.1596 8.89092 16.1596 8.9795C16.1596 9.06807 16.1266 9.15347 16.067 9.219V9.219ZM16.298 5.195C16.2647 5.40267 16.1657 5.59421 16.0156 5.74158C15.8656 5.88895 15.6723 5.98442 15.464 6.014C15.2687 6.04067 15.0699 6.00718 14.894 5.918C14.8822 5.91183 14.8688 5.9095 14.8556 5.91132C14.8424 5.91314 14.8302 5.91903 14.8205 5.92816C14.8108 5.93729 14.8042 5.94922 14.8016 5.96227C14.799 5.97533 14.8006 5.98886 14.806 6.001C14.872 6.16 14.958 6.31 15.063 6.447C15.0736 6.46128 15.0799 6.4782 15.0814 6.49588C15.0829 6.51356 15.0795 6.53131 15.0715 6.54716C15.0636 6.56301 15.0513 6.57633 15.0362 6.58566C15.0212 6.59499 15.0038 6.59995 14.986 6.6H14.07C14.0524 6.59977 14.0351 6.59468 14.0202 6.58527C14.0052 6.57587 13.9931 6.56253 13.9853 6.54671C13.9774 6.5309 13.9741 6.51322 13.9756 6.49563C13.9772 6.47804 13.9835 6.46121 13.994 6.447C14.098 6.311 14.184 6.161 14.25 6.003C14.2542 5.99382 14.2561 5.9838 14.2557 5.97374C14.2553 5.96368 14.2526 5.95386 14.2477 5.94503C14.2429 5.93621 14.236 5.92863 14.2278 5.9229C14.2195 5.91717 14.21 5.91344 14.2 5.912C14.1863 5.91 14.1723 5.91245 14.16 5.919C14.0401 5.97932 13.909 6.0142 13.7749 6.02145C13.6409 6.02869 13.5068 6.00815 13.381 5.9611C13.2553 5.91406 13.1407 5.84153 13.0443 5.74807C12.9479 5.65461 12.8719 5.54223 12.821 5.418C12.7677 5.28855 12.7427 5.14918 12.7477 5.00926C12.7528 4.86934 12.7878 4.73213 12.8503 4.60686C12.9128 4.4816 13.0015 4.37119 13.1103 4.28306C13.2191 4.19494 13.3455 4.13116 13.481 4.096C13.5014 4.09011 13.5192 4.07774 13.5318 4.06077C13.5445 4.0438 13.5512 4.02316 13.551 4.002L13.554 3.942C13.5848 3.70038 13.7045 3.47887 13.8897 3.32067C14.0749 3.16247 14.3123 3.0789 14.5558 3.08627C14.7993 3.09364 15.0313 3.1914 15.2066 3.36051C15.3819 3.52962 15.4879 3.75796 15.504 4.001C15.5039 4.02255 15.5109 4.04353 15.5239 4.0607C15.5369 4.07788 15.5553 4.09028 15.576 4.096C15.8115 4.1569 16.0159 4.30327 16.1494 4.50662C16.2828 4.70997 16.3358 4.95572 16.298 5.196V5.195Z" />
</svg>
