<svg width="22" height="22" viewBox="0 0 22 22" xmlns="http://www.w3.org/2000/svg">
<path d="M7.05421 8.51H7.05021C5.34414 8.51053 3.70809 9.18843 2.50162 10.3947C1.29516 11.601 0.617006 13.2369 0.616211 14.943V14.948C0.616804 16.2206 0.994673 17.4645 1.70205 18.5224C2.40943 19.5803 3.41457 20.4048 4.59042 20.8916C5.76626 21.3783 7.06003 21.5056 8.30818 21.2573C9.55633 21.0089 10.7028 20.3961 11.6028 19.4963C12.5027 18.5965 13.1157 17.4501 13.3643 16.2019C13.6128 14.9538 13.4858 13.66 12.9992 12.4841C12.5126 11.3082 11.6883 10.3029 10.6305 9.59539C9.57266 8.88785 8.32883 8.50979 7.05621 8.509L7.05421 8.51ZM11.2402 17.88L11.1102 17.625C11.0619 17.531 10.9813 17.4575 10.8832 17.4181C10.7852 17.3786 10.6762 17.3757 10.5762 17.41L9.35621 17.823C9.2746 17.8507 9.20296 17.9018 9.15021 17.97L8.37921 18.962C8.31456 19.0454 8.28202 19.1492 8.28753 19.2546C8.29304 19.3599 8.33622 19.4598 8.40921 19.536L8.66121 19.802C7.63722 20.1429 6.53144 20.1499 5.50321 19.822L5.75521 19.549C5.82675 19.4716 5.86811 19.3711 5.87178 19.2657C5.87545 19.1604 5.84118 19.0572 5.77521 18.975L4.96921 17.97C4.91555 17.9026 4.8432 17.8525 4.76121 17.826L3.56621 17.442C3.46569 17.4095 3.35683 17.4142 3.25952 17.4554C3.16221 17.4965 3.08295 17.5713 3.03621 17.666L2.90421 17.932C2.28376 17.0744 1.94641 16.0445 1.93921 14.986L2.22021 15.146C2.3119 15.1986 2.41945 15.2164 2.52319 15.1962C2.62694 15.176 2.71995 15.1191 2.78521 15.036L3.58221 14.026C3.6356 13.9581 3.66793 13.8761 3.67521 13.79L3.78121 12.539C3.79025 12.4337 3.76106 12.3286 3.69899 12.2431C3.63693 12.1575 3.54613 12.0971 3.44321 12.073L2.91621 11.948C3.54424 11.0817 4.42799 10.434 5.44321 10.096L5.39621 10.44C5.38205 10.5445 5.40572 10.6506 5.46293 10.7392C5.52015 10.8277 5.60714 10.8929 5.70821 10.923L6.94221 11.287C7.02521 11.311 7.11221 11.311 7.19521 11.286L8.39621 10.919C8.49734 10.8885 8.58411 10.8225 8.64066 10.7333C8.69721 10.6441 8.71977 10.5375 8.70421 10.433L8.65421 10.094C9.67357 10.4319 10.5608 11.0819 11.1902 11.952L10.7002 12.054C10.5969 12.0754 10.5047 12.1332 10.4405 12.2169C10.3762 12.3006 10.3442 12.4047 10.3502 12.51L10.4232 13.796C10.4282 13.882 10.4581 13.9647 10.5092 14.034L11.2592 15.042C11.322 15.1265 11.4131 15.1858 11.5158 15.2089C11.6186 15.232 11.7262 15.2175 11.8192 15.168L12.1652 14.984C12.1594 16.0211 11.8367 17.0316 11.2402 17.88ZM7.95421 16.627H6.14021C6.04724 16.627 5.95666 16.5975 5.88141 16.5429C5.80616 16.4883 5.75009 16.4114 5.72121 16.323L5.19121 14.708C5.16227 14.6195 5.16216 14.524 5.19091 14.4354C5.21967 14.3468 5.27579 14.2697 5.35121 14.215L6.79221 13.161C6.8677 13.1059 6.95875 13.0762 7.05221 13.0762C7.14567 13.0762 7.23672 13.1059 7.31221 13.161L8.76121 14.213C8.8373 14.2682 8.89369 14.3464 8.92213 14.436C8.95056 14.5256 8.94954 14.622 8.91921 14.711L8.37121 16.328C8.34171 16.4152 8.28561 16.4909 8.21081 16.5446C8.136 16.5982 8.04626 16.627 7.95421 16.627ZM18.0902 19.755C19.2122 19.755 20.1922 19.563 20.9542 19.225C21.2442 19.437 21.4102 19.685 21.4102 19.949C21.4102 20.74 19.9242 21.382 18.0902 21.382C16.2562 21.382 14.7702 20.74 14.7702 19.949C14.7702 19.684 14.9372 19.437 15.2262 19.224C15.9882 19.563 16.9682 19.755 18.0902 19.755ZM18.0902 16.889C19.2122 16.889 20.1922 16.696 20.9542 16.357C21.2442 16.57 21.4102 16.817 21.4102 17.082C21.4102 17.874 19.9242 18.515 18.0902 18.515C16.2562 18.515 14.7702 17.874 14.7702 17.082C14.7702 16.818 14.9372 16.57 15.2262 16.357C15.9882 16.696 16.9682 16.889 18.0902 16.889ZM21.4102 14.215C21.4102 15.007 19.9242 15.649 18.0902 15.649C16.2562 15.649 14.7702 15.007 14.7702 14.215C14.7702 13.424 16.2572 12.782 18.0902 12.782C19.9242 12.782 21.4102 13.424 21.4102 14.215ZM13.6342 10.845H16.1402C16.1636 10.8449 16.1868 10.8494 16.2085 10.8583C16.2301 10.8672 16.2498 10.8803 16.2664 10.8968C16.2829 10.9134 16.296 10.9331 16.3049 10.9547C16.3138 10.9764 16.3183 10.9996 16.3182 11.023V11.638C16.9008 11.5153 17.4948 11.4549 18.0902 11.458C18.8337 11.4508 19.5746 11.5478 20.2912 11.746C20.5995 10.7897 20.7544 9.79071 20.7502 8.786C20.737 7.77518 20.5601 6.77318 20.2262 5.819C20.2041 5.73691 20.1774 5.65612 20.1462 5.577C19.6906 4.33427 18.9905 3.1955 18.0872 2.228C17.1142 1.223 16.0152 0.609997 15.0102 0.617997C14.0342 0.627997 12.9652 1.22 11.9972 2.244C11.7042 2.548 11.4372 2.877 11.2002 3.226C10.6566 3.9937 10.2293 4.83746 9.93221 5.73C9.72975 6.33219 9.58346 6.95184 9.49521 7.581C11.2121 8.15567 12.6757 9.30959 13.6352 10.845H13.6342ZM14.0042 5.49H16.1402C16.1635 5.48987 16.1867 5.49435 16.2083 5.50318C16.2298 5.51202 16.2495 5.52504 16.266 5.54148C16.2826 5.55793 16.2957 5.57749 16.3046 5.59903C16.3136 5.62057 16.3182 5.64367 16.3182 5.667V6.635C16.3182 6.68221 16.2995 6.72748 16.2661 6.76086C16.2327 6.79424 16.1874 6.813 16.1402 6.813H14.0042C13.957 6.813 13.9117 6.79424 13.8783 6.76086C13.845 6.72748 13.8262 6.68221 13.8262 6.635V5.667C13.8265 5.61996 13.8453 5.57494 13.8787 5.54178C13.9121 5.50861 13.9572 5.49 14.0042 5.49ZM14.0042 8.167H16.1402C16.1636 8.16686 16.1868 8.17138 16.2085 8.18028C16.2301 8.18917 16.2498 8.20228 16.2664 8.21884C16.2829 8.23539 16.296 8.25507 16.3049 8.27672C16.3138 8.29838 16.3183 8.32159 16.3182 8.345V9.313C16.3182 9.33637 16.3136 9.35952 16.3047 9.38111C16.2957 9.40271 16.2826 9.42233 16.2661 9.43886C16.2495 9.45539 16.2299 9.4685 16.2083 9.47745C16.1867 9.48639 16.1636 9.491 16.1402 9.491H14.0042C13.9571 9.49074 13.912 9.4719 13.8786 9.43857C13.8453 9.40525 13.8265 9.36012 13.8262 9.313V8.345C13.8262 8.29779 13.845 8.25251 13.8783 8.21913C13.9117 8.18575 13.957 8.167 14.0042 8.167Z" />
</svg>
