<svg width="24" height="22" viewBox="0 0 24 22"  xmlns="http://www.w3.org/2000/svg">
<path d="M19.6738 19.29L22.5538 16.41L20.6458 20.876C20.5826 21.0239 20.4909 21.158 20.3758 21.2705C20.2608 21.3829 20.1247 21.4717 19.9754 21.5316C19.8261 21.5915 19.6664 21.6213 19.5056 21.6195C19.3447 21.6177 19.1858 21.5842 19.0378 21.521L13.6558 19.222C13.4512 19.1344 13.2896 18.9691 13.2068 18.7625C13.1239 18.5558 13.1264 18.3248 13.2138 18.12L13.8838 16.551L16.6218 19.289C16.8221 19.4895 17.06 19.6486 17.3219 19.7571C17.5837 19.8657 17.8644 19.9215 18.1478 19.9215C18.4313 19.9215 18.7119 19.8657 18.9738 19.7571C19.2356 19.6486 19.4735 19.4895 19.6738 19.289V19.29ZM23.1518 13.947L18.7418 18.357C18.6638 18.435 18.5712 18.4969 18.4693 18.5391C18.3674 18.5813 18.2581 18.6031 18.1478 18.6031C18.0375 18.6031 17.9283 18.5813 17.8264 18.5391C17.7244 18.4969 17.6318 18.435 17.5538 18.357L13.1438 13.947C12.9865 13.7893 12.8982 13.5757 12.8982 13.353C12.8982 13.1303 12.9865 12.9167 13.1438 12.759L17.5538 8.34899C17.6318 8.27098 17.7244 8.2091 17.8264 8.16688C17.9283 8.12466 18.0375 8.10293 18.1478 8.10293C18.2581 8.10293 18.3674 8.12466 18.4693 8.16688C18.5712 8.2091 18.6638 8.27098 18.7418 8.34899L23.1518 12.759C23.2298 12.837 23.2917 12.9296 23.3339 13.0315C23.3762 13.1334 23.3979 13.2427 23.3979 13.353C23.3979 13.4633 23.3762 13.5725 23.3339 13.6745C23.2917 13.7764 23.2298 13.869 23.1518 13.947V13.947ZM15.8318 12.888C15.7707 12.8269 15.6981 12.7784 15.6183 12.7453C15.5384 12.7122 15.4528 12.6952 15.3663 12.6952C15.2799 12.6952 15.1943 12.7122 15.1144 12.7453C15.0345 12.7784 14.962 12.8269 14.9008 12.888C14.8397 12.9491 14.7912 13.0217 14.7581 13.1016C14.725 13.1814 14.708 13.267 14.708 13.3535C14.708 13.4399 14.725 13.5256 14.7581 13.6054C14.7912 13.6853 14.8397 13.7579 14.9008 13.819C15.0247 13.9402 15.1914 14.0076 15.3647 14.0065C15.538 14.0055 15.7039 13.9362 15.8264 13.8136C15.9489 13.691 16.0181 13.525 16.0189 13.3517C16.0197 13.1784 15.9521 13.0118 15.8308 12.888H15.8318ZM18.6128 15.67C18.5526 15.6054 18.4799 15.5537 18.3992 15.5178C18.3185 15.4819 18.2314 15.4626 18.1431 15.4611C18.0548 15.4595 17.9671 15.4758 17.8852 15.5089C17.8034 15.542 17.729 15.5912 17.6665 15.6537C17.6041 15.7161 17.5548 15.7905 17.5217 15.8724C17.4886 15.9543 17.4724 16.042 17.4739 16.1303C17.4754 16.2186 17.4947 16.3057 17.5306 16.3864C17.5665 16.4671 17.6183 16.5397 17.6828 16.6C17.8075 16.7164 17.9726 16.7798 18.1431 16.7769C18.3137 16.7739 18.4764 16.7049 18.5971 16.5842C18.7177 16.4636 18.7868 16.3009 18.7897 16.1303C18.7926 15.9597 18.7292 15.7947 18.6128 15.67V15.67ZM17.6098 13.892C17.6709 13.9531 17.7434 14.0015 17.8232 14.0345C17.903 14.0676 17.9885 14.0846 18.0748 14.0846C18.1612 14.0846 18.2467 14.0676 18.3265 14.0345C18.4063 14.0015 18.4788 13.9531 18.5398 13.892C18.6009 13.8309 18.6493 13.7584 18.6824 13.6787C18.7154 13.5989 18.7324 13.5134 18.7324 13.427C18.7324 13.3406 18.7154 13.2551 18.6824 13.1753C18.6493 13.0956 18.6009 13.0231 18.5398 12.962C18.4165 12.8387 18.2492 12.7694 18.0748 12.7694C17.9004 12.7694 17.7332 12.8387 17.6098 12.962C17.4865 13.0853 17.4172 13.2526 17.4172 13.427C17.4172 13.6014 17.4865 13.7687 17.6098 13.892ZM18.6128 10.107C18.5526 10.0424 18.4799 9.99066 18.3992 9.95476C18.3185 9.91887 18.2314 9.89958 18.1431 9.89806C18.0548 9.89654 17.9671 9.91281 17.8852 9.9459C17.8034 9.979 17.729 10.0282 17.6665 10.0907C17.6041 10.1531 17.5548 10.2275 17.5217 10.3094C17.4886 10.3913 17.4724 10.479 17.4739 10.5673C17.4754 10.6556 17.4947 10.7427 17.5306 10.8234C17.5665 10.9041 17.6183 10.9767 17.6828 11.037C17.8075 11.1534 17.9726 11.2168 18.1431 11.2139C18.3137 11.2109 18.4764 11.1419 18.5971 11.0212C18.7177 10.9006 18.7868 10.7379 18.7897 10.5673C18.7926 10.3967 18.7292 10.2317 18.6128 10.107V10.107ZM21.3948 12.888C21.2712 12.7644 21.1036 12.695 20.9288 12.695C20.754 12.695 20.5864 12.7644 20.4628 12.888C20.3392 13.0116 20.2698 13.1792 20.2698 13.354C20.2698 13.5288 20.3392 13.6964 20.4628 13.82C20.5864 13.9436 20.754 14.013 20.9288 14.013C21.1036 14.013 21.2712 13.9436 21.3948 13.82C21.5184 13.6964 21.5878 13.5288 21.5878 13.354C21.5878 13.1792 21.5184 13.0116 21.3948 12.888V12.888ZM2.28982 18.408L17.6558 3.04299C17.7723 2.9266 17.9302 2.86122 18.0948 2.86122C18.2595 2.86122 18.4174 2.9266 18.5338 3.04299L22.4988 7.00799C22.5888 7.09776 22.7107 7.14817 22.8378 7.14817C22.9649 7.14817 23.0868 7.09776 23.1768 7.00799L23.2868 6.89799C23.6332 6.55145 23.8279 6.0815 23.8279 5.59149C23.8279 5.10149 23.6332 4.63154 23.2868 4.28499L20.2888 1.28799C19.7065 0.706896 18.9175 0.380539 18.0948 0.380539C17.2722 0.380539 16.4831 0.706896 15.9008 1.28799L0.535824 16.653C0.303104 16.8857 0.172363 17.2014 0.172363 17.5305C0.172363 17.8596 0.303104 18.1753 0.535824 18.408C0.768555 18.6407 1.0842 18.7715 1.41332 18.7715C1.74245 18.7715 2.05809 18.6407 2.29082 18.408H2.28982Z" />
</svg>
