<svg width="22" height="22" viewBox="0 0 22 22"  xmlns="http://www.w3.org/2000/svg">
<path d="M20.9802 0.179993H1.02018C0.797394 0.179993 0.583737 0.268492 0.426206 0.426023C0.268676 0.583554 0.180176 0.797211 0.180176 1.01999V20.98C0.180176 21.2028 0.268676 21.4164 0.426206 21.574C0.583737 21.7315 0.797394 21.82 1.02018 21.82H20.9802C21.203 21.82 21.4166 21.7315 21.5741 21.574C21.7317 21.4164 21.8202 21.2028 21.8202 20.98V1.01999C21.8202 0.797211 21.7317 0.583554 21.5741 0.426023C21.4166 0.268492 21.203 0.179993 20.9802 0.179993V0.179993ZM7.24518 19.183C7.24518 19.2669 7.21192 19.3474 7.15268 19.4068C7.09345 19.4662 7.01308 19.4997 6.92918 19.5H2.81818C2.77651 19.5001 2.73523 19.492 2.69671 19.4761C2.65819 19.4602 2.62319 19.4369 2.59373 19.4074C2.56427 19.378 2.54092 19.343 2.52504 19.3045C2.50915 19.2659 2.50104 19.2247 2.50118 19.183V15.072C2.50118 14.9879 2.53457 14.9073 2.59402 14.8478C2.65347 14.7884 2.7341 14.755 2.81818 14.755H6.93018C7.01408 14.7553 7.09445 14.7888 7.15368 14.8482C7.21292 14.9076 7.24618 14.9881 7.24618 15.072V19.183H7.24518ZM7.24518 13.057C7.24518 13.1409 7.21192 13.2214 7.15268 13.2808C7.09345 13.3402 7.01308 13.3737 6.92918 13.374H2.81818C2.7341 13.374 2.65347 13.3406 2.59402 13.2811C2.53457 13.2217 2.50118 13.1411 2.50118 13.057V8.94399C2.50118 8.85992 2.53457 8.77929 2.59402 8.71984C2.65347 8.66039 2.7341 8.62699 2.81818 8.62699H6.93018C7.01408 8.62726 7.09445 8.66077 7.15368 8.72019C7.21292 8.77961 7.24618 8.86009 7.24618 8.94399V13.056L7.24518 13.057ZM7.24518 6.93099C7.24518 7.01489 7.21192 7.09537 7.15268 7.15479C7.09345 7.21421 7.01308 7.24773 6.92918 7.24799H2.81818C2.7341 7.24799 2.65347 7.2146 2.59402 7.15515C2.53457 7.0957 2.50118 7.01507 2.50118 6.93099V2.81799C2.50118 2.73392 2.53457 2.65329 2.59402 2.59384C2.65347 2.53439 2.7341 2.50099 2.81818 2.50099H6.93018C7.01408 2.50126 7.09445 2.53477 7.15368 2.59419C7.21292 2.65361 7.24618 2.73409 7.24618 2.81799V6.92999L7.24518 6.93099ZM13.3722 19.183C13.3722 19.2671 13.3388 19.3477 13.2793 19.4071C13.2199 19.4666 13.1392 19.5 13.0552 19.5H8.94418C8.90251 19.5001 8.86123 19.492 8.82271 19.4761C8.78419 19.4602 8.74919 19.4369 8.71973 19.4074C8.69027 19.378 8.66692 19.343 8.65104 19.3045C8.63515 19.2659 8.62704 19.2247 8.62718 19.183V15.072C8.62718 14.9879 8.66057 14.9073 8.72002 14.8478C8.77947 14.7884 8.8601 14.755 8.94418 14.755H13.0562C13.1402 14.755 13.2209 14.7884 13.2803 14.8478C13.3398 14.9073 13.3732 14.9879 13.3732 15.072V19.183H13.3722ZM13.3722 13.057C13.3722 13.1411 13.3388 13.2217 13.2793 13.2811C13.2199 13.3406 13.1392 13.374 13.0552 13.374H8.94418C8.86028 13.3737 8.7799 13.3402 8.72067 13.2808C8.66144 13.2214 8.62818 13.1409 8.62818 13.057V8.94399C8.62818 8.86009 8.66144 8.77961 8.72067 8.72019C8.7799 8.66077 8.86028 8.62726 8.94418 8.62699H13.0562C13.1402 8.62699 13.2209 8.66039 13.2803 8.71984C13.3398 8.77929 13.3732 8.85992 13.3732 8.94399V13.056L13.3722 13.057ZM13.3722 6.93099C13.3722 7.01507 13.3388 7.0957 13.2793 7.15515C13.2199 7.2146 13.1392 7.24799 13.0552 7.24799H8.94418C8.8601 7.24799 8.77947 7.2146 8.72002 7.15515C8.66057 7.0957 8.62718 7.01507 8.62718 6.93099V2.81799C8.62718 2.73392 8.66057 2.65329 8.72002 2.59384C8.77947 2.53439 8.8601 2.50099 8.94418 2.50099H13.0562C13.1402 2.50099 13.2209 2.53439 13.2803 2.59384C13.3398 2.65329 13.3732 2.73392 13.3732 2.81799V6.92999L13.3722 6.93099ZM19.4982 19.183C19.4982 19.2671 19.4648 19.3477 19.4053 19.4071C19.3459 19.4666 19.2652 19.5 19.1812 19.5H15.0702C14.9861 19.5 14.9055 19.4666 14.846 19.4071C14.7866 19.3477 14.7532 19.2671 14.7532 19.183V15.072C14.7532 14.9881 14.7864 14.9076 14.8457 14.8482C14.9049 14.7888 14.9853 14.7553 15.0692 14.755H19.1812C19.2651 14.755 19.3456 14.7883 19.405 14.8475C19.4644 14.9067 19.4979 14.9871 19.4982 15.071V19.183V19.183ZM19.4982 13.057C19.4982 13.1411 19.4648 13.2217 19.4053 13.2811C19.3459 13.3406 19.2652 13.374 19.1812 13.374H15.0702C14.9861 13.374 14.9055 13.3406 14.846 13.2811C14.7866 13.2217 14.7532 13.1411 14.7532 13.057V8.94499C14.7532 8.86109 14.7864 8.78061 14.8457 8.72119C14.9049 8.66177 14.9853 8.62826 15.0692 8.62799H19.1812C19.2651 8.62799 19.3456 8.66125 19.405 8.72049C19.4644 8.77972 19.4979 8.86009 19.4982 8.94399V13.056V13.057ZM19.4982 6.93099C19.4979 7.01489 19.4644 7.09527 19.405 7.1545C19.3456 7.21373 19.2651 7.24699 19.1812 7.24699H15.0702C14.9863 7.24699 14.9058 7.21373 14.8464 7.1545C14.787 7.09527 14.7534 7.01489 14.7532 6.93099V2.81799C14.7532 2.73409 14.7864 2.65361 14.8457 2.59419C14.9049 2.53477 14.9853 2.50126 15.0692 2.50099H19.1812C19.2652 2.50099 19.3459 2.53439 19.4053 2.59384C19.4648 2.65329 19.4982 2.73392 19.4982 2.81799V6.92999V6.93099ZM11.8262 11.753C11.8055 11.7819 11.7801 11.8073 11.7512 11.828C10.6152 12.638 9.36118 11.386 10.1722 10.249C10.1929 10.22 10.2182 10.1947 10.2472 10.174C11.3842 9.36399 12.6372 10.617 11.8272 11.753H11.8262ZM5.70118 5.62599C5.68045 5.65493 5.65511 5.68027 5.62618 5.70099C4.48918 6.51099 3.23618 5.25799 4.04618 4.12099C4.06729 4.09233 4.09296 4.06733 4.12218 4.04699C5.25818 3.23699 6.51218 4.48899 5.70118 5.62599V5.62599ZM5.70118 11.752C5.68047 11.7809 5.65513 11.8063 5.62618 11.827C4.48918 12.637 3.23618 11.385 4.04618 10.248C4.0672 10.219 4.09288 10.1936 4.12218 10.173C5.25818 9.36299 6.51218 10.616 5.70118 11.752V11.752ZM17.9532 17.878C17.9324 17.9069 17.9071 17.9323 17.8782 17.953C16.7422 18.763 15.4892 17.511 16.2992 16.375C16.3198 16.3457 16.3451 16.32 16.3742 16.299C17.5112 15.489 18.7642 16.742 17.9542 17.879L17.9532 17.878ZM17.9532 5.62599C17.9324 5.65492 17.9071 5.68025 17.8782 5.70099C16.7422 6.51099 15.4892 5.25799 16.2992 4.12099C16.32 4.09242 16.3453 4.06743 16.3742 4.04699C17.5112 3.23699 18.7642 4.48899 17.9542 5.62599H17.9532Z" />
</svg>
