<svg width="18" height="22" viewBox="0 0 18 22" xmlns="http://www.w3.org/2000/svg">
<path d="M15.78 15.59L14.876 15.176C14.756 14.601 14.845 13.774 14.939 12.48C15.057 10.842 15.192 8.987 15.025 7.207C14.689 3.624 12.904 2.084 12.885 2.084C12.827 2.004 11.436 0.283999 9.01096 0.360999C5.91996 0.459999 4.11997 2.74 3.18997 5.35C2.80397 6.432 2.73396 8.079 2.83096 9.414C2.96096 11.228 3.13696 11.784 3.26496 12.63C3.44096 13.78 3.51696 14.287 3.27796 15.106L2.22097 15.592C1.6514 15.8565 1.1693 16.2783 0.831438 16.8077C0.493579 17.3371 0.314039 17.952 0.313965 18.58V20.802C0.313965 21.0246 0.402327 21.2381 0.559642 21.3956C0.716956 21.5531 0.930356 21.6417 1.15296 21.642H8.31596C8.31596 21.642 7.13096 18.614 6.51296 17.435C6.02296 16.499 5.37297 15.34 4.83297 14.393C5.36997 14.131 5.63796 13.908 5.85996 13.585C6.12242 13.1662 6.34123 12.7215 6.51296 12.258C7.22296 12.815 8.09996 13.118 9.00196 13.12C9.90199 13.1127 10.7751 12.8121 11.489 12.264C11.66 12.726 11.879 13.169 12.14 13.585C12.362 13.908 12.63 14.131 13.168 14.393C12.627 15.34 11.976 16.499 11.487 17.434C10.869 18.614 9.68396 21.642 9.68396 21.642H16.847C17.0697 21.642 17.2834 21.5535 17.4409 21.396C17.5985 21.2384 17.687 21.0248 17.687 20.802V18.58C17.6868 17.9519 17.5071 17.3369 17.1691 16.8075C16.831 16.2781 16.3487 15.8564 15.779 15.592L15.78 15.59ZM12.22 8.69C12.2165 9.43384 11.9529 10.153 11.475 10.723C11.3574 10.866 11.2279 10.9988 11.088 11.12L11.078 11.128C10.4996 11.6254 9.76193 11.8987 8.99909 11.8984C8.23626 11.898 7.49887 11.6239 6.92096 11.126L6.91297 11.119C6.77262 10.9975 6.64283 10.8644 6.52496 10.721C6.04743 10.1516 5.7839 9.43315 5.77996 8.69V6.594C7.02416 6.63776 8.26303 6.41087 9.41096 5.929C10.588 5.433 11.384 4.869 11.925 4.322C12.119 4.742 12.219 5.2 12.219 5.662V8.69H12.22ZM7.10296 16.823V13.898C7.10314 13.8703 7.11051 13.8431 7.12436 13.8191C7.1382 13.795 7.15806 13.775 7.18197 13.761C7.20598 13.7471 7.23323 13.7398 7.26096 13.7398C7.2887 13.7398 7.31595 13.7471 7.33997 13.761L8.97996 14.706C9.00414 14.72 9.03155 14.7273 9.05946 14.7273C9.08737 14.7273 9.11479 14.72 9.13896 14.706L10.779 13.759C10.8031 13.7448 10.8306 13.7373 10.8585 13.7372C10.8865 13.7372 10.914 13.7445 10.9382 13.7586C10.9624 13.7726 10.9825 13.7928 10.9963 13.8171C11.0101 13.8415 11.0173 13.869 11.017 13.897V16.821C11.0171 16.8489 11.0098 16.8763 10.9959 16.9005C10.982 16.9247 10.962 16.9448 10.9378 16.9587C10.9136 16.9726 10.8862 16.9799 10.8583 16.9797C10.8304 16.9796 10.803 16.9721 10.779 16.958L9.13796 16.012C9.11395 15.9981 9.0867 15.9908 9.05896 15.9908C9.03123 15.9908 9.00398 15.9981 8.97996 16.012L7.33997 16.96C7.32198 16.9704 7.30212 16.9771 7.28152 16.9798C7.26093 16.9826 7.24 16.9812 7.21994 16.9758C7.19988 16.9704 7.18107 16.9611 7.1646 16.9485C7.14813 16.9358 7.13433 16.92 7.12396 16.902C7.11007 16.8776 7.10283 16.85 7.10296 16.822V16.823Z" />
</svg>
