<svg width="22" height="22" viewBox="0 0 22 22" xmlns="http://www.w3.org/2000/svg">
<path d="M18.2481 11.539H21.6421C21.5566 12.9882 21.1754 14.4046 20.5221 15.701L17.5871 14.006C17.9508 13.229 18.1742 12.3938 18.2471 11.539H18.2481ZM15.1601 16.884L16.8551 19.819C18.0654 19.0199 19.1016 17.9841 19.9011 16.774L16.9661 15.079C16.4746 15.7819 15.8633 16.3929 15.1601 16.884V16.884ZM14.0871 17.505C13.3102 17.8694 12.475 18.0936 11.6201 18.167V21.561C13.0693 21.4755 14.4857 21.0944 15.7821 20.441L14.2171 17.731L14.0871 17.505ZM5.0341 15.08L2.1001 16.774C2.89933 17.984 3.93511 19.0198 5.1451 19.819L6.8401 16.885C6.13683 16.3936 5.52551 15.7823 5.0341 15.079V15.08ZM7.7831 17.732L6.2181 20.442C7.5145 21.0954 8.93088 21.4765 10.3801 21.562V18.168C9.52516 18.0946 8.68995 17.8704 7.9131 17.506L7.7831 17.732V17.732ZM21.6501 1.4V10.3H17.6541C17.5727 10.3 17.4921 10.316 17.4168 10.3472C17.3416 10.3784 17.2733 10.424 17.2157 10.4816C17.1581 10.5392 17.1124 10.6075 17.0813 10.6827C17.0501 10.758 17.0341 10.8386 17.0341 10.92C17.0337 11.979 16.7547 13.0193 16.2251 13.9364C15.6956 14.8535 14.9341 15.6152 14.0171 16.145C13.1001 16.675 12.0597 16.954 11.0006 16.954C9.94148 16.954 8.90106 16.675 7.9841 16.145H7.9831C7.06611 15.6152 6.30461 14.8535 5.77505 13.9364C5.24549 13.0193 4.96651 11.979 4.9661 10.92C4.9661 10.7556 4.90078 10.5979 4.7845 10.4816C4.66823 10.3653 4.51053 10.3 4.3461 10.3H0.350098V1.4C0.350098 1.14539 0.45124 0.901215 0.631275 0.72118C0.81131 0.541145 1.05549 0.440002 1.3101 0.440002H4.5971C4.72964 0.440206 4.86071 0.467854 4.98205 0.521207C5.10338 0.57456 5.21235 0.65246 5.3021 0.750002L6.7851 2.355C6.87493 2.45236 6.98394 2.53008 7.10527 2.58326C7.2266 2.63643 7.35762 2.66393 7.4901 2.664H14.5101C14.6426 2.66393 14.7736 2.63643 14.8949 2.58326C15.0163 2.53008 15.1253 2.45236 15.2151 2.355L16.6981 0.749002C16.7879 0.651642 16.8969 0.573928 17.0183 0.520749C17.1396 0.46757 17.2706 0.440078 17.4031 0.440002H20.6901C20.9447 0.440002 21.1889 0.541145 21.3689 0.72118C21.549 0.901215 21.6501 1.14539 21.6501 1.4V1.4ZM7.8271 8.26L7.8261 4.702C7.8261 4.61713 7.79238 4.53574 7.73237 4.47573C7.67236 4.41572 7.59097 4.382 7.5061 4.382H5.0731C4.98831 4.38227 4.90707 4.41606 4.84712 4.47602C4.78716 4.53597 4.75336 4.61721 4.7531 4.702V8.262C4.75336 8.34696 4.7873 8.42835 4.84747 8.48834C4.90764 8.54832 4.98914 8.582 5.0741 8.582L7.5051 8.581C7.59006 8.58074 7.67145 8.5468 7.73143 8.48663C7.79142 8.42646 7.8251 8.34496 7.8251 8.26H7.8271ZM11.6201 5.29C11.6201 5.12557 11.5548 4.96787 11.4385 4.8516C11.3222 4.73532 11.1645 4.67 11.0001 4.67C10.8357 4.67 10.678 4.73532 10.5617 4.8516C10.4454 4.96787 10.3801 5.12557 10.3801 5.29V7.63C10.3801 7.79444 10.4454 7.95214 10.5617 8.06841C10.678 8.18468 10.8357 8.25 11.0001 8.25C11.1645 8.25 11.3222 8.18468 11.4385 8.06841C11.5548 7.95214 11.6201 7.79444 11.6201 7.63V5.29ZM17.1881 8.379L17.1871 4.821C17.1871 4.77898 17.1788 4.73737 17.1627 4.69854C17.1467 4.65972 17.1231 4.62444 17.0934 4.59473C17.0637 4.56501 17.0284 4.54144 16.9896 4.52536C16.9507 4.50928 16.9091 4.501 16.8671 4.501H14.4351C14.3504 4.50153 14.2693 4.53541 14.2094 4.59531C14.1495 4.65521 14.1156 4.7363 14.1151 4.821V8.381C14.1156 8.46588 14.1496 8.54712 14.2098 8.60705C14.2699 8.66697 14.3512 8.70074 14.4361 8.701L16.8671 8.7C16.9092 8.7 16.9509 8.69169 16.9898 8.67555C17.0287 8.6594 17.064 8.63574 17.0937 8.60592C17.1235 8.5761 17.147 8.54071 17.163 8.50177C17.179 8.46283 17.1872 8.42111 17.1871 8.379H17.1881ZM3.7521 11.539H0.358098C0.444098 12.988 0.825098 14.404 1.4781 15.701L4.4141 14.006C4.04977 13.2291 3.82565 12.3939 3.7521 11.539V11.539Z" />
</svg>
