<svg width="73" height="81" viewBox="0 0 73 81" fill="none" xmlns="http://www.w3.org/2000/svg">
<g filter="url(#filter0_d)">
<path d="M31.6839 30.2702C31.2808 29.8926 30.648 29.9133 30.2704 30.3163C29.8928 30.7193 29.9134 31.3522 30.3165 31.7298L31.6839 30.2702ZM41.1401 40.5L41.8238 41.2298C42.0256 41.0407 42.1401 40.7765 42.1401 40.5C42.1401 40.2235 42.0256 39.9593 41.8238 39.7702L41.1401 40.5ZM30.3165 49.2702C29.9134 49.6478 29.8928 50.2807 30.2704 50.6837C30.648 51.0867 31.2808 51.1074 31.6839 50.7298L30.3165 49.2702ZM30.3165 31.7298L40.4564 41.2298L41.8238 39.7702L31.6839 30.2702L30.3165 31.7298ZM40.4564 39.7702L30.3165 49.2702L31.6839 50.7298L41.8238 41.2298L40.4564 39.7702Z" fill="#00FFA9"/>
</g>
<defs>
<filter id="filter0_d" x="0" y="0" width="72.14" height="81" filterUnits="userSpaceOnUse" color-interpolation-filters="sRGB">
<feFlood flood-opacity="0" result="BackgroundImageFix"/>
<feColorMatrix in="SourceAlpha" type="matrix" values="0 0 0 0 0 0 0 0 0 0 0 0 0 0 0 0 0 0 127 0"/>
<feOffset/>
<feGaussianBlur stdDeviation="15"/>
<feColorMatrix type="matrix" values="0 0 0 0 0.00392157 0 0 0 0 0.690196 0 0 0 0 0.458824 0 0 0 0.3 0"/>
<feBlend mode="normal" in2="BackgroundImageFix" result="effect1_dropShadow"/>
<feBlend mode="normal" in="SourceGraphic" in2="effect1_dropShadow" result="shape"/>
</filter>
</defs>
</svg>
