<svg width="22" height="24" viewBox="0 0 22 24"  xmlns="http://www.w3.org/2000/svg">
<path d="M9.88392 6.65C10.75 5.71365 11.8352 5.00716 13.0419 4.594L11.6469 0.479999C11.6271 0.421082 11.5958 0.366666 11.5549 0.319873C11.5139 0.273081 11.4642 0.234834 11.4084 0.20733C11.3527 0.179826 11.292 0.163607 11.23 0.159603C11.168 0.155599 11.1057 0.163889 11.0469 0.183999L0.42192 3.787C0.303582 3.82729 0.20606 3.91288 0.150755 4.02499C0.0954497 4.1371 0.0868778 4.26658 0.12692 4.385L1.85992 9.5C2.87435 8.42107 4.13152 7.59967 5.52704 7.104C6.92256 6.60834 8.41619 6.45269 9.88392 6.65ZM8.66792 2.669L10.3369 2.103C10.3816 2.08809 10.4304 2.09151 10.4726 2.1125C10.5147 2.1335 10.5469 2.17035 10.5619 2.215L11.1269 3.883C11.1419 3.92743 11.1388 3.97599 11.1182 4.01812C11.0976 4.06025 11.0612 4.09255 11.0169 4.108L9.34792 4.674C9.30323 4.68891 9.25445 4.68549 9.21228 4.66449C9.1701 4.6435 9.13797 4.60664 9.12292 4.562L8.55692 2.894C8.54197 2.84944 8.54525 2.80077 8.56604 2.75862C8.58684 2.71647 8.62346 2.68425 8.66792 2.669ZM5.41092 3.772L7.07892 3.207C7.12348 3.19204 7.17215 3.19532 7.2143 3.21612C7.25645 3.23691 7.28867 3.27354 7.30392 3.318L7.86992 4.986C7.88483 5.03069 7.88141 5.07947 7.86042 5.12164C7.83942 5.16382 7.80256 5.19595 7.75792 5.211L6.08992 5.777C6.06786 5.78454 6.04453 5.78765 6.02127 5.78615C5.998 5.78465 5.97526 5.77856 5.95436 5.76825C5.93345 5.75794 5.91479 5.74359 5.89944 5.72605C5.88409 5.7085 5.87236 5.68809 5.86492 5.666L5.29892 3.998C5.29136 3.97587 5.28824 3.95247 5.28973 3.92914C5.29122 3.9058 5.29729 3.88299 5.3076 3.862C5.31791 3.84101 5.33225 3.82226 5.34981 3.80682C5.36736 3.79138 5.38779 3.77955 5.40992 3.772H5.41092ZM2.15192 4.877L3.81992 4.311C3.86461 4.29609 3.91339 4.29951 3.95556 4.3205C3.99774 4.3415 4.02987 4.37835 4.04492 4.423L4.61092 6.091C4.62587 6.13556 4.6226 6.18423 4.6018 6.22638C4.581 6.26853 4.54438 6.30075 4.49992 6.316L2.83092 6.882C2.78623 6.89691 2.73745 6.89349 2.69528 6.87249C2.6531 6.8515 2.62097 6.81464 2.60592 6.77L2.03992 5.102C2.02501 5.05731 2.02843 5.00853 2.04942 4.96635C2.07042 4.92418 2.10728 4.89205 2.15192 4.877ZM8.89492 7.891C6.78035 7.82178 4.72489 8.5954 3.18071 10.0417C1.63654 11.488 0.730142 13.4884 0.66092 15.603C0.591699 17.7176 1.36532 19.773 2.8116 21.3172C4.25788 22.8614 6.25835 23.7678 8.37292 23.837C10.4875 23.9062 12.543 23.1326 14.0871 21.6863C15.6313 20.24 16.5377 18.2396 16.6069 16.125C16.6761 14.0104 15.9025 11.955 14.4562 10.4108C13.01 8.86662 11.0095 7.96022 8.89492 7.891ZM13.4099 20.64C11.6549 22.396 8.84592 22.432 7.13592 20.722C5.42592 19.012 5.46192 16.202 7.21692 14.448C8.97192 12.693 11.7809 12.656 13.4909 14.366C15.2009 16.076 15.1649 18.886 13.4099 20.64ZM13.3639 16.605C13.4015 16.8706 13.3849 17.141 13.3152 17.4001C13.2454 17.6591 13.1239 17.9012 12.9579 18.112C12.783 18.3297 12.5646 18.5086 12.3166 18.6372C12.0687 18.7658 11.7967 18.8414 11.5179 18.859C11.134 18.8753 10.7494 18.8646 10.3669 18.827C10.0589 18.805 9.73092 18.781 9.38692 18.776L10.7689 20.159C10.7938 20.1839 10.8078 20.2177 10.8078 20.253C10.8078 20.2882 10.7938 20.3221 10.7689 20.347L10.1649 20.95C10.14 20.9749 10.1062 20.9889 10.0709 20.9889C10.0357 20.9889 10.0019 20.9749 9.97692 20.95L7.30292 18.277C7.26475 18.2398 7.23747 18.1928 7.22401 18.1412C7.21056 18.0896 7.21144 18.0353 7.22657 17.9842C7.24169 17.933 7.27048 17.887 7.30984 17.851C7.3492 17.815 7.39763 17.7905 7.44992 17.78C7.61392 17.746 7.79992 17.714 8.00292 17.69C8.95592 17.577 9.77792 17.662 10.4469 17.71C10.7749 17.742 11.1039 17.753 11.4339 17.742C11.5541 17.7356 11.6718 17.7051 11.78 17.6523C11.8882 17.5996 11.9848 17.5257 12.0639 17.435C12.1802 17.2968 12.25 17.1254 12.2634 16.9453C12.2768 16.7652 12.2332 16.5854 12.1387 16.4314C12.0442 16.2775 11.9036 16.1572 11.7369 16.0877C11.5702 16.0181 11.3858 16.0029 11.2099 16.044L10.7939 16.14C10.7768 16.144 10.7591 16.1446 10.7418 16.1417C10.7246 16.1388 10.708 16.1326 10.6931 16.1233C10.6782 16.114 10.6654 16.1018 10.6552 16.0876C10.645 16.0733 10.6378 16.0571 10.6339 16.04L10.4409 15.21C10.4369 15.1929 10.4363 15.1752 10.4392 15.1579C10.4421 15.1406 10.4483 15.1241 10.4576 15.1092C10.4669 15.0943 10.4791 15.0814 10.4934 15.0713C10.5077 15.0611 10.5238 15.0539 10.5409 15.05L10.9559 14.953C11.3269 14.8678 11.7145 14.8907 12.0729 15.019C12.4313 15.1473 12.7454 15.3757 12.9779 15.677C13.1849 15.947 13.3179 16.267 13.3639 16.605ZM21.2259 14.785C20.4911 16.2279 19.2337 17.3362 17.7099 17.884C17.7979 17.49 17.8599 17.091 17.8959 16.69C18.5632 16.2977 19.0807 15.6942 19.3665 14.9748C19.6523 14.2555 19.6901 13.4614 19.474 12.7181C19.2578 11.9748 18.8 11.3248 18.173 10.871C17.546 10.4171 16.7855 10.1852 16.0119 10.212C14.8509 8.69801 13.2539 7.57602 11.4359 6.997C12.5632 6.04989 13.9834 5.5217 15.4556 5.50197C16.9279 5.48223 18.3616 5.97216 19.514 6.88871C20.6663 7.80526 21.4662 9.09205 21.7782 10.531C22.0902 11.9699 21.8951 13.4725 21.2259 14.784V14.785Z" />
</svg>
