<svg width="23" height="22" viewBox="0 0 23 22" fill="none" xmlns="http://www.w3.org/2000/svg">
<path d="M22.2939 15.102L17.6049 16.984V6.42401C17.6041 5.85059 17.3759 5.30089 16.9705 4.89542C16.565 4.48995 16.0153 4.26181 15.4419 4.26101H6.89786L16.4099 0.443011C16.5123 0.401845 16.6218 0.381271 16.7322 0.382465C16.8426 0.383659 16.9516 0.406597 17.0532 0.449969C17.1547 0.493341 17.2466 0.556295 17.3238 0.635232C17.401 0.71417 17.4618 0.807542 17.5029 0.910011L22.7609 14.01C22.8437 14.2168 22.841 14.4479 22.7535 14.6527C22.6659 14.8575 22.5006 15.0191 22.2939 15.102ZM16.2819 6.42401V20.54C16.2819 20.7628 16.1934 20.9765 16.0358 21.134C15.8783 21.2915 15.6646 21.38 15.4419 21.38H1.32486C1.10208 21.38 0.888424 21.2915 0.730894 21.134C0.573363 20.9765 0.484863 20.7628 0.484863 20.54V6.42401C0.484863 6.20123 0.573363 5.98757 0.730894 5.83004C0.888424 5.67251 1.10208 5.58401 1.32486 5.58401H15.4409C15.6636 5.58401 15.8773 5.67251 16.0348 5.83004C16.1924 5.98757 16.2809 6.20123 16.2809 6.42401H16.2819ZM5.51386 17.407C5.51386 17.2685 5.48659 17.1314 5.43359 17.0035C5.3806 16.8755 5.30293 16.7593 5.20501 16.6614C5.10709 16.5634 4.99084 16.4858 4.8629 16.4328C4.73497 16.3798 4.59784 16.3525 4.45936 16.3525C4.32088 16.3525 4.18376 16.3798 4.05582 16.4328C3.92789 16.4858 3.81164 16.5634 3.71372 16.6614C3.6158 16.7593 3.53813 16.8755 3.48513 17.0035C3.43214 17.1314 3.40486 17.2685 3.40486 17.407C3.40486 17.6867 3.51596 17.9549 3.71372 18.1527C3.91148 18.3504 4.17969 18.4615 4.45936 18.4615C4.73903 18.4615 5.00725 18.3504 5.20501 18.1527C5.40276 17.9549 5.51386 17.6867 5.51386 17.407ZM5.51386 9.55801C5.51386 9.27847 5.40282 9.01038 5.20515 8.81272C5.00749 8.61506 4.7394 8.50401 4.45986 8.50401C4.18033 8.50401 3.91224 8.61506 3.71457 8.81272C3.51691 9.01038 3.40586 9.27847 3.40586 9.55801C3.40586 9.83755 3.51691 10.1056 3.71457 10.3033C3.91224 10.501 4.18033 10.612 4.45986 10.612C4.7394 10.612 5.00749 10.501 5.20515 10.3033C5.40282 10.1056 5.51386 9.83755 5.51386 9.55801ZM9.43786 13.688C9.44221 13.5469 9.41818 13.4064 9.36719 13.2748C9.3162 13.1432 9.2393 13.0232 9.14104 12.9218C9.04279 12.8205 8.92518 12.7399 8.7952 12.6849C8.66522 12.6299 8.52551 12.6016 8.38436 12.6016C8.24322 12.6016 8.10351 12.6299 7.97353 12.6849C7.84355 12.7399 7.72594 12.8205 7.62768 12.9218C7.52943 13.0232 7.45252 13.1432 7.40154 13.2748C7.35055 13.4064 7.32652 13.5469 7.33086 13.688C7.3393 13.9618 7.45399 14.2215 7.65064 14.4122C7.84729 14.6029 8.11045 14.7095 8.38436 14.7095C8.65828 14.7095 8.92144 14.6029 9.11809 14.4122C9.31474 14.2215 9.42943 13.9618 9.43786 13.688ZM13.3629 17.407C13.3629 17.2685 13.3356 17.1313 13.2826 17.0033C13.2295 16.8753 13.1518 16.759 13.0539 16.661C12.9559 16.563 12.8396 16.4853 12.7116 16.4323C12.5836 16.3793 12.4464 16.352 12.3079 16.352C12.1693 16.352 12.0321 16.3793 11.9041 16.4323C11.7761 16.4853 11.6598 16.563 11.5619 16.661C11.4639 16.759 11.3862 16.8753 11.3332 17.0033C11.2802 17.1313 11.2529 17.2685 11.2529 17.407C11.2529 17.6868 11.364 17.9552 11.5619 18.153C11.7597 18.3509 12.0281 18.462 12.3079 18.462C12.5877 18.462 12.856 18.3509 13.0539 18.153C13.2517 17.9552 13.3629 17.6868 13.3629 17.407ZM13.3629 9.55801C13.3629 9.27847 13.2518 9.01038 13.0542 8.81272C12.8565 8.61506 12.5884 8.50401 12.3089 8.50401C12.0293 8.50401 11.7612 8.61506 11.5636 8.81272C11.3659 9.01038 11.2549 9.27847 11.2549 9.55801C11.2633 9.8318 11.378 10.0915 11.5746 10.2822C11.7713 10.4729 12.0344 10.5795 12.3084 10.5795C12.5823 10.5795 12.8454 10.4729 13.0421 10.2822C13.2387 10.0915 13.3534 9.8318 13.3619 9.55801H13.3629Z" fill="#6F7174"/>
</svg>
