<svg width="24" height="20" viewBox="0 0 24 20" fill="none" xmlns="http://www.w3.org/2000/svg">
<path d="M22.7662 7.125L18.9502 6.58L18.1802 0.527999C18.1642 0.401782 18.0988 0.287069 17.9983 0.209066C17.8978 0.131062 17.7704 0.0961492 17.6442 0.111998L1.2602 2.193C1.1976 2.2009 1.13718 2.22107 1.08239 2.25234C1.0276 2.28362 0.97951 2.32538 0.940873 2.37526C0.902236 2.42513 0.873811 2.48214 0.857222 2.54301C0.840634 2.60387 0.836207 2.66742 0.844196 2.73L2.3502 14.585C2.3581 14.6476 2.37827 14.708 2.40954 14.7628C2.44081 14.8176 2.48258 14.8657 2.53246 14.9043C2.58233 14.943 2.63933 14.9714 2.7002 14.988C2.76107 15.0046 2.82461 15.009 2.8872 15.001L4.4972 14.796L4.1782 17.02C4.16915 17.0824 4.1725 17.1461 4.18806 17.2072C4.20362 17.2684 4.23109 17.3259 4.26889 17.3764C4.3067 17.4269 4.35409 17.4695 4.40837 17.5017C4.46264 17.5339 4.52273 17.5551 4.5852 17.564L20.9352 19.905C20.9976 19.914 21.0613 19.9107 21.1224 19.8951C21.1836 19.8796 21.2411 19.8521 21.2916 19.8143C21.3421 19.7765 21.3847 19.7291 21.4169 19.6748C21.4491 19.6206 21.4703 19.5605 21.4792 19.498L23.1732 7.668C23.1912 7.54203 23.1584 7.41407 23.0821 7.31224C23.0058 7.21042 22.8922 7.14307 22.7662 7.125V7.125ZM5.3282 2.957L16.8752 1.489C16.9068 1.48504 16.9386 1.49376 16.9637 1.51327C16.9888 1.53277 17.0052 1.56144 17.0092 1.593L18.2862 11.642C18.2893 11.6657 18.2852 11.6898 18.2745 11.7112C18.2638 11.7325 18.247 11.7502 18.2262 11.762C18.2126 11.7695 18.1976 11.7742 18.1822 11.776L6.6362 13.244C6.61249 13.2471 6.58841 13.243 6.56703 13.2323C6.54565 13.2216 6.52795 13.2048 6.5162 13.184C6.50835 13.1705 6.50325 13.1555 6.5012 13.14L5.2242 3.09C5.22023 3.05844 5.22896 3.0266 5.24846 3.00147C5.26796 2.97635 5.29664 2.95999 5.3282 2.956V2.957ZM20.3242 18.413C20.322 18.4286 20.3167 18.4437 20.3087 18.4573C20.3006 18.4709 20.29 18.4828 20.2774 18.4922C20.2647 18.5017 20.2504 18.5086 20.2351 18.5125C20.2198 18.5164 20.2038 18.5173 20.1882 18.515L8.6662 16.865C8.65056 16.8628 8.63551 16.8575 8.62191 16.8495C8.60831 16.8415 8.59644 16.8308 8.58696 16.8182C8.57748 16.8055 8.5706 16.7912 8.56669 16.7759C8.56278 16.7606 8.56194 16.7446 8.5642 16.729L8.9222 14.234L19.2722 12.918C19.3984 12.902 19.5131 12.8366 19.5911 12.7361C19.6691 12.6356 19.704 12.5082 19.6882 12.382L19.1162 7.886L21.6582 8.25C21.6738 8.2522 21.6889 8.25748 21.7025 8.26551C21.7161 8.27355 21.728 8.28419 21.7374 8.29682C21.7469 8.30946 21.7538 8.32384 21.7577 8.33914C21.7616 8.35444 21.7625 8.37037 21.7602 8.386L20.3242 18.413ZM7.3232 7.013C7.4892 6.963 7.6502 6.895 7.8032 6.813L7.7232 6.973C7.5889 7.26934 7.4766 7.57517 7.3872 7.888C7.34051 8.05183 7.30114 8.21766 7.2692 8.385C7.23356 8.56239 7.21149 8.74225 7.2032 8.923C7.20194 8.95986 7.20942 8.99649 7.22501 9.02991C7.2406 9.06332 7.26388 9.09258 7.29293 9.1153C7.32198 9.13802 7.35599 9.15354 7.39218 9.16061C7.42838 9.16769 7.46573 9.16611 7.5012 9.156C7.6742 9.104 7.8432 9.039 8.0072 8.961L8.0892 8.921C7.89352 9.40882 7.73931 9.91227 7.6282 10.426C7.5732 10.676 7.5352 10.928 7.5162 11.183C7.51224 11.2448 7.53231 11.3057 7.5722 11.353C7.60266 11.3885 7.64294 11.4141 7.68795 11.4268C7.73297 11.4394 7.78072 11.4384 7.8252 11.424C8.0682 11.344 8.3052 11.245 8.5332 11.131C8.95177 10.9243 9.35394 10.686 9.7362 10.418C9.6962 10.553 9.6582 10.69 9.6262 10.832C9.5702 11.061 9.5312 11.294 9.5082 11.529C9.50471 11.5695 9.51143 11.6102 9.52774 11.6474C9.54405 11.6846 9.56943 11.7172 9.60157 11.742C9.6337 11.7669 9.67155 11.7833 9.71167 11.7898C9.75179 11.7962 9.79288 11.7925 9.8312 11.779C10.0532 11.699 10.2692 11.603 10.4782 11.492C10.6822 11.387 10.8732 11.272 11.0622 11.155C11.3322 10.983 11.5882 10.801 11.8322 10.609C11.7887 10.8353 11.7699 11.0656 11.7762 11.296C11.7773 11.3308 11.786 11.3649 11.8018 11.3959C11.8176 11.427 11.8401 11.4541 11.8676 11.4754C11.8951 11.4967 11.927 11.5117 11.961 11.5192C11.995 11.5268 12.0302 11.5267 12.0642 11.519C12.2312 11.479 12.3942 11.428 12.5532 11.362C12.7052 11.302 12.8472 11.234 12.9862 11.163C13.365 10.9656 13.7194 10.7246 14.0422 10.445C14.0122 10.62 14.0035 10.7979 14.0162 10.975C14.0217 11.0025 14.0325 11.0286 14.0481 11.0518C14.0637 11.0751 14.0838 11.095 14.1071 11.1105C14.1304 11.1261 14.1565 11.1368 14.184 11.1422C14.2115 11.1476 14.2397 11.1475 14.2672 11.142C14.6002 11.072 14.9152 10.932 15.1902 10.732C15.6798 10.376 16.0565 9.88649 16.2752 9.322C16.4012 9.006 16.4612 8.67 16.4522 8.332C16.4501 8.28221 16.4311 8.23461 16.3984 8.19701C16.3657 8.1594 16.3212 8.13401 16.2722 8.125C16.2441 8.11978 16.2152 8.12012 16.1872 8.126C16.0121 8.16424 15.8422 8.22333 15.6812 8.302C15.7272 8.204 15.7742 8.106 15.8162 8.004C15.9302 7.726 16.0222 7.44 16.0902 7.147C16.1261 6.99179 16.1545 6.83494 16.1752 6.677C16.1992 6.508 16.2092 6.337 16.2052 6.167C16.2043 6.13274 16.1958 6.09911 16.1803 6.06853C16.1648 6.03795 16.1427 6.01118 16.1157 5.99014C16.0886 5.9691 16.0572 5.95432 16.0238 5.94687C15.9903 5.93941 15.9556 5.93945 15.9222 5.947C15.7559 5.98657 15.593 6.03941 15.4352 6.105C15.3822 6.125 15.3322 6.148 15.2812 6.171C15.4169 5.86527 15.5371 5.55287 15.6412 5.235C15.7072 5.023 15.7712 4.809 15.8212 4.585C15.8782 4.356 15.9172 4.123 15.9412 3.889C15.9447 3.84939 15.9382 3.80953 15.9222 3.7731C15.9063 3.73667 15.8814 3.70483 15.85 3.68053C15.8185 3.65623 15.7814 3.64023 15.7421 3.63402C15.7028 3.62781 15.6626 3.63159 15.6252 3.645C15.4033 3.72547 15.1874 3.82172 14.9792 3.933C14.6828 4.08864 14.3963 4.2623 14.1212 4.453L14.2012 4.147C14.2262 4.025 14.2572 3.909 14.2772 3.784C14.3282 3.529 14.3592 3.271 14.3692 3.011C14.3708 2.95574 14.3531 2.90164 14.3192 2.858C14.2903 2.82149 14.2512 2.7944 14.2069 2.78016C14.1625 2.76592 14.115 2.76516 14.0702 2.778C13.8212 2.852 13.5782 2.945 13.3432 3.056C13.2272 3.106 13.1222 3.166 13.0102 3.219L12.6932 3.394C12.4532 3.534 12.2252 3.684 12.0052 3.84L12.0062 3.835C12.0422 3.658 12.0632 3.478 12.0712 3.297C12.0725 3.26041 12.0651 3.22403 12.0496 3.19086C12.0341 3.15769 12.011 3.12868 11.9821 3.10621C11.9532 3.08375 11.9193 3.06848 11.8834 3.06166C11.8474 3.05484 11.8103 3.05667 11.7752 3.067C11.6019 3.11835 11.4327 3.18287 11.2692 3.26C11.1092 3.332 10.9612 3.412 10.8152 3.495C10.5333 3.65785 10.2639 3.84135 10.0092 4.044C9.9402 4.098 9.8762 4.156 9.8102 4.212C9.8532 4.042 9.8802 3.869 9.8902 3.694C9.89191 3.66276 9.88605 3.63158 9.87312 3.6031C9.86018 3.57462 9.84054 3.54969 9.81589 3.53044C9.79123 3.51119 9.76229 3.49818 9.73152 3.49254C9.70076 3.48689 9.66908 3.48876 9.6392 3.498C9.2742 3.618 8.9332 3.803 8.6332 4.043C8.3532 4.26 8.1022 4.51 7.8822 4.787C7.66034 5.06156 7.47388 5.36292 7.3272 5.684C7.1632 6.033 7.0662 6.408 7.0412 6.792C7.03954 6.827 7.04631 6.86189 7.06094 6.89373C7.07556 6.92558 7.09762 6.95344 7.12525 6.975C7.15287 6.99655 7.18527 7.01116 7.21972 7.0176C7.25416 7.02404 7.28965 7.02212 7.3232 7.012V7.013ZM10.0182 5.775C10.2424 5.51838 10.551 5.35028 10.8882 5.301L10.8712 5.17C10.861 5.08807 10.8837 5.00545 10.9343 4.94022C10.9849 4.87499 11.0593 4.83248 11.1412 4.822L11.7142 4.749C11.7548 4.74368 11.7961 4.74646 11.8356 4.75718C11.8751 4.7679 11.9121 4.78634 11.9445 4.81145C11.9768 4.83655 12.0039 4.86782 12.0241 4.90344C12.0443 4.93907 12.0573 4.97834 12.0622 5.019L12.0782 5.148L12.8062 5.055C12.8468 5.04968 12.8881 5.05246 12.9276 5.06318C12.9671 5.0739 13.0041 5.09234 13.0365 5.11745C13.0688 5.14255 13.0959 5.17382 13.1161 5.20944C13.1363 5.24507 13.1493 5.28434 13.1542 5.325L13.2272 5.898C13.2374 5.97992 13.2147 6.06255 13.1641 6.12778C13.1135 6.19301 13.0391 6.23552 12.9572 6.246L11.9212 6.377L11.7362 6.401L11.0492 6.488C11.0245 6.49095 11.0006 6.499 10.9791 6.51165C10.9577 6.52429 10.9391 6.54126 10.9245 6.56147C10.9099 6.58168 10.8997 6.60469 10.8945 6.62905C10.8893 6.65342 10.8892 6.6786 10.8942 6.703C10.9041 6.748 10.9306 6.78762 10.9684 6.81395C11.0062 6.84027 11.0526 6.85136 11.0982 6.845L12.2232 6.702C12.5862 6.651 12.9552 6.74 13.2552 6.952C13.4082 7.0639 13.5364 7.2061 13.632 7.36976C13.7276 7.53341 13.7885 7.71499 13.8108 7.9032C13.8331 8.0914 13.8165 8.28219 13.7618 8.46366C13.7072 8.64514 13.6157 8.81341 13.4932 8.958C13.2689 9.21462 12.9604 9.38272 12.6232 9.432L12.6382 9.553C12.6435 9.59361 12.6407 9.63486 12.63 9.67439C12.6193 9.71392 12.6009 9.75093 12.5757 9.78329C12.5506 9.81565 12.5194 9.84271 12.4838 9.86291C12.4481 9.88312 12.4089 9.89606 12.3682 9.901L11.7952 9.974C11.7133 9.98392 11.6308 9.96113 11.5657 9.91057C11.5005 9.86001 11.4579 9.78578 11.4472 9.704L11.4322 9.585L10.7362 9.674C10.6543 9.68392 10.5718 9.66113 10.5067 9.61057C10.4415 9.56001 10.3989 9.48577 10.3882 9.404L10.3152 8.831C10.3099 8.79039 10.3127 8.74913 10.3234 8.7096C10.3341 8.67008 10.3525 8.63307 10.3776 8.60071C10.4027 8.56835 10.434 8.54129 10.4696 8.52108C10.5053 8.50088 10.5445 8.48794 10.5852 8.483L12.4582 8.245C12.5042 8.23996 12.5465 8.21763 12.5766 8.18252C12.6066 8.14742 12.6222 8.10219 12.6202 8.056C12.6188 8.03119 12.6122 8.00694 12.601 7.98476C12.5898 7.96259 12.5741 7.94296 12.555 7.92711C12.5358 7.91125 12.5136 7.89951 12.4898 7.89261C12.4659 7.88571 12.4408 7.8838 12.4162 7.887L11.2862 8.031C10.9235 8.08216 10.555 7.99272 10.2562 7.781C10.1032 7.6691 9.97496 7.52689 9.87937 7.36324C9.78378 7.19959 9.72292 7.018 9.70059 6.8298C9.67826 6.6416 9.69494 6.45081 9.74958 6.26933C9.80423 6.08786 9.89566 5.91958 10.0182 5.775V5.775Z" fill="#6F7174"/>
</svg>
