<svg width="22" height="22" viewBox="0 0 22 22" xmlns="http://www.w3.org/2000/svg">
<path d="M21.0039 16.278C21.2809 15.998 21.5359 15.698 21.7689 15.382C21.6069 16.492 21.0469 17.557 20.1219 18.494C18.1479 20.494 14.7609 21.697 11.0619 21.71H10.9989C8.18887 21.71 5.53488 21.027 3.51688 19.782C1.62688 18.616 0.481875 17.078 0.232875 15.397C0.952399 16.3421 1.84614 17.1408 2.86588 17.75C5.07588 19.112 7.96288 19.863 10.9979 19.863H11.0659C15.0879 19.848 18.8029 18.508 21.0039 16.278ZM0.180875 11.655C0.167875 10.281 0.754875 8.954 1.87788 7.815C3.65288 6.017 6.57088 4.865 9.82888 4.64L9.90088 4.102C9.51899 3.86659 9.22434 3.51301 9.06166 3.09493C8.89898 2.67685 8.87715 2.21711 8.99949 1.7855C9.12184 1.35389 9.38166 0.973984 9.73953 0.703457C10.0974 0.432929 10.5338 0.286554 10.9824 0.286554C11.431 0.286554 11.8674 0.432929 12.2252 0.703457C12.5831 0.973984 12.8429 1.35389 12.9653 1.7855C13.0876 2.21711 13.0658 2.67685 12.9031 3.09493C12.7404 3.51301 12.4458 3.86659 12.0639 4.102L12.1349 4.638C14.5189 4.797 16.7389 5.452 18.4829 6.528C20.6159 7.844 21.8009 9.634 21.8189 11.568C21.8319 12.941 21.2449 14.268 20.1219 15.407C18.1479 17.407 14.7609 18.609 11.0619 18.622H10.9989C8.18887 18.622 5.53488 17.939 3.51688 16.695C1.38388 15.379 0.198875 13.589 0.180875 11.655V11.655ZM1.56088 11.612C1.56188 12.643 2.04388 13.642 2.94088 14.515L5.38088 13.635C5.95088 14.251 6.77088 14.762 7.75588 15.117L6.44488 16.535C7.91488 17.014 9.45288 17.252 10.9999 17.241V15.662C11.5559 15.662 12.1109 15.618 12.6599 15.528C13.1995 15.4396 13.73 15.3023 14.2449 15.118L15.5489 16.528C16.9649 16.056 18.1859 15.368 19.0589 14.515L16.6189 13.635C17.1709 13.039 17.4909 12.349 17.4909 11.611H20.4379C20.4379 10.579 19.9559 9.581 19.0599 8.707L16.6199 9.587C16.0499 8.971 15.2279 8.461 14.2439 8.105L15.5539 6.688C14.5058 6.34399 13.4205 6.12579 12.3209 6.038L12.9439 10.753C13.4979 10.961 13.8019 11.261 13.8019 11.624C13.8019 12.427 12.3499 12.793 10.9999 12.793C9.64988 12.793 8.19788 12.427 8.19788 11.624C8.19788 11.27 8.48788 10.974 9.01888 10.768L9.42688 7.681C8.85688 7.769 8.29788 7.911 7.75588 8.104L6.44988 6.694C5.03388 7.166 3.81288 7.855 2.93988 8.708L5.37988 9.587C4.82788 10.183 4.50788 10.873 4.50788 11.611H1.56188L1.56088 11.612Z" />
</svg>
