<svg width="22" height="20" viewBox="0 0 22 20" fill="none" xmlns="http://www.w3.org/2000/svg">
<path d="M4.20577 9.119L4.88077 4.135H6.30377L5.05377 15.48C7.10777 15.909 8.71576 17.101 9.27777 18.612H12.7078C13.2708 17.102 14.8788 15.909 16.9328 15.48L15.7398 4.135H17.1188L17.4438 6.535L19.1318 18.995C19.1486 19.1229 19.1328 19.2529 19.0858 19.373C19.0302 19.5136 18.9337 19.6343 18.8087 19.7194C18.6837 19.8044 18.536 19.8499 18.3848 19.85H3.61477C3.50718 19.8501 3.40082 19.8272 3.30285 19.7828C3.20487 19.7384 3.11755 19.6735 3.04677 19.5924C2.97598 19.5114 2.92338 19.4162 2.89251 19.3131C2.86163 19.2101 2.85319 19.1016 2.86777 18.995L4.20577 9.119ZM21.7398 1.107V5.782C21.7392 5.98181 21.6596 6.17329 21.5183 6.31458C21.3771 6.45587 21.1856 6.53548 20.9858 6.536H18.6958L18.3698 4.136H19.4458C19.4667 4.13601 19.4874 4.13185 19.5067 4.12379C19.526 4.11572 19.5435 4.10391 19.5582 4.08902C19.5729 4.07414 19.5845 4.05648 19.5923 4.03708C19.6001 4.01768 19.604 3.99692 19.6038 3.976V2.913C19.6038 2.89226 19.5997 2.87171 19.5917 2.85254C19.5838 2.83337 19.5722 2.81595 19.5575 2.80128C19.5428 2.78661 19.5254 2.77497 19.5062 2.76703C19.4871 2.75909 19.4665 2.755 19.4458 2.755H2.55377C2.53302 2.755 2.51247 2.75909 2.4933 2.76703C2.47413 2.77497 2.45671 2.78661 2.44204 2.80128C2.42737 2.81595 2.41573 2.83337 2.40779 2.85254C2.39985 2.87171 2.39577 2.89226 2.39577 2.913V3.978C2.39603 4.01983 2.41276 4.05986 2.44233 4.08944C2.47191 4.11901 2.51194 4.13574 2.55377 4.136H3.62977L3.30477 6.536H1.01377C0.814127 6.53548 0.622801 6.45601 0.481542 6.31493C0.340282 6.17386 0.260557 5.98264 0.259766 5.783V1.107C0.260557 0.907367 0.340282 0.716146 0.481542 0.575074C0.622801 0.434002 0.814127 0.35453 1.01377 0.354004H20.9858C21.1854 0.35453 21.3767 0.434002 21.518 0.575074C21.6593 0.716146 21.739 0.907367 21.7398 1.107ZM7.44977 9.763C7.56177 8.183 9.15176 6.903 11.0038 6.899C12.8548 6.903 14.4448 8.184 14.5578 9.763C14.6698 11.345 13.0778 12.628 11.0038 12.627C8.92776 12.628 7.33677 11.345 7.44877 9.763H7.44977Z" fill="#6F7174"/>
</svg>
