<svg width="24" height="24" viewBox="0 0 24 24" fill="none" xmlns="http://www.w3.org/2000/svg">
<path d="M13.5596 4.08403V3.13003H14.6356C14.7799 3.13003 14.9183 3.07271 15.0203 2.97069C15.1223 2.86867 15.1796 2.73031 15.1796 2.58603V1.27203C15.1796 1.12775 15.1223 0.989381 15.0203 0.887361C14.9183 0.785342 14.7799 0.728027 14.6356 0.728027H9.36364C9.21937 0.728027 9.081 0.785342 8.97898 0.887361C8.87696 0.989381 8.81964 1.12775 8.81964 1.27203V2.58503C8.81964 2.72931 8.87696 2.86767 8.97898 2.96969C9.081 3.07171 9.21937 3.12903 9.36364 3.12903H10.4396V4.08403C8.04578 4.47588 5.88706 5.75429 4.3927 7.66507C2.89835 9.57584 2.17783 11.979 2.37441 14.3968C2.57098 16.8145 3.67025 19.0697 5.45364 20.714C7.23703 22.3583 9.57392 23.2712 11.9996 23.2712C14.4254 23.2712 16.7623 22.3583 18.5456 20.714C20.329 19.0697 21.4283 16.8145 21.6249 14.3968C21.8215 11.979 21.1009 9.57584 19.6066 7.66507C18.1122 5.75429 15.9535 4.47588 13.5596 4.08403ZM11.9996 20.871C10.5643 20.871 9.16128 20.4454 7.96787 19.648C6.77446 18.8506 5.84432 17.7172 5.29505 16.3912C4.74579 15.0651 4.60207 13.606 4.88209 12.1983C5.1621 10.7905 5.85326 9.49746 6.86817 8.48255C7.88308 7.46764 9.17615 6.77648 10.5839 6.49647C11.9916 6.21646 13.4507 6.36017 14.7768 6.90943C16.1028 7.4587 17.2362 8.38885 18.0336 9.58225C18.831 10.7757 19.2566 12.1787 19.2566 13.614C19.2545 15.5381 18.4893 17.3827 17.1288 18.7432C15.7683 20.1037 13.9237 20.8689 11.9996 20.871ZM2.34664 7.50603L1.23664 6.80403C1.17469 6.76512 1.12124 6.7141 1.07949 6.65402C1.03775 6.59394 1.00858 6.52604 0.993726 6.4544C0.978876 6.38277 0.978655 6.30887 0.993076 6.23715C1.0075 6.16543 1.03626 6.09736 1.07764 6.03703C1.68349 5.16686 2.39043 4.37163 3.18364 3.66803C3.23857 3.61972 3.30271 3.58304 3.37219 3.56018C3.44168 3.53733 3.51507 3.52877 3.58795 3.53503C3.66082 3.54129 3.73168 3.56224 3.79625 3.59661C3.86082 3.63098 3.91776 3.67806 3.96364 3.73503L4.79264 4.75303C4.88072 4.86203 4.92342 5.00078 4.91187 5.14045C4.90033 5.28011 4.83543 5.40996 4.73064 5.50303C4.11349 6.05657 3.56097 6.6782 3.08364 7.35603C3.00359 7.47093 2.88239 7.5506 2.74517 7.57853C2.60794 7.60646 2.46524 7.5805 2.34664 7.50603ZM22.7626 6.80403L21.6526 7.50603C21.5341 7.5805 21.3913 7.60646 21.2541 7.57853C21.1169 7.5506 20.9957 7.47093 20.9156 7.35603C20.4386 6.67803 19.8856 6.05703 19.2686 5.50303C19.1636 5.4101 19.0986 5.28022 19.087 5.14048C19.0755 5.00074 19.1183 4.86194 19.2066 4.75303L20.0366 3.73503C20.0824 3.67794 20.1394 3.63075 20.2039 3.59629C20.2685 3.56184 20.3394 3.54085 20.4123 3.53458C20.4852 3.52832 20.5587 3.53692 20.6282 3.55985C20.6977 3.58279 20.7618 3.61959 20.8166 3.66803C21.6086 4.37203 22.3156 5.16803 22.9216 6.03803C22.963 6.09828 22.9918 6.16627 23.0062 6.23791C23.0206 6.30956 23.0203 6.38338 23.0055 6.45493C22.9906 6.52649 22.9615 6.5943 22.9197 6.65429C22.878 6.71428 22.8246 6.76522 22.7626 6.80403ZM11.9996 7.59803C10.8096 7.59803 9.64619 7.95094 8.65667 8.61214C7.66716 9.27334 6.89595 10.2131 6.44057 11.3127C5.98518 12.4122 5.86608 13.622 6.09833 14.7893C6.33058 15.9565 6.90374 17.0286 7.74534 17.87C8.58693 18.7115 9.65915 19.2845 10.8264 19.5165C11.9936 19.7486 13.2035 19.6293 14.3029 19.1737C15.4024 18.7182 16.342 17.9468 17.0031 16.9572C17.6641 15.9675 18.0168 14.8041 18.0166 13.614C18.0148 12.0189 17.3802 10.4896 16.2522 9.36177C15.1242 8.23392 13.5948 7.59962 11.9996 7.59803ZM15.0736 10.753L13.5966 14.259C13.49 14.521 13.3205 14.7526 13.103 14.9334C12.8855 15.1142 12.6268 15.2385 12.3497 15.2954C12.0727 15.3524 11.7859 15.3401 11.5148 15.2597C11.2436 15.1794 10.9965 15.0334 10.7952 14.8347C10.5939 14.636 10.4448 14.3907 10.3609 14.1206C10.277 13.8506 10.2611 13.5639 10.3144 13.2862C10.3678 13.0085 10.4888 12.7482 10.6667 12.5284C10.8447 12.3085 11.0741 12.136 11.3346 12.026L14.8666 10.546C14.8956 10.5338 14.9275 10.5305 14.9584 10.5365C14.9892 10.5426 15.0176 10.5576 15.0398 10.5799C15.062 10.6021 15.0771 10.6304 15.0831 10.6613C15.0892 10.6921 15.0859 10.7241 15.0736 10.753Z" fill="#6F7174"/>
</svg>
