<svg width="20" height="22" viewBox="0 0 20 22" fill="none" xmlns="http://www.w3.org/2000/svg">
<path d="M7.75444 14.464V20.293C7.75444 20.3349 7.73779 20.3751 7.70816 20.4047C7.67853 20.4344 7.63834 20.451 7.59644 20.451H1.76844C1.73711 20.4511 1.70646 20.4419 1.68037 20.4245C1.65428 20.4072 1.63395 20.3825 1.62194 20.3535C1.60994 20.3246 1.60681 20.2927 1.61295 20.262C1.61909 20.2313 1.63423 20.2031 1.65644 20.181L3.60844 18.228C2.32603 17.0922 1.36928 15.6352 0.836569 14.0071C0.303861 12.3789 0.21442 10.6382 0.577441 8.964C1.16851 9.68741 1.91683 10.2664 2.76544 10.657C2.71111 11.765 2.91249 12.8707 3.35398 13.8884C3.79547 14.9061 4.46524 15.8086 5.31144 16.526L7.48444 14.352C7.50654 14.3298 7.53474 14.3147 7.56546 14.3085C7.59619 14.3024 7.62804 14.3055 7.65698 14.3175C7.68592 14.3295 7.71064 14.3498 7.72799 14.3759C7.74534 14.402 7.75455 14.4327 7.75444 14.464ZM19.4244 13.037C19.7974 11.3105 19.6892 9.51465 19.1115 7.84542C18.5338 6.1762 17.5089 4.69764 16.1484 3.571L18.1034 1.616C18.1252 1.59372 18.1399 1.56555 18.1458 1.53499C18.1516 1.50443 18.1484 1.47281 18.1365 1.44407C18.1245 1.41532 18.1045 1.3907 18.0787 1.37327C18.0529 1.35584 18.0226 1.34636 17.9914 1.346H12.1634C12.1215 1.346 12.0813 1.36264 12.0517 1.39228C12.0221 1.42191 12.0054 1.46209 12.0054 1.504V7.333C12.0053 7.36433 12.0145 7.39498 12.0319 7.42107C12.0492 7.44715 12.074 7.46749 12.1029 7.4795C12.1318 7.4915 12.1637 7.49463 12.1944 7.48849C12.2251 7.48234 12.2533 7.46721 12.2754 7.445L14.4424 5.278C14.6824 5.464 14.9104 5.665 15.1244 5.88C15.8404 6.59155 16.3987 7.44573 16.763 8.38706C17.1274 9.3284 17.2897 10.3359 17.2394 11.344C18.0874 11.735 18.8344 12.314 19.4254 13.038L19.4244 13.037ZM19.4774 16.893C19.4774 17.5212 19.3537 18.1433 19.1133 18.7238C18.8729 19.3042 18.5205 19.8316 18.0762 20.2758C17.632 20.72 17.1046 21.0724 16.5242 21.3128C15.9438 21.5533 15.3217 21.677 14.6934 21.677C14.0652 21.677 13.4431 21.5533 12.8627 21.3128C12.2823 21.0724 11.7549 20.72 11.3106 20.2758C10.8664 19.8316 10.514 19.3042 10.2736 18.7238C10.0332 18.1433 9.90944 17.5212 9.90944 16.893C9.90944 15.6242 10.4135 14.4074 11.3106 13.5102C12.2078 12.613 13.4246 12.109 14.6934 12.109C15.9622 12.109 17.1791 12.613 18.0762 13.5102C18.9734 14.4074 19.4774 15.6242 19.4774 16.893ZM17.0874 17.49C16.9791 17.1618 16.77 16.8761 16.49 16.6736C16.2099 16.4711 15.8731 16.362 15.5274 16.362L13.8564 16.367H13.8544C13.708 16.3586 13.5704 16.2946 13.4696 16.1881C13.3688 16.0816 13.3126 15.9406 13.3123 15.7939C13.3121 15.6473 13.3678 15.5061 13.4682 15.3992C13.5686 15.2924 13.7061 15.2279 13.8524 15.219L16.5694 15.21C16.586 15.2101 16.6024 15.2069 16.6177 15.2005C16.633 15.1941 16.6468 15.1848 16.6584 15.173C16.67 15.1613 16.6791 15.1474 16.6853 15.1321C16.6915 15.1168 16.6946 15.1005 16.6944 15.084L16.6924 14.278C16.6924 14.2446 16.6792 14.2125 16.6555 14.1889C16.6319 14.1653 16.5999 14.152 16.5664 14.152L15.2144 14.156L15.2114 13.418C15.2114 13.4014 15.2081 13.385 15.2017 13.3697C15.1953 13.3544 15.1859 13.3405 15.1741 13.3289C15.1623 13.3173 15.1483 13.3081 15.1329 13.3019C15.1175 13.2958 15.101 13.2927 15.0844 13.293L14.2784 13.296C14.2619 13.2961 14.2455 13.2995 14.2303 13.306C14.2151 13.3124 14.2012 13.3218 14.1896 13.3336C14.178 13.3454 14.1689 13.3594 14.1626 13.3747C14.1564 13.39 14.1533 13.4065 14.1534 13.423L14.1564 14.159L13.8994 14.16C12.9844 14.163 12.2034 14.914 12.2234 15.83C12.2334 16.2569 12.4103 16.6629 12.7161 16.9609C13.022 17.2589 13.4324 17.4252 13.8594 17.424L15.5304 17.419C15.6059 17.4188 15.6806 17.4335 15.7504 17.4622C15.8202 17.4908 15.8836 17.533 15.9371 17.5862C15.9906 17.6394 16.0331 17.7026 16.0621 17.7723C16.0912 17.8419 16.1062 17.9166 16.1064 17.992C16.1066 18.0674 16.092 18.1422 16.0633 18.212C16.0346 18.2817 15.9924 18.3452 15.9392 18.3987C15.886 18.4522 15.8228 18.4946 15.7532 18.5237C15.6836 18.5527 15.6089 18.5678 15.5334 18.568L12.8634 18.576C12.83 18.576 12.798 18.5893 12.7743 18.6129C12.7507 18.6365 12.7374 18.6686 12.7374 18.702L12.7394 19.508C12.7394 19.5414 12.7527 19.5735 12.7763 19.5971C12.8 19.6207 12.832 19.634 12.8654 19.634L14.1724 19.63L14.1754 20.368C14.1756 20.3845 14.179 20.4009 14.1854 20.4161C14.1919 20.4314 14.2013 20.4452 14.2131 20.4568C14.2248 20.4684 14.2388 20.4776 14.2541 20.4838C14.2695 20.49 14.2859 20.4931 14.3024 20.493L15.1084 20.49C15.1417 20.4897 15.1735 20.4763 15.1969 20.4527C15.2203 20.4291 15.2334 20.3972 15.2334 20.364L15.2304 19.627L15.5364 19.626C15.7936 19.6249 16.0468 19.5632 16.2757 19.446C16.5045 19.3288 16.7025 19.1593 16.8537 18.9513C17.0048 18.7432 17.1048 18.5025 17.1456 18.2487C17.1864 17.9948 17.1668 17.7349 17.0884 17.49H17.0874ZM10.0924 5.107C10.0924 6.37579 9.58841 7.59262 8.69124 8.4898C7.79407 9.38697 6.57724 9.891 5.30844 9.891C4.03965 9.891 2.82282 9.38697 1.92564 8.4898C1.02847 7.59262 0.524441 6.37579 0.524441 5.107C0.524441 3.8382 1.02847 2.62137 1.92564 1.7242C2.82282 0.827025 4.03965 0.322998 5.30844 0.322998C6.57724 0.322998 7.79407 0.827025 8.69124 1.7242C9.58841 2.62137 10.0924 3.8382 10.0924 5.107ZM7.84344 3.896C7.58962 3.92183 7.34844 4.01958 7.14827 4.17778C6.94809 4.33597 6.79724 4.54802 6.71344 4.789C6.69536 4.84147 6.66137 4.887 6.6162 4.91927C6.57104 4.95153 6.51694 4.96891 6.46144 4.969H6.44544C6.37812 4.96891 6.3128 4.94604 6.26014 4.90409C6.20748 4.86214 6.17058 4.8036 6.15544 4.738C6.0433 4.27102 5.87332 3.81987 5.64944 3.395L5.43944 3C5.42824 2.97834 5.41134 2.96015 5.39057 2.94738C5.36979 2.93461 5.34593 2.92776 5.32154 2.92755C5.29716 2.92735 5.27318 2.9338 5.2522 2.94621C5.23121 2.95863 5.21401 2.97653 5.20244 2.998L4.98744 3.392C4.75626 3.8175 4.58049 4.27086 4.46444 4.741C4.44876 4.80588 4.41176 4.86361 4.35935 4.90496C4.30695 4.9463 4.24219 4.96885 4.17544 4.969H4.15044C4.09622 4.96897 4.04335 4.95212 3.99911 4.92078C3.95487 4.88944 3.92144 4.84514 3.90344 4.794L3.90044 4.788C3.81649 4.5472 3.66557 4.33536 3.4654 4.17736C3.26524 4.01936 3.02415 3.92175 2.77044 3.896C2.75409 3.89435 2.73758 3.89667 2.72232 3.90278C2.70706 3.90888 2.6935 3.91858 2.6828 3.93105C2.67209 3.94352 2.66456 3.9584 2.66084 3.97441C2.65712 3.99041 2.65733 4.00709 2.66144 4.023L3.40344 6.906C3.41078 6.9349 3.42756 6.96052 3.4511 6.97882C3.47465 6.99711 3.50362 7.00703 3.53344 7.007H7.08044C7.11013 7.00708 7.139 6.99731 7.16253 6.97921C7.18606 6.96111 7.20291 6.93571 7.21044 6.907L7.95144 4.023C7.95559 4.007 7.9558 3.99022 7.95203 3.97413C7.94826 3.95803 7.94064 3.94309 7.92981 3.93059C7.91899 3.9181 7.90529 3.90842 7.88989 3.90239C7.8745 3.89637 7.85787 3.89417 7.84144 3.896H7.84344Z" fill="#6F7174"/>
</svg>
