<svg width="20" height="22" viewBox="0 0 20 22" fill="none" xmlns="http://www.w3.org/2000/svg">
<path d="M15.133 10.9141C13.8971 10.913 12.6904 11.289 11.674 11.9921V9.99707C11.99 10.0181 12.311 10.0301 12.636 10.0301C14.169 10.0301 15.629 9.78807 16.746 9.35007C17.12 9.20707 17.476 9.02407 17.809 8.80307V10.0001C17.809 10.4351 17.459 10.8371 16.868 11.1671C16.3049 10.9994 15.7205 10.9142 15.133 10.9141ZM12.636 8.79007C15.493 8.79007 17.809 7.88107 17.809 6.76007V5.56307C17.476 5.78389 17.1195 5.96702 16.746 6.10907C15.629 6.54807 14.169 6.78907 12.636 6.78907C12.181 6.78907 11.732 6.76807 11.297 6.72607C11.537 7.07807 11.665 7.49407 11.669 7.91907V7.98807H11.674V8.75407C11.986 8.77707 12.307 8.79007 12.636 8.79007ZM12.636 5.55007C15.493 5.55007 17.809 4.64007 17.809 3.52007V2.22507C17.809 1.10407 15.493 0.195068 12.636 0.195068C9.77898 0.195068 7.46398 1.10407 7.46398 2.22507V3.52007C7.46398 4.64007 9.77898 5.55007 12.636 5.55007ZM5.25598 18.9641C3.72298 18.9641 2.26298 18.7231 1.14598 18.2841C0.772871 18.1419 0.41669 17.9588 0.0839844 17.7381V18.9351C0.0839844 20.0561 2.39898 20.9651 5.25598 20.9651C7.19098 20.9651 8.87698 20.5471 9.76398 19.9301C9.49519 19.4353 9.29661 18.9056 9.17398 18.3561C8.08398 18.7491 6.70298 18.9641 5.25598 18.9641ZM9.35498 15.0481C8.23898 15.4841 6.78398 15.7241 5.25598 15.7241C3.72298 15.7241 2.26298 15.4831 1.14598 15.0441C0.772827 14.9016 0.416644 14.7182 0.0839844 14.4971V15.6951C0.0839844 16.8151 2.39898 17.7251 5.25598 17.7251C6.74398 17.7251 8.08398 17.4771 9.02798 17.0831L9.02598 17.0211C9.02598 16.3501 9.13698 15.6831 9.35498 15.0481ZM5.25598 14.4841C8.11298 14.4841 10.429 13.5751 10.429 12.4541V11.2571C10.096 11.4783 9.73952 11.6617 9.36598 11.8041C8.24898 12.2421 6.78898 12.4841 5.25598 12.4841C3.72298 12.4841 2.26298 12.2421 1.14598 11.8041C0.772793 11.6617 0.416602 11.4782 0.0839844 11.2571V12.4541C0.0839844 13.5751 2.39898 14.4841 5.25598 14.4841ZM5.25598 11.2441C8.11298 11.2441 10.429 10.3351 10.429 9.21407V7.92007C10.429 6.80007 8.11298 5.89007 5.25598 5.89007C2.39898 5.89007 0.0839844 6.80007 0.0839844 7.92007V9.21507C0.0839844 10.3361 2.39898 11.2451 5.25598 11.2451V11.2441ZM15.133 12.2381C13.8642 12.2381 12.6474 12.7421 11.7502 13.6393C10.853 14.5364 10.349 15.7533 10.349 17.0221C10.349 18.2909 10.853 19.5077 11.7502 20.4049C12.6474 21.302 13.8642 21.8061 15.133 21.8061C16.4018 21.8061 17.6186 21.302 18.5158 20.4049C19.413 19.5077 19.917 18.2909 19.917 17.0221C19.917 15.7533 19.413 14.5364 18.5158 13.6393C17.6186 12.7421 16.4018 12.2381 15.133 12.2381ZM15.976 19.7541H15.67L15.673 20.4921C15.673 20.5253 15.6598 20.5572 15.6364 20.5808C15.613 20.6044 15.5812 20.6178 15.548 20.6181L14.742 20.6211C14.7254 20.6212 14.709 20.6181 14.6937 20.6119C14.6784 20.6057 14.6644 20.5965 14.6526 20.5849C14.6408 20.5733 14.6314 20.5594 14.625 20.5442C14.6185 20.529 14.6151 20.5126 14.615 20.4961L14.612 19.7581L13.305 19.7621C13.2884 19.7622 13.272 19.759 13.2566 19.7527C13.2413 19.7465 13.2273 19.7372 13.2156 19.7255C13.2039 19.7137 13.1946 19.6998 13.1883 19.6844C13.182 19.6691 13.1789 19.6527 13.179 19.6361L13.177 18.8301C13.1767 18.7965 13.1896 18.7642 13.213 18.7401C13.2248 18.7283 13.2389 18.7191 13.2543 18.7129C13.2698 18.7067 13.2863 18.7037 13.303 18.7041L15.973 18.6961C16.0484 18.6959 16.123 18.6808 16.1925 18.6518C16.2621 18.6228 16.3253 18.5803 16.3784 18.5269C16.4316 18.4734 16.4737 18.4101 16.5024 18.3403C16.531 18.2706 16.5457 18.1959 16.5455 18.1206C16.5453 18.0452 16.5302 17.9706 16.5012 17.901C16.4722 17.8315 16.4297 17.7683 16.3763 17.7151C16.3229 17.662 16.2595 17.6199 16.1898 17.5912C16.12 17.5625 16.0454 17.5479 15.97 17.5481L14.299 17.5521C13.8718 17.5532 13.4612 17.3868 13.1553 17.0886C12.8494 16.7904 12.6727 16.3842 12.663 15.9571C12.643 15.0421 13.423 14.2911 14.339 14.2881H14.596L14.593 13.5501C14.593 13.5168 14.6061 13.4849 14.6295 13.4613C14.6529 13.4377 14.6847 13.4243 14.718 13.4241L15.524 13.4211C15.5572 13.4211 15.5891 13.4342 15.6127 13.4576C15.6363 13.481 15.6497 13.5128 15.65 13.5461L15.654 14.2841L17.006 14.2801C17.039 14.2806 17.0705 14.2938 17.094 14.3171C17.1178 14.3406 17.1315 14.3726 17.132 14.4061L17.134 15.2121C17.134 15.2453 17.1208 15.2772 17.0974 15.3008C17.074 15.3244 17.0422 15.3378 17.009 15.3381L14.293 15.3461C14.1448 15.3524 14.0047 15.4157 13.9021 15.5229C13.7995 15.63 13.7423 15.7727 13.7425 15.921C13.7426 16.0694 13.8 16.212 13.9028 16.3189C14.0056 16.4259 14.1458 16.489 14.294 16.4951H14.296L15.966 16.4901C16.3119 16.4898 16.6491 16.5987 16.9295 16.8013C17.21 17.0038 17.4194 17.2896 17.528 17.6181C17.6064 17.863 17.626 18.1229 17.5852 18.3767C17.5444 18.6306 17.4444 18.8713 17.2932 19.0793C17.1421 19.2873 16.9441 19.4568 16.7152 19.5741C16.4864 19.6913 16.2331 19.753 15.976 19.7541Z" fill="#6F7174"/>
</svg>
