<svg width="33" height="36" viewBox="0 0 33 36" fill="none" xmlns="http://www.w3.org/2000/svg">
<g filter="url(#filter0_d)">
<path fill-rule="evenodd" clip-rule="evenodd" d="M17.5263 13.1052H12.0526C11.6748 13.1052 11.3684 13.4116 11.3684 13.7894V22C11.3684 22.3779 11.6748 22.6842 12.0526 22.6842H17.5263C17.9042 22.6842 18.2105 22.3779 18.2105 22V13.7894C18.2105 13.4116 17.9042 13.1052 17.5263 13.1052ZM12.0526 11.7368C10.919 11.7368 10 12.6558 10 13.7894V22C10 23.1336 10.919 24.0526 12.0526 24.0526H17.5263C18.66 24.0526 19.5789 23.1336 19.5789 22V13.7894C19.5789 12.6558 18.66 11.7368 17.5263 11.7368H12.0526Z" fill="white"/>
<path fill-rule="evenodd" clip-rule="evenodd" d="M15.4737 10.3684H20.9473C21.3252 10.3684 21.6315 10.6748 21.6315 11.0526V19.2632C21.6315 19.641 21.3252 19.9474 20.9473 19.9474V21.3158C22.081 21.3158 23 20.3968 23 19.2632V11.0526C23 9.91899 22.081 9 20.9473 9H15.4737C14.34 9 13.421 9.91899 13.421 11.0526H14.7894C14.7894 10.6748 15.0958 10.3684 15.4737 10.3684Z" fill="white"/>
</g>
<defs>
<filter id="filter0_d" x="0" y="0" width="33" height="35.0526" filterUnits="userSpaceOnUse" color-interpolation-filters="sRGB">
<feFlood flood-opacity="0" result="BackgroundImageFix"/>
<feColorMatrix in="SourceAlpha" type="matrix" values="0 0 0 0 0 0 0 0 0 0 0 0 0 0 0 0 0 0 127 0"/>
<feOffset dy="1"/>
<feGaussianBlur stdDeviation="5"/>
<feColorMatrix type="matrix" values="0 0 0 0 0.254167 0 0 0 0 1 0 0 0 0 0.687517 0 0 0 1 0"/>
<feBlend mode="normal" in2="BackgroundImageFix" result="effect1_dropShadow"/>
<feBlend mode="normal" in="SourceGraphic" in2="effect1_dropShadow" result="shape"/>
</filter>
</defs>
</svg>
