<svg width="146" height="146" viewBox="0 0 146 146" fill="none" xmlns="http://www.w3.org/2000/svg">
<g filter="url(#filter0_d)">
<path d="M116 73C116 96.7482 96.7482 116 73 116C49.2518 116 30 96.7482 30 73C30 49.2518 49.2518 30 73 30C96.7482 30 116 49.2518 116 73ZM47.2 73C47.2 87.2489 58.7511 98.8 73 98.8C87.2489 98.8 98.8 87.2489 98.8 73C98.8 58.7511 87.2489 47.2 73 47.2C58.7511 47.2 47.2 58.7511 47.2 73Z" fill="url(#paint0_angular)"/>
</g>
<defs>
<filter id="filter0_d" x="0" y="0" width="146" height="146" filterUnits="userSpaceOnUse" color-interpolation-filters="sRGB">
<feFlood flood-opacity="0" result="BackgroundImageFix"/>
<feColorMatrix in="SourceAlpha" type="matrix" values="0 0 0 0 0 0 0 0 0 0 0 0 0 0 0 0 0 0 127 0"/>
<feOffset/>
<feGaussianBlur stdDeviation="15"/>
<feColorMatrix type="matrix" values="0 0 0 0 0.00392157 0 0 0 0 0.690196 0 0 0 0 0.458824 0 0 0 0.3 0"/>
<feBlend mode="normal" in2="BackgroundImageFix" result="effect1_dropShadow"/>
<feBlend mode="normal" in="SourceGraphic" in2="effect1_dropShadow" result="shape"/>
</filter>
<radialGradient id="paint0_angular" cx="0" cy="0" r="1" gradientUnits="userSpaceOnUse" gradientTransform="translate(73 73) rotate(90) scale(43)">
<stop stop-color="#008143"/>
<stop offset="0.244792" stop-color="#00A053"/>
<stop offset="1" stop-color="#00FF85"/>
</radialGradient>
</defs>
</svg>
