<svg width="21" height="21" viewBox="0 0 21 21" fill="none" xmlns="http://www.w3.org/2000/svg">
<path d="M19.2482 10.8256V19.9705C19.2482 20.1887 19.1542 20.3981 18.9869 20.5524C18.8196 20.7067 18.5928 20.7935 18.3562 20.7935H11.286V10.8256H19.2482ZM1.91783 10.8256V19.9705C1.91783 20.1887 2.01181 20.3981 2.17909 20.5524C2.34637 20.7067 2.57326 20.7935 2.80983 20.7935H9.88002V10.8256H1.91783ZM20.583 5.07156C20.583 4.8533 20.489 4.64397 20.3217 4.48963C20.1545 4.33529 19.9276 4.24858 19.691 4.24858H16.1474V2.04808C16.1473 1.84628 16.0945 1.64747 15.9934 1.46851C15.8924 1.28955 15.746 1.13571 15.5668 1.02005C15.3875 0.904387 15.1807 0.830307 14.9638 0.804092C14.7469 0.777877 14.5264 0.800299 14.3209 0.869457L13.6572 1.09284C12.764 1.39471 11.9931 1.94307 11.4495 2.66336C11.1874 2.52036 10.8886 2.44491 10.5841 2.44491C10.2796 2.44491 9.98069 2.52036 9.71861 2.66336C9.17502 1.94307 8.40418 1.39471 7.5109 1.09284L6.84721 0.869457C6.64173 0.800299 6.4212 0.777877 6.20432 0.804092C5.98745 0.830307 5.78062 0.904387 5.60138 1.02005C5.42214 1.13571 5.27578 1.28955 5.1747 1.46851C5.07362 1.64747 5.0208 1.84628 5.02073 2.04808V4.24956H1.47501C1.23844 4.24956 1.01155 4.33627 0.84427 4.49061C0.676987 4.64495 0.583008 4.85427 0.583008 5.07254V9.5284H9.691V5.71231H11.475V9.5284H20.583V5.07254V5.07156Z" fill="#00FFA9"/>
</svg>
