<?xml version="1.0" encoding="UTF-8"?>
<!DOCTYPE svg PUBLIC "-//W3C//DTD SVG 1.1//EN" "http://www.w3.org/Graphics/SVG/1.1/DTD/svg11.dtd">
<svg xmlns="http://www.w3.org/2000/svg" xmlns:xlink="http://www.w3.org/1999/xlink">
	<defs>
		<filter id="filter0_d" width="74" height="86" x="0" y="0" color-interpolation-filters="sRGB" filterUnits="userSpaceOnUse">
			<feFlood flood-opacity="0" result="BackgroundImageFix"/>
			<feColorMatrix in="SourceAlpha" values="0 0 0 0 0 0 0 0 0 0 0 0 0 0 0 0 0 0 127 0"/>
			<feOffset/>
			<feGaussianBlur stdDeviation="15"/>
			<feColorMatrix values="0 0 0 0 0.00392157 0 0 0 0 0.690196 0 0 0 0 0.458824 0 0 0 0.3 0"/>
			<feBlend in2="BackgroundImageFix" result="effect1_dropShadow"/>
			<feBlend in="SourceGraphic" in2="effect1_dropShadow" result="shape"/>
		</filter>
	</defs>
<symbol id="arrow-right" viewBox="0 0 14 26">
	<path fill="#00FFA9" d="M1.692.278A1 1 0 00.308 1.722L1.692.278zM13 12.5l.721.693a1 1 0 00-.03-1.415L13 12.5zM.279 24.308a1 1 0 101.442 1.384L.28 24.308zm.03-22.586l12 11.5 1.383-1.444-12-11.5L.308 1.722zm11.97 10.085l-12 12.5 1.442 1.386 12-12.5-1.442-1.386z"/>

</symbol>
<symbol id="bonuses" viewBox="0 0 19 19">
	<path d="M17.732 9.53v8.688c0 .207-.09.406-.248.553a.885.885 0 01-.6.229h-6.716V9.53h7.564zm-16.464 0v8.688c0 .207.09.406.248.553a.885.885 0 00.6.229h6.716V9.53H1.268zM19 4.065a.753.753 0 00-.248-.553.885.885 0 00-.6-.229h-3.366v-2.09c0-.192-.05-.38-.146-.55a1.228 1.228 0 00-.405-.427A1.394 1.394 0 0013.05.072l-.63.212a4.372 4.372 0 00-2.098 1.492 1.72 1.72 0 00-.822-.207c-.29 0-.573.072-.822.207A4.372 4.372 0 006.58.284l-.63-.212a1.394 1.394 0 00-1.184.143c-.17.11-.309.256-.405.426-.096.17-.146.36-.146.55v2.092H.847a.885.885 0 00-.599.23.752.752 0 00-.248.552v4.233h8.653V4.673h1.694v3.625H19V4.065z"/>
</symbol>
<symbol id="deposit" viewBox="0 0 22 22">
	<path fill="#6F7174" d="M20.44 7.122h-3.372a6.13 6.13 0 01-3.442 4.186h2.915a.16.16 0 01.159.159v.923a.158.158 0 01-.16.158H5.459a.158.158 0 01-.158-.158v-.923a.158.158 0 01.158-.159h3.156a6.13 6.13 0 01-3.442-4.186H1.56a.84.84 0 00-.84.84v12.24a.84.84 0 00.84.84h18.88a.84.84 0 00.84-.84V7.962a.84.84 0 00-.84-.84zm-5.087 7.393l-4.121 4.121a.16.16 0 01-.224 0l-4.121-4.121a.158.158 0 01.112-.27h8.242a.158.158 0 01.112.27zM11.12.958a4.784 4.784 0 10-.139 9.567A4.784 4.784 0 0011.12.958zm.843 7.516l-.306.001.003.737a.126.126 0 01-.125.127l-.806.002a.125.125 0 01-.127-.124l-.003-.739-1.307.004a.126.126 0 01-.126-.125l-.002-.807a.126.126 0 01.125-.126l2.67-.008a.574.574 0 00-.002-1.148l-1.671.005A1.632 1.632 0 018.65 4.678c-.02-.915.76-1.667 1.676-1.67h.257l-.003-.737a.125.125 0 01.036-.09.127.127 0 01.089-.036l.806-.003a.126.126 0 01.127.125l.003.738L12.993 3a.126.126 0 01.126.125l.002.807a.128.128 0 01-.037.089.125.125 0 01-.088.037l-2.716.008a.576.576 0 00-.264 1.085.553.553 0 00.265.063h.002l1.67-.005a1.644 1.644 0 011.562 1.129 1.637 1.637 0 01-1.552 2.135v.001z"/>
</symbol>
<symbol id="details-games-header" viewBox="0 0 23 22">
	<path fill="#6F7174" d="M22.294 15.102l-4.69 1.882V6.424a2.166 2.166 0 00-2.162-2.163H6.898L16.41.443a.84.84 0 011.093.467l5.258 13.1a.84.84 0 01-.467 1.092zm-6.012-8.678V20.54a.84.84 0 01-.84.84H1.325a.84.84 0 01-.84-.84V6.424a.84.84 0 01.84-.84H15.44a.84.84 0 01.84.84zM5.514 17.407a1.054 1.054 0 10-2.108 0 1.054 1.054 0 002.108 0zm0-7.849a1.054 1.054 0 10-2.108 0 1.054 1.054 0 002.108 0zm3.924 4.13a1.054 1.054 0 10-2.107-.065 1.054 1.054 0 002.107.065zm3.925 3.719a1.055 1.055 0 10-2.11 0 1.055 1.055 0 002.11 0zm0-7.849a1.054 1.054 0 00-2.108 0 1.054 1.054 0 002.107 0z"/>
</symbol>
<symbol id="esport" viewBox="0 0 24 18">
	<path d="M23.482 12.212a27.959 27.959 0 00-.448-3.717 38.047 38.047 0 00-.795-3.615 12.42 12.42 0 00-.587-1.752c-.234-.573-.493-1.139-.951-1.646a4.246 4.246 0 00-5.452-.714H8.752a4.246 4.246 0 00-5.453.714c-.458.507-.717 1.073-.95 1.646-.24.569-.436 1.154-.589 1.752a39.517 39.517 0 00-.795 3.615 27.98 27.98 0 00-.448 3.717c-.055.635-.07 1.273-.046 1.91.008.683.114 1.362.313 2.015a2.583 2.583 0 004.092 1.196c.52-.443.975-.958 1.35-1.529a11.83 11.83 0 00.99-1.634c.273-.54.549-1.086.792-1.57h7.982c.244.484.519 1.03.793 1.57.285.57.616 1.117.99 1.634a7.191 7.191 0 001.349 1.53 2.583 2.583 0 004.092-1.197c.2-.653.305-1.332.313-2.015a15.22 15.22 0 00-.046-1.91h.001zM16.277 4.32a.84.84 0 110 1.681.84.84 0 010-1.681zm-6.19 3.054H8.413v1.672h-1.38V7.374H5.36V5.993h1.673V4.32h1.381v1.673h1.672v1.38l.001.001zm4.667.15a.84.84 0 110-1.68.84.84 0 010 1.68zm1.523 1.525a.84.84 0 110-1.679.84.84 0 010 1.678v.001zM17.8 7.523a.84.84 0 110-1.68.84.84 0 010 1.68z"/>
</symbol>
<symbol id="language" viewBox="0 0 19 21">
	<path fill="#6F7174" d="M12.783 10.236l1.01 2.717h-2.026l1.016-2.717zm5.886-8.807v19.352a.16.16 0 01-.21.15l-5.815-2.004H1.171a.843.843 0 01-.84-.84V1.43a.842.842 0 01.84-.84H17.83a.843.843 0 01.84.84v-.001zM7.493 8.791a9.49 9.49 0 001.894-1.859c.66-.85 1.093-1.95 1.31-2.59a.158.158 0 00-.15-.208H3.18a.158.158 0 00-.159.158V5.3a.158.158 0 00.16.158h5.583a7.451 7.451 0 01-2.298 2.435c-.628-.5-1.294-.95-1.993-1.343a.158.158 0 00-.216.066l-.464.895a.157.157 0 00.062.21c.528.297 2.503 1.482 3.806 3.25a.159.159 0 00.218.037l.822-.58a.158.158 0 00.063-.167.159.159 0 00-.025-.057 11.147 11.147 0 00-1.246-1.413zm8.527 6.351l-2.31-6.21a.159.159 0 00-.149-.103h-1.555a.158.158 0 00-.149.103l-2.322 6.21a.159.159 0 00.149.214h1.074a.158.158 0 00.15-.103l.364-.977h3.013l.364.977a.159.159 0 00.148.103h1.074a.16.16 0 00.13-.068.157.157 0 00.018-.146h.001z"/>
</symbol>
<symbol id="no-deposit" viewBox="0 0 22 22">
	<path fill="#6F7174" d="M20.44 7.122h-3.372a6.13 6.13 0 01-3.442 4.186h2.915a.16.16 0 01.159.159v.923a.158.158 0 01-.16.158H5.459a.158.158 0 01-.158-.158v-.923a.158.158 0 01.158-.159h3.156a6.13 6.13 0 01-3.442-4.186H1.56a.84.84 0 00-.84.84v12.24a.84.84 0 00.84.84h18.88a.84.84 0 00.84-.84V7.962a.84.84 0 00-.84-.84zm-5.087 7.393l-4.121 4.121a.16.16 0 01-.224 0l-4.121-4.121a.158.158 0 01.112-.27h8.242a.158.158 0 01.112.27zM11.12.958a4.784 4.784 0 10-.139 9.567A4.784 4.784 0 0011.12.958zm.843 7.516l-.306.001.003.737a.126.126 0 01-.125.127l-.806.002a.125.125 0 01-.127-.124l-.003-.739-1.307.004a.126.126 0 01-.126-.125l-.002-.807a.126.126 0 01.125-.126l2.67-.008a.574.574 0 00-.002-1.148l-1.671.005A1.632 1.632 0 018.65 4.678c-.02-.915.76-1.667 1.676-1.67h.257l-.003-.737a.125.125 0 01.036-.09.127.127 0 01.089-.036l.806-.003a.126.126 0 01.127.125l.003.738L12.993 3a.126.126 0 01.126.125l.002.807a.128.128 0 01-.037.089.125.125 0 01-.088.037l-2.716.008a.576.576 0 00-.264 1.085.553.553 0 00.265.063h.002l1.67-.005a1.644 1.644 0 011.562 1.129 1.637 1.637 0 01-1.552 2.135v.001z"/>
</symbol>
<symbol id="press-button" viewBox="0 0 40 40">
	<circle cx="16.5" cy="13.5" r="11" fill="none" stroke="#fff" stroke-opacity=".36"/>
	<path d="M15.836 17.623a26.875 26.875 0 01-.49-1.789c-.868-.5-1.458-1.411-1.458-2.464 0-1.584 1.32-2.87 2.944-2.87 1.623 0 2.944 1.287 2.944 2.87 0 .218-.03.428-.077.631.282.605.51 1.286.709 1.978.56-.73.906-1.626.906-2.609 0-2.414-2.006-4.37-4.482-4.37-2.477 0-4.481 1.956-4.481 4.37 0 2.08 1.49 3.811 3.485 4.253z"/>
	<path d="M12.741 27.969c1.105-1.164 2.345-.708 4.005-.462 1.425.214 2.83-.176 2.736-.927-.148-1.215-.356-1.758-.828-3.332-.378-1.251-1.094-3.507-1.745-5.663-.873-2.885-1.126-4.224.036-4.558 1.252-.356 1.97 1.379 2.621 3.784.741 2.738 1.13 3.947 1.349 3.883.384-.107-.141-1.279.865-1.568 1.257-.356 1.5.602 1.852.506.353-.103.233-1.074 1.236-1.36 1.008-.284 1.514.926 1.93.806.412-.119.402-.555 1.024-.729.622-.18 2.965.842 4.305 5.308 1.683 5.614-.213 6.658.362 8.559L24.979 35c-.609-1.426-2.492-1.531-4.158-2.44-1.678-.921-2.818-2.715-7.192-2.628-1.645.032-1.567-1.247-.888-1.963z"/>
</symbol>
<symbol id="providers" viewBox="0 0 23 22">
	<path fill="#6F7174" d="M21.724 17.388c-2.244 1.15-5.998 3.066-7.47 3.758a1.97 1.97 0 01-1.66.007l-5.336-2.449c-1.198-.55-1.545-.834-2.863-.834H1.7c-.56 0-1.013-1.082-1.013-2.417 0-1.336.453-2.418 1.013-2.418 0 0 1.838.044 2.472-.133.728-.204 1.933-.594 2.552-.65 1.075-.096 2.387-.118 4.357 1.223.473.322.995.655 1.537.949.506.275 1.028.52 1.563.734l.974.391a1.272 1.272 0 01.785.895c.02.092.026.186.02.28l-.003.02a.944.944 0 01-.017.111l-.005.032a.939.939 0 01-.04.129 1.092 1.092 0 01-1.041.647 1.36 1.36 0 01-.507-.1l-2.829-1.135s-1.383-.643-2.366-.76a1.682 1.682 0 001.095 1.577c.325.12.607.242.75.308l.03.014.03.012 2.826 1.136a2.6 2.6 0 00.97.188 2.325 2.325 0 002.191-1.425c.03-.073.055-.148.075-.224l3.628-1.8a1.083 1.083 0 01.976 1.934zM16.607 6.547a.158.158 0 01-.157.135h-1.133a3.915 3.915 0 01-.514 1.237l.803.803a.158.158 0 01.017.206c-.29.386-.634.73-1.021 1.02a.158.158 0 01-.207-.017l-.801-.801c-.38.24-.8.414-1.239.511v1.135a.16.16 0 01-.135.158 5.137 5.137 0 01-1.442 0 .16.16 0 01-.135-.159V9.643a3.916 3.916 0 01-1.236-.514l-.803.803a.158.158 0 01-.207.016 5.12 5.12 0 01-1.02-1.02.16.16 0 01.017-.207l.802-.802a3.894 3.894 0 01-.512-1.237H6.55a.159.159 0 01-.157-.136 5.135 5.135 0 010-1.441.159.159 0 01.158-.135h1.133c.099-.44.272-.858.513-1.237l-.803-.804a.158.158 0 01-.016-.206c.29-.386.634-.73 1.02-1.02a.159.159 0 01.208.017l.8.801c.38-.24.8-.413 1.239-.511V.875a.16.16 0 01.135-.158 5.135 5.135 0 011.442.001.16.16 0 01.135.158v1.132c.439.1.857.273 1.237.514l.803-.803a.158.158 0 01.207-.016c.386.29.729.634 1.019 1.02a.16.16 0 01-.016.207l-.802.802c.24.38.414.799.511 1.238h1.135a.16.16 0 01.157.135 5.13 5.13 0 010 1.442h-.002zm-2.973-1.128a2.173 2.173 0 10-4.27.813 2.173 2.173 0 004.27-.813z"/>
</symbol>
<symbol id="scratch" viewBox="0 0 24 20">
	<path d="M22.766 7.125L18.95 6.58 18.18.528a.48.48 0 00-.536-.416L1.26 2.193a.48.48 0 00-.416.537L2.35 14.585a.48.48 0 00.537.416l1.61-.205-.319 2.224a.48.48 0 00.407.544l16.35 2.341a.48.48 0 00.544-.407l1.694-11.83a.48.48 0 00-.407-.543zM5.328 2.957l11.547-1.468a.12.12 0 01.134.104l1.277 10.049a.12.12 0 01-.104.134L6.636 13.244a.12.12 0 01-.12-.06.119.119 0 01-.015-.044L5.224 3.09a.12.12 0 01.104-.134v.001zm14.996 15.456a.12.12 0 01-.089.1.12.12 0 01-.047.002l-11.522-1.65a.12.12 0 01-.102-.136l.358-2.495 10.35-1.316a.48.48 0 00.416-.536l-.572-4.496 2.542.364a.12.12 0 01.102.136l-1.436 10.027zm-13-11.4c.165-.05.326-.118.48-.2l-.08.16a6.63 6.63 0 00-.337.915 5.74 5.74 0 00-.118.497 3.56 3.56 0 00-.066.538.234.234 0 00.298.233 3.57 3.57 0 00.506-.195l.082-.04c-.195.488-.35.991-.46 1.505-.056.25-.094.502-.113.757a.237.237 0 00.309.241c.243-.08.48-.179.708-.293.419-.207.82-.445 1.203-.713a6.42 6.42 0 00-.11.414 4.973 4.973 0 00-.118.697.243.243 0 00.323.25c.222-.08.438-.176.647-.287a8.473 8.473 0 001.354-.883 3.179 3.179 0 00-.056.687.236.236 0 00.288.223c.167-.04.33-.091.49-.157a4.91 4.91 0 00.432-.199 5.484 5.484 0 001.056-.718c-.03.175-.038.353-.026.53a.212.212 0 00.251.167c.333-.07.648-.21.923-.41a3.15 3.15 0 001.085-1.41 2.49 2.49 0 00.177-.99.22.22 0 00-.265-.206 2.242 2.242 0 00-.506.176c.046-.098.093-.196.135-.298.114-.278.206-.564.274-.857.036-.155.064-.312.085-.47.024-.169.034-.34.03-.51a.231.231 0 00-.283-.22c-.166.04-.329.092-.487.158-.053.02-.103.043-.154.066a9.91 9.91 0 00.36-.936c.066-.212.13-.426.18-.65.057-.229.096-.462.12-.696a.236.236 0 00-.316-.244c-.222.08-.438.177-.646.288-.296.156-.583.33-.858.52l.08-.306c.025-.122.056-.238.076-.363.051-.255.082-.513.092-.773a.235.235 0 00-.299-.233 5.112 5.112 0 00-.727.278c-.116.05-.22.11-.333.163l-.317.175c-.24.14-.468.29-.688.446l.001-.005c.036-.177.057-.357.065-.538a.231.231 0 00-.296-.23 3.55 3.55 0 00-.506.193c-.16.072-.308.152-.454.235a6.585 6.585 0 00-.806.549c-.069.054-.133.112-.199.168.043-.17.07-.343.08-.518a.194.194 0 00-.25-.196c-.366.12-.707.305-1.007.545-.28.217-.53.467-.75.744a4.212 4.212 0 00-.556.897 3.072 3.072 0 00-.286 1.108.219.219 0 00.282.22v.001zm2.694-1.238a1.43 1.43 0 01.87-.474l-.017-.131a.312.312 0 01.27-.348l.573-.073a.31.31 0 01.348.27l.016.129.728-.093a.31.31 0 01.348.27l.073.573a.312.312 0 01-.27.348l-1.036.131-.185.024-.687.087a.18.18 0 00-.155.215.183.183 0 00.204.142l1.125-.143a1.44 1.44 0 011.032.25 1.38 1.38 0 01.238 2.006 1.43 1.43 0 01-.87.474l.015.121a.31.31 0 01-.27.348l-.573.073a.313.313 0 01-.348-.27l-.015-.119-.696.089a.313.313 0 01-.348-.27l-.073-.573a.31.31 0 01.27-.348l1.873-.238a.182.182 0 00.162-.189.18.18 0 00-.204-.169l-1.13.144a1.435 1.435 0 01-1.03-.25 1.38 1.38 0 01-.238-2.006z"/>
</symbol>
<symbol id="tab-haeder-pay" viewBox="0 0 21 20">
	<path d="M21 3.275V8.83c0 .199-.087.39-.243.53a.877.877 0 01-.587.22h-1.489V8.088c0-.492-.218-.963-.603-1.311a2.175 2.175 0 00-1.452-.544H6.416v-2.96H21zm0-2.026a.714.714 0 00-.243-.53A.877.877 0 0020.17.5H7.246a.877.877 0 00-.587.22.714.714 0 00-.243.53v.919H21V1.25zm0 13.985c0 .56-.122 1.115-.36 1.632a4.265 4.265 0 01-1.024 1.384c-.439.397-.96.71-1.533.925a5.169 5.169 0 01-1.809.325c-.62 0-1.235-.11-1.808-.325a4.787 4.787 0 01-1.534-.925 4.264 4.264 0 01-1.024-1.384 3.91 3.91 0 01-.36-1.632c0-1.132.498-2.217 1.384-3.017.887-.8 2.089-1.25 3.342-1.25 1.253 0 2.456.45 3.342 1.25.886.8 1.384 1.885 1.384 3.017zm-2.361.532a1.486 1.486 0 00-.59-.728 1.746 1.746 0 00-.952-.278l-1.65.005h-.003a.594.594 0 01-.372-.164.487.487 0 01-.15-.348c0-.129.053-.253.15-.348a.595.595 0 01.37-.164l2.685-.008a.133.133 0 00.088-.034.111.111 0 00.026-.036.101.101 0 00.01-.043l-.003-.719a.109.109 0 00-.036-.08.134.134 0 00-.089-.032l-1.335.004-.003-.659a.103.103 0 00-.01-.043.11.11 0 00-.027-.036.134.134 0 00-.089-.032l-.796.003a.132.132 0 00-.087.033.107.107 0 00-.036.08l.003.657h-.254c-.904.003-1.676.673-1.656 1.49.01.38.184.743.486 1.009.302.266.708.414 1.13.413l1.651-.004c.075 0 .148.013.217.038a.574.574 0 01.185.11.512.512 0 01.123.167.47.47 0 01-.121.558.572.572 0 01-.184.111.62.62 0 01-.217.04l-2.638.007a.127.127 0 00-.088.033.111.111 0 00-.027.036.102.102 0 00-.01.043l.002.72c0 .015.004.03.01.043a.113.113 0 00.028.036c.011.01.025.019.04.024a.138.138 0 00.048.009l1.29-.004.004.658a.103.103 0 00.037.08.127.127 0 00.088.032l.796-.003a.133.133 0 00.088-.033.108.108 0 00.036-.08l-.003-.657h.303a1.76 1.76 0 00.73-.161c.226-.105.421-.256.57-.442.15-.185.248-.4.288-.626.04-.227.02-.459-.056-.677zm-8.387-.87H3.896a3.66 3.66 0 00-1.01-1.499 4.203 4.203 0 00-1.66-.912v-1.628a4.201 4.201 0 001.66-.912 3.66 3.66 0 001.01-1.5h9.665a3.65 3.65 0 001.067 1.55 6.64 6.64 0 012.829-.102V8.089a.714.714 0 00-.243-.53.878.878 0 00-.587-.22H.83a.877.877 0 00-.587.22.714.714 0 00-.243.53v7.164c0 .199.087.39.243.53s.367.22.587.22h9.47a4.93 4.93 0 01-.048-1.107zm.954-3.225c0 .593-.26 1.162-.725 1.582a2.62 2.62 0 01-1.753.655 2.62 2.62 0 01-1.752-.655 2.133 2.133 0 01-.726-1.582c0-.593.261-1.162.726-1.582a2.62 2.62 0 011.752-.655 2.62 2.62 0 011.753.655c.464.42.726.989.726 1.582z"/>
</symbol>
<symbol id="tab-header-details" viewBox="0 0 20 19">
	<path d="M19.135 9.378L10.247.185A.603.603 0 009.814 0a.603.603 0 00-.433.185L.49 9.378a.653.653 0 00-.133.69.629.629 0 00.227.285c.101.07.22.106.34.106h1.94v7.908c0 .168.065.328.18.447.115.119.27.186.433.186h3.76a.596.596 0 00.433-.186.635.635 0 00.18-.448v-4.883c0-.168.065-.33.18-.448a.604.604 0 01.433-.186h2.698c.162 0 .318.067.433.186.115.12.18.28.18.448v4.884c0 .168.064.329.18.447.114.12.27.186.432.186h3.76a.603.603 0 00.434-.186.645.645 0 00.179-.448v-7.907h1.94a.6.6 0 00.34-.107.63.63 0 00.226-.284.655.655 0 00-.132-.69h.001z"/>
</symbol>
<symbol id="tab-header-rep" viewBox="0 0 21 19">
	<path d="M20.174 0H.826A.927.927 0 00.242.2.62.62 0 000 .676V12.22c0 .179.087.35.242.477a.928.928 0 00.584.198h3.631l-.002-.079c0-.312.084-.62.25-.901.164-.281.404-.528.702-.723l.101-.067-.013-.106a1.73 1.73 0 01.13-.917c.126-.294.332-.561.601-.782.27-.22.596-.388.956-.491.36-.104.743-.14 1.121-.106l.13.012.081-.084c.239-.243.541-.44.885-.574.343-.135.72-.205 1.101-.205s.758.07 1.101.205c.344.135.646.331.885.574l.082.083.129-.011c.378-.034.762.002 1.121.106.36.103.686.271.955.491.27.22.475.488.602.782.126.294.17.607.13.917l-.013.106.101.067c.298.195.538.442.703.723.165.281.25.59.249.901 0 .027-.002.052-.003.079h3.632a.928.928 0 00.584-.198.62.62 0 00.242-.477V.676a.57.57 0 00-.063-.259.683.683 0 00-.178-.219.858.858 0 00-.268-.147.987.987 0 00-.317-.051zM6.893 2.86c0-.034.016-.067.046-.09a.175.175 0 01.11-.038h6.902c.02 0 .041.003.06.01a.161.161 0 01.05.027.128.128 0 01.034.042.106.106 0 01.012.049v.923a.108.108 0 01-.012.048.13.13 0 01-.034.042.161.161 0 01-.05.027.186.186 0 01-.06.01H7.05a.175.175 0 01-.11-.037.117.117 0 01-.046-.09V2.86zM17.7 6.406a.117.117 0 01-.046.09.176.176 0 01-.11.037H3.457a.175.175 0 01-.11-.038.117.117 0 01-.045-.09v-.923c0-.016.004-.033.012-.048a.129.129 0 01.033-.041.162.162 0 01.05-.028.186.186 0 01.06-.01h14.088c.02 0 .04.003.06.01a.161.161 0 01.05.027.13.13 0 01.034.042.106.106 0 01.011.048v.924zm-2.92 5.615l-.125-.082a1.067 1.067 0 01-.37-.404.852.852 0 01-.089-.5l.017-.131a.847.847 0 00-.063-.45 1.017 1.017 0 00-.295-.381 1.313 1.313 0 00-.468-.241 1.509 1.509 0 00-.549-.052l-.157.014a1.503 1.503 0 01-.613-.072 1.259 1.259 0 01-.495-.303l-.1-.102a1.237 1.237 0 00-.433-.281 1.48 1.48 0 00-1.078 0 1.238 1.238 0 00-.433.281l-.1.102a1.258 1.258 0 01-.495.303c-.193.066-.404.09-.612.072l-.158-.014a1.51 1.51 0 00-.55.052c-.175.05-.335.133-.467.24a1.019 1.019 0 00-.294.383.847.847 0 00-.064.449l.016.13a.852.852 0 01-.087.5c-.08.16-.208.298-.371.405l-.124.082a1.085 1.085 0 00-.344.354.869.869 0 00-.122.441c0 .153.041.303.122.44.08.139.198.26.344.355l.124.081c.163.108.29.247.37.405.081.158.111.33.088.5l-.016.13a.882.882 0 00.212.689c.169.201.421.346.71.408l-1.301 1.844a.109.109 0 00.012.14c.018.02.044.034.072.043a.19.19 0 00.09.002l1.233-.27a.522.522 0 01.33.037c.1.047.174.124.204.216l.33 1.007a.122.122 0 00.032.05.157.157 0 00.055.033.185.185 0 00.133-.001.146.146 0 00.065-.051l1.523-2.162 1.565 2.224c.015.022.038.04.066.05a.185.185 0 00.172-.018.126.126 0 00.047-.063l.34-1.037a.343.343 0 01.077-.128.43.43 0 01.13-.094.517.517 0 01.34-.036l1.268.279c.03.006.06.005.09-.003a.158.158 0 00.073-.043.115.115 0 00.032-.07.11.11 0 00-.021-.07l-1.334-1.89c.279-.069.519-.215.68-.413a.879.879 0 00.2-.673l-.018-.128a.853.853 0 01.088-.502c.08-.158.208-.297.371-.405l.124-.08c.146-.097.263-.218.343-.355a.87.87 0 00.123-.441.87.87 0 00-.123-.44 1.085 1.085 0 00-.343-.355zm-4.363-.8c.256 0 .51.041.747.121.236.08.451.198.633.346.18.148.324.324.423.518.098.193.148.4.148.61 0 .21-.05.417-.149.61-.098.194-.241.37-.422.518a2.021 2.021 0 01-.633.346c-.237.08-.49.121-.747.121a2.19 2.19 0 01-1.379-.467c-.366-.3-.571-.705-.571-1.128 0-.423.205-.829.571-1.128a2.19 2.19 0 011.38-.467z"/>
</symbol>
<symbol id="baccart" viewBox="0 0 22 22">
	<path d="M18.248 11.539h3.394a10.641 10.641 0 01-1.12 4.162l-2.935-1.695a7.278 7.278 0 00.66-2.467h.001zm-3.088 5.345l1.695 2.935a10.75 10.75 0 003.046-3.045l-2.935-1.695a7.313 7.313 0 01-1.806 1.805zm-1.073.621a7.275 7.275 0 01-2.467.662v3.394a10.64 10.64 0 004.162-1.12l-1.565-2.71-.13-.226zM5.034 15.08L2.1 16.774a10.75 10.75 0 003.045 3.045l1.695-2.934a7.313 7.313 0 01-1.806-1.806v.001zm2.75 2.652l-1.566 2.71a10.64 10.64 0 004.162 1.12v-3.394a7.275 7.275 0 01-2.467-.662l-.13.226zM21.65 1.4v8.9h-3.996a.62.62 0 00-.62.62 6.036 6.036 0 01-6.033 6.034 6.037 6.037 0 01-6.035-6.034.62.62 0 00-.62-.62H.35V1.4a.96.96 0 01.96-.96h3.287a.96.96 0 01.705.31l1.483 1.605a.96.96 0 00.705.309h7.02a.96.96 0 00.705-.309L16.698.749a.96.96 0 01.705-.309h3.287a.96.96 0 01.96.96zM7.827 8.26V4.702a.32.32 0 00-.32-.32H5.072a.321.321 0 00-.32.32v3.56a.321.321 0 00.321.32l2.431-.001a.321.321 0 00.32-.321h.002zm3.793-2.97a.62.62 0 10-1.24 0v2.34a.62.62 0 101.24 0V5.29zm5.568 3.089V4.821a.32.32 0 00-.32-.32h-2.433a.322.322 0 00-.32.32v3.56a.322.322 0 00.321.32l2.431-.001a.32.32 0 00.32-.321h.001zm-13.436 3.16H.358a10.659 10.659 0 001.12 4.162l2.936-1.695a7.28 7.28 0 01-.662-2.467z"/>
</symbol>
<symbol id="video-poker" viewBox="0 0 24 20">
	<path d="M23.3 18.915l-2.77-4.222a.48.48 0 00-.402-.216H3.954a.48.48 0 00-.398.21L.702 18.913a.24.24 0 00.198.374h22.2a.24.24 0 00.2-.371v-.001zm-8.846-1.076h-4.91a.16.16 0 01-.136-.24l.616-1.024a.24.24 0 01.205-.117h3.56a.239.239 0 01.207.12l.595 1.023a.16.16 0 01-.137.238zm4.59-15.744v9.62H5.07v-9.62h13.974zM20.108.714H4.005a.317.317 0 00-.316.317v11.748a.317.317 0 00.316.316h16.103a.317.317 0 00.316-.316V1.03a.314.314 0 00-.316-.317v.001zm-9.617 9.38a.916.916 0 01-.556-.077.073.073 0 00-.082.01.074.074 0 00-.02.08c.07.173.162.338.276.487a.094.094 0 01-.026.139.096.096 0 01-.05.014h-.915a.097.097 0 01-.095-.107.097.097 0 01.02-.049 2.01 2.01 0 00.271-.48.073.073 0 00-.1-.09.915.915 0 01-.552.072.972.972 0 01-.749-.85c-.042-.884 1.008-1.673 1.462-1.972a.372.372 0 01.41 0c.454.3 1.504 1.089 1.461 1.973a.972.972 0 01-.755.85zM9.797 6.31a.396.396 0 01-.435 0C8.894 6 7.831 5.203 7.804 4.299a.974.974 0 011.455-.884l.264.156a.106.106 0 00.109 0c.087-.05.251-.146.281-.162a.973.973 0 011.443.89c-.028.905-1.09 1.702-1.559 2.01v.001zm6.27 2.909l-1.275 1.403a.356.356 0 01-.527 0L12.99 9.219a.356.356 0 010-.48l1.274-1.402a.356.356 0 01.528 0l1.275 1.403a.356.356 0 010 .479zm.231-4.024a.984.984 0 01-.834.819.97.97 0 01-.57-.096.064.064 0 00-.088.083c.066.159.152.309.257.446a.095.095 0 01-.027.139.096.096 0 01-.05.014h-.916a.096.096 0 01-.076-.153c.104-.136.19-.286.256-.444a.064.064 0 00-.002-.058.065.065 0 00-.088-.026.974.974 0 01-1.412-.91.981.981 0 01.733-.913.097.097 0 00.07-.094l.003-.06a.98.98 0 011.95.059.098.098 0 00.072.095.98.98 0 01.722 1.1v-.001z"/>
</symbol>
<symbol id="blackjack" viewBox="0 0 24 20">
	<path d="M23.323 4.139l-9.71-3.088a.835.835 0 00-.498-.004l.59 3.465.89-1.134a.157.157 0 01.172-.053l.474.15a.157.157 0 01.11.143l.11 2.293a.157.157 0 01-.204.157l-.596-.19a.156.156 0 01-.11-.142l-.015-.322-.316-.1-.2.254a.158.158 0 01-.125.06l.458 2.69a8.667 8.667 0 012.2-.928.67.67 0 01.702.227c.614.765 1.977 2.701 1.413 4.194-.25.659-1.07 1.142-1.767 1.039a1.651 1.651 0 01-.91-.442.13.13 0 00-.223.097c.02.338.09.67.202.99a.172.172 0 01-.217.22l-.508-.165.28 1.65a2.083 2.083 0 01-1.7 2.4l-1.827.31 6.308 2.006a.84.84 0 001.055-.546l4.508-14.176a.84.84 0 00-.546-1.055zM18.74 15.783l-1.418 1.806a.157.157 0 01-.172.053l-.474-.15a.157.157 0 01-.11-.143l-.11-2.293a.157.157 0 01.205-.157l.595.19a.157.157 0 01.11.142l.015.322.317.1.2-.254a.158.158 0 01.17-.052l.596.19a.157.157 0 01.077.246h-.001zm-4.438-.375L11.805.743a.84.84 0 00-.97-.687L.79 1.767a.84.84 0 00-.687.97L2.602 17.4a.84.84 0 00.969.687l10.045-1.711a.84.84 0 00.687-.97v.002zM2.315 4.869a.157.157 0 01.129-.18l.584-.1a.15.15 0 01.173.122.083.083 0 00.037.057.073.073 0 00.11-.074l-.23-1.346a.157.157 0 01.129-.18l.577-.1a.157.157 0 01.18.13l.23 1.345a.976.976 0 01-.796 1.122.976.976 0 01-1.123-.795v-.001zm9.152 8.253a3.218 3.218 0 00-2.085 1.992.291.291 0 01-.227.188l-1.73.294a.29.29 0 01-.277-.102 3.22 3.22 0 00-2.627-1.19.838.838 0 01-.745-1.27l.738-1.23a5.034 5.034 0 01-.382-1.966L3.012 7.79a.295.295 0 01.21-.433l7.17-1.221a.295.295 0 01.34.338l-.45 2.747.005.005c.165.184.554.617.486 1.257-.012.11-.038.217-.076.32l1.052.872a.838.838 0 01-.282 1.447zm-2.142-2.484a.382.382 0 00-.09.265c.015.228.07.452.087.68a.35.35 0 01-.328.406 5.295 5.295 0 01-1.511-.067c-.46.804-1.727.813-1.727.813a1.73 1.73 0 00.074-.3c.084-.481-.11-.916-.26-1.383a3.86 3.86 0 01-.171-1.701l3.64-.621c-.162.5.004.967.325 1.325.254.282.228.314-.04.583z"/>
</symbol>
<symbol id="slots" viewBox="0 0 22 20">
	<path d="M2.14 2.694A5.778 5.778 0 016.668.505h5.36a5.78 5.78 0 014.528 2.189H2.14zm19.772 3.493a1.26 1.26 0 01-.57 1.054v7.014a.158.158 0 01-.157.158h-2.578v1.599a.872.872 0 01-.871.871H.959a.872.872 0 01-.871-.871V4.848a.871.871 0 01.87-.871h16.778a.872.872 0 01.87.871v8.184h1.355V7.24a1.26 1.26 0 111.95-1.054v.001zM5.8 5.358H1.469v7.77H5.8v-7.77zm5.713 0H7.18v7.77h4.332v-7.77zm5.712 0h-4.331v7.77h4.33v-7.77zm.352 12.814H1.118a.158.158 0 00-.158.158v1.007a.158.158 0 00.158.158h16.46a.158.158 0 00.158-.159V18.33a.158.158 0 00-.16-.158h.002zm-1.185-9.751a1.6 1.6 0 00-.953-.928.385.385 0 00-.752 0c-.568.199-.9.646-1.06 1.247-.085.326-.085.67-.001.996.157.606.49 1.056 1.06 1.257a.384.384 0 00.754 0c.249-.085.47-.234.642-.433.314-.365.482-.832.473-1.312a2.015 2.015 0 00-.163-.827zm-11.425 0a1.6 1.6 0 00-.953-.928.385.385 0 00-.752 0c-.568.199-.9.646-1.06 1.247-.085.326-.086.67-.001.996.156.606.49 1.056 1.06 1.257a.385.385 0 00.753 0c.25-.085.47-.234.643-.433a1.96 1.96 0 00.473-1.312 2.013 2.013 0 00-.163-.827zm5.712 0a1.6 1.6 0 00-.953-.928.385.385 0 00-.752 0c-.568.199-.9.646-1.058 1.247-.086.326-.087.67-.003.996.157.606.49 1.056 1.062 1.257a.385.385 0 00.752 0c.249-.085.47-.234.643-.433.313-.365.48-.832.473-1.312a2.014 2.014 0 00-.164-.827z"/>
</symbol>
<symbol id="keno" viewBox="0 0 22 24">
	<path d="M9.884 6.65a7.699 7.699 0 013.158-2.056L11.647.48a.472.472 0 00-.6-.296L.422 3.787a.472.472 0 00-.295.598L1.86 9.5a9.311 9.311 0 018.024-2.85zM8.668 2.669l1.669-.566a.178.178 0 01.225.112l.565 1.668a.178.178 0 01-.11.225l-1.67.566a.178.178 0 01-.224-.112l-.566-1.668a.178.178 0 01.11-.225zM5.41 3.772l1.668-.565a.178.178 0 01.225.111l.566 1.668a.178.178 0 01-.112.225l-1.668.566a.177.177 0 01-.225-.111l-.566-1.668a.178.178 0 01.11-.226h.002zM2.15 4.877l1.669-.566a.178.178 0 01.225.112l.566 1.668a.178.178 0 01-.111.225l-1.67.566a.178.178 0 01-.224-.112L2.04 5.102a.178.178 0 01.112-.225zm6.744 3.014a7.977 7.977 0 10-.522 15.946A7.977 7.977 0 008.895 7.89zM13.41 20.64c-1.755 1.756-4.564 1.792-6.274.082s-1.674-4.52.08-6.274c1.756-1.755 4.565-1.792 6.275-.082s1.674 4.52-.081 6.274zm-.046-4.035a1.988 1.988 0 01-.406 1.507 2.009 2.009 0 01-1.44.747 8.207 8.207 0 01-1.151-.032c-.308-.022-.636-.046-.98-.051l1.382 1.383a.133.133 0 010 .188l-.604.603a.133.133 0 01-.188 0l-2.674-2.673a.293.293 0 01.147-.497c.164-.034.35-.066.553-.09.953-.113 1.775-.028 2.444.02.328.032.657.043.987.032a.898.898 0 00.63-.307.86.86 0 00-.854-1.391l-.416.096a.133.133 0 01-.16-.1l-.193-.83a.133.133 0 01.1-.16l.415-.097a1.991 1.991 0 012.022.724c.207.27.34.59.386.928zm7.862-1.82a6.36 6.36 0 01-3.516 3.099c.088-.394.15-.793.186-1.194a3.48 3.48 0 00-1.884-6.478 9.337 9.337 0 00-4.576-3.215 6.382 6.382 0 019.79 7.787v.001z"/>
</symbol>
<symbol id="craps" viewBox="0 0 24 22">
	<path d="M19.674 19.29l2.88-2.88-1.908 4.466a1.224 1.224 0 01-1.608.645l-5.382-2.299a.84.84 0 01-.442-1.102l.67-1.569 2.738 2.738a2.156 2.156 0 003.052 0v.001zm3.478-5.343l-4.41 4.41a.84.84 0 01-1.188 0l-4.41-4.41a.841.841 0 010-1.188l4.41-4.41a.84.84 0 011.188 0l4.41 4.41a.84.84 0 010 1.188zm-7.32-1.059a.66.66 0 00-.931.931.657.657 0 00.93-.931zm2.78 2.782a.657.657 0 00-1.081.716.66.66 0 001.259-.256.658.658 0 00-.177-.46zm-1.002-1.778a.657.657 0 10.928-.929.657.657 0 00-.928.929zm1.003-3.785a.657.657 0 10-.96.896.657.657 0 00.96-.896zm2.782 2.781a.659.659 0 10-.932.932.659.659 0 00.932-.932zM2.29 18.408L17.656 3.043a.621.621 0 01.878 0l3.965 3.965a.48.48 0 00.678 0l.11-.11a1.848 1.848 0 000-2.613l-2.998-2.997a3.106 3.106 0 00-4.388 0L.536 16.653a1.241 1.241 0 001.755 1.755H2.29z"/>
</symbol>
<symbol id="poker" viewBox="0 0 18 18">
	<path d="M4.695.764A2.142 2.142 0 017.87 2.726c-.062 1.99-2.4 3.744-3.43 4.422a.87.87 0 01-.958 0C2.453 6.47.113 4.714.053 2.723A2.143 2.143 0 013.255.779c.066.037.4.235.582.343a.234.234 0 00.239.001c.192-.112.553-.322.62-.359h-.001zM.294 14.688c.04.854.806 1.723 1.648 1.871.41.075.835.02 1.214-.158a.16.16 0 01.22.198c-.15.378-.35.733-.596 1.056a.21.21 0 00.165.343h2.013a.211.211 0 00.17-.337 4.487 4.487 0 01-.607-1.074.16.16 0 01.224-.197c.379.184.806.244 1.222.172.848-.142 1.622-1.012 1.663-1.872.095-1.946-2.217-3.684-3.218-4.343a.819.819 0 00-.9 0c-1 .658-3.31 2.395-3.218 4.34v.001zm17.13-1.11L14.62 10.49a.784.784 0 00-1.16 0l-2.806 3.088a.785.785 0 000 1.055l2.805 3.087a.785.785 0 001.162 0l2.805-3.087a.784.784 0 000-1.055h-.002zm-.822-11.215a2.696 2.696 0 00-.258-.089.214.214 0 01-.155-.208c0-.046-.002-.09-.004-.116a2.157 2.157 0 00-4.29-.012 1.611 1.611 0 00-.005.13.214.214 0 01-.155.206c-.111.03-.22.068-.324.116a2.153 2.153 0 00.86 4.126c.333 0 .66-.078.958-.228a.143.143 0 01.198.185 4.43 4.43 0 01-.564.977.21.21 0 00.168.338h2.015a.21.21 0 00.169-.338 4.427 4.427 0 01-.565-.982.14.14 0 01.194-.182 2.153 2.153 0 101.758-3.923z"/>
</symbol>
<symbol id="bingo" viewBox="0 0 22 22">
	<path d="M20.98.18H1.02a.84.84 0 00-.84.84v19.96a.84.84 0 00.84.84h19.96a.84.84 0 00.84-.84V1.02a.84.84 0 00-.84-.84zM7.245 19.183a.317.317 0 01-.316.317H2.82a.316.316 0 01-.318-.317v-4.111a.317.317 0 01.317-.317H6.93a.317.317 0 01.316.317v4.111zm0-6.126a.317.317 0 01-.316.317H2.82a.317.317 0 01-.318-.317V8.944a.317.317 0 01.317-.317H6.93a.317.317 0 01.316.317v4.113zm0-6.126a.317.317 0 01-.316.317H2.82a.317.317 0 01-.318-.317V2.818a.317.317 0 01.317-.317H6.93a.317.317 0 01.316.317v4.113zm6.127 12.252a.317.317 0 01-.317.317h-4.11a.316.316 0 01-.318-.317v-4.111a.317.317 0 01.317-.317h4.112a.317.317 0 01.317.317v4.111zm0-6.126a.317.317 0 01-.317.317h-4.11a.317.317 0 01-.317-.317V8.944a.317.317 0 01.316-.317h4.112a.317.317 0 01.317.317v4.113zm0-6.126a.317.317 0 01-.317.317h-4.11a.317.317 0 01-.318-.317V2.818a.317.317 0 01.317-.317h4.112a.317.317 0 01.317.317v4.113zm6.126 12.252a.317.317 0 01-.317.317h-4.11a.317.317 0 01-.318-.317v-4.111a.317.317 0 01.316-.317h4.112a.317.317 0 01.317.316v4.112zm0-6.126a.317.317 0 01-.317.317h-4.11a.317.317 0 01-.318-.317V8.945a.317.317 0 01.316-.317h4.112a.317.317 0 01.317.316v4.113zm0-6.126a.317.317 0 01-.317.316h-4.11a.317.317 0 01-.318-.316V2.818a.317.317 0 01.316-.317h4.112a.317.317 0 01.317.317v4.113zm-7.672 4.822a.326.326 0 01-.075.075c-1.136.81-2.39-.442-1.579-1.579a.322.322 0 01.075-.075c1.137-.81 2.39.443 1.58 1.579zM5.701 5.626a.325.325 0 01-.075.075c-1.137.81-2.39-.443-1.58-1.58a.325.325 0 01.076-.074c1.136-.81 2.39.442 1.58 1.579zm0 6.126a.325.325 0 01-.075.075c-1.137.81-2.39-.442-1.58-1.579a.324.324 0 01.076-.075c1.136-.81 2.39.443 1.58 1.579zm12.252 6.126a.328.328 0 01-.075.075c-1.136.81-2.389-.442-1.579-1.578a.322.322 0 01.075-.076c1.137-.81 2.39.443 1.58 1.58v-.001zm0-12.252a.328.328 0 01-.075.075c-1.136.81-2.389-.443-1.579-1.58a.325.325 0 01.075-.074c1.137-.81 2.39.442 1.58 1.579z"/>
</symbol>
<symbol id="sports-bet" viewBox="0 0 22 22">
	<path d="M7.054 8.51H7.05a6.436 6.436 0 00-6.434 6.433v.005a6.436 6.436 0 106.44-6.439l-.002.001zm4.186 9.37l-.13-.255a.44.44 0 00-.534-.215l-1.22.413a.439.439 0 00-.206.147l-.77.992a.44.44 0 00.03.574l.251.266a5.096 5.096 0 01-3.158.02l.252-.273a.44.44 0 00.02-.574L4.97 17.97a.438.438 0 00-.208-.144l-1.195-.384a.44.44 0 00-.53.224l-.132.266a5.085 5.085 0 01-.965-2.946l.281.16a.44.44 0 00.565-.11l.797-1.01a.442.442 0 00.093-.236l.106-1.251a.44.44 0 00-.338-.466l-.527-.125a5.118 5.118 0 012.527-1.852l-.047.344a.442.442 0 00.312.483l1.234.364c.083.024.17.024.253-.001l1.201-.367a.44.44 0 00.308-.486l-.05-.339a5.117 5.117 0 012.536 1.858l-.49.102a.44.44 0 00-.35.456l.073 1.286a.445.445 0 00.086.238l.75 1.008a.44.44 0 00.56.126l.346-.184a5.084 5.084 0 01-.925 2.896zm-3.286-1.253H6.14a.44.44 0 01-.419-.304l-.53-1.615a.44.44 0 01.16-.493l1.441-1.054a.441.441 0 01.52 0l1.45 1.052a.44.44 0 01.157.498l-.548 1.617a.44.44 0 01-.417.299zm10.136 3.128c1.122 0 2.102-.192 2.864-.53.29.212.456.46.456.724 0 .791-1.486 1.433-3.32 1.433-1.834 0-3.32-.642-3.32-1.433 0-.265.167-.512.456-.725.762.339 1.742.531 2.864.531zm0-2.866c1.122 0 2.102-.193 2.864-.532.29.213.456.46.456.725 0 .792-1.486 1.433-3.32 1.433-1.834 0-3.32-.641-3.32-1.433 0-.264.167-.512.456-.725.762.339 1.742.532 2.864.532zm3.32-2.674c0 .792-1.486 1.434-3.32 1.434-1.834 0-3.32-.642-3.32-1.434 0-.791 1.487-1.433 3.32-1.433 1.834 0 3.32.642 3.32 1.433zm-7.776-3.37h2.506a.178.178 0 01.178.178v.615a8.386 8.386 0 011.772-.18 7.967 7.967 0 012.201.288 9.517 9.517 0 00.46-2.96 9.353 9.353 0 00-.525-2.967 2.264 2.264 0 00-.08-.242 9.901 9.901 0 00-2.059-3.349C17.114 1.223 16.015.61 15.01.618c-.976.01-2.045.602-3.013 1.626-.293.304-.56.633-.797.982A9.555 9.555 0 009.932 5.73a10.296 10.296 0 00-.437 1.851 7.802 7.802 0 014.14 3.264zm.37-5.355h2.136a.178.178 0 01.178.177v.968a.178.178 0 01-.178.178h-2.136a.178.178 0 01-.178-.178v-.968a.178.178 0 01.178-.177zm0 2.677h2.136a.177.177 0 01.178.178v.968a.179.179 0 01-.178.178h-2.136a.18.18 0 01-.178-.178v-.968a.178.178 0 01.178-.178z"/>
</symbol>
<symbol id="roulette" viewBox="0 0 22 22">
	<path d="M21.004 16.278c.277-.28.532-.58.765-.896-.162 1.11-.722 2.175-1.647 3.112-1.974 2-5.361 3.203-9.06 3.216h-.063c-2.81 0-5.464-.683-7.482-1.928-1.89-1.166-3.035-2.704-3.284-4.385a9.31 9.31 0 002.633 2.353c2.21 1.362 5.097 2.113 8.132 2.113h.068c4.022-.015 7.737-1.355 9.938-3.585zM.18 11.655c-.013-1.374.574-2.701 1.697-3.84 1.775-1.798 4.693-2.95 7.95-3.175l.073-.538a2.061 2.061 0 112.163 0l.07.536c2.385.159 4.605.814 6.349 1.89 2.133 1.316 3.318 3.106 3.336 5.04.013 1.373-.574 2.7-1.697 3.839-1.974 2-5.361 3.202-9.06 3.215h-.063c-2.81 0-5.464-.683-7.482-1.927C1.384 15.379.199 13.589.18 11.655zm1.38-.043c0 1.031.483 2.03 1.38 2.903l2.44-.88c.57.616 1.39 1.127 2.375 1.482l-1.311 1.418c1.47.479 3.008.717 4.555.706v-1.579c.556 0 1.11-.044 1.66-.134a9.04 9.04 0 001.585-.41l1.304 1.41c1.416-.472 2.637-1.16 3.51-2.013l-2.44-.88c.552-.596.872-1.286.872-2.024h2.947c0-1.032-.482-2.03-1.378-2.904l-2.44.88c-.57-.616-1.392-1.126-2.376-1.482l1.31-1.417a13.92 13.92 0 00-3.233-.65l.623 4.715c.554.208.858.508.858.871 0 .803-1.452 1.169-2.802 1.169s-2.802-.366-2.802-1.169c0-.354.29-.65.82-.856l.409-3.087c-.57.088-1.13.23-1.671.423L6.45 6.694c-1.416.472-2.637 1.161-3.51 2.014l2.44.879c-.552.596-.872 1.286-.872 2.024H1.562l-.001.001z"/>
</symbol>
<symbol id="jackpot" viewBox="0 0 22 22">
	<path d="M21.004 16.278c.277-.28.532-.58.765-.896-.162 1.11-.722 2.175-1.647 3.112-1.974 2-5.361 3.203-9.06 3.216h-.063c-2.81 0-5.464-.683-7.482-1.928-1.89-1.166-3.035-2.704-3.284-4.385a9.31 9.31 0 002.633 2.353c2.21 1.362 5.097 2.113 8.132 2.113h.068c4.022-.015 7.737-1.355 9.938-3.585zM.18 11.655c-.013-1.374.574-2.701 1.697-3.84 1.775-1.798 4.693-2.95 7.95-3.175l.073-.538a2.061 2.061 0 112.163 0l.07.536c2.385.159 4.605.814 6.349 1.89 2.133 1.316 3.318 3.106 3.336 5.04.013 1.373-.574 2.7-1.697 3.839-1.974 2-5.361 3.202-9.06 3.215h-.063c-2.81 0-5.464-.683-7.482-1.927C1.384 15.379.199 13.589.18 11.655zm1.38-.043c0 1.031.483 2.03 1.38 2.903l2.44-.88c.57.616 1.39 1.127 2.375 1.482l-1.311 1.418c1.47.479 3.008.717 4.555.706v-1.579c.556 0 1.11-.044 1.66-.134a9.04 9.04 0 001.585-.41l1.304 1.41c1.416-.472 2.637-1.16 3.51-2.013l-2.44-.88c.552-.596.872-1.286.872-2.024h2.947c0-1.032-.482-2.03-1.378-2.904l-2.44.88c-.57-.616-1.392-1.126-2.376-1.482l1.31-1.417a13.92 13.92 0 00-3.233-.65l.623 4.715c.554.208.858.508.858.871 0 .803-1.452 1.169-2.802 1.169s-2.802-.366-2.802-1.169c0-.354.29-.65.82-.856l.409-3.087c-.57.088-1.13.23-1.671.423L6.45 6.694c-1.416.472-2.637 1.161-3.51 2.014l2.44.879c-.552.596-.872 1.286-.872 2.024H1.562l-.001.001zM5 3a1 1 0 11-2 0 1 1 0 012 0zM18 1a1 1 0 11-2 0 1 1 0 012 0zM20 5a1 1 0 11-2 0 1 1 0 012 0z"/>
	<path d="M3 7a1 1 0 11-2 0 1 1 0 012 0z"/>
</symbol>
<symbol id="live-games" viewBox="0 0 18 22">
	<path d="M15.78 15.59l-.904-.414c-.12-.575-.031-1.402.063-2.696.118-1.638.253-3.493.086-5.273-.336-3.583-2.121-5.123-2.14-5.123-.058-.08-1.449-1.8-3.874-1.723C5.92.46 4.12 2.74 3.19 5.35c-.386 1.082-.456 2.729-.359 4.064.13 1.814.306 2.37.434 3.216.176 1.15.252 1.657.013 2.476l-1.057.486A3.295 3.295 0 00.314 18.58v2.222a.84.84 0 00.839.84h7.163s-1.185-3.028-1.803-4.207a104.69 104.69 0 00-1.68-3.042c.537-.262.805-.485 1.027-.808.262-.419.481-.864.653-1.327.71.557 1.587.86 2.489.862a4.14 4.14 0 002.487-.856c.171.462.39.905.651 1.321.222.323.49.546 1.028.808-.541.947-1.192 2.106-1.681 3.041-.618 1.18-1.803 4.208-1.803 4.208h7.163a.84.84 0 00.84-.84V18.58a3.296 3.296 0 00-1.908-2.988l.001-.002zm-3.56-6.9a3.188 3.188 0 01-.745 2.033 3.291 3.291 0 01-.387.397l-.01.008a3.186 3.186 0 01-4.157-.002l-.008-.007a3.287 3.287 0 01-.388-.398A3.187 3.187 0 015.78 8.69V6.594a8.6 8.6 0 003.631-.665c1.177-.496 1.973-1.06 2.514-1.607.194.42.294.878.294 1.34V8.69h.001zm-5.117 8.133v-2.925a.16.16 0 01.158-.158c.028 0 .055.007.079.021l1.64.945a.159.159 0 00.159 0l1.64-.947a.158.158 0 01.238.138v2.924a.158.158 0 01-.238.137l-1.641-.946a.158.158 0 00-.158 0l-1.64.948a.158.158 0 01-.237-.138v.001z"/>
</symbol>
</svg>