<svg width="30" height="30" viewBox="0 0 30 30" fill="none" xmlns="http://www.w3.org/2000/svg">
<path d="M19.0161 17.3609L17.3137 19.0148L17.7115 21.3535C17.7251 21.4342 17.7158 21.5171 17.6847 21.5928C17.6537 21.6685 17.6021 21.7341 17.5358 21.782C17.4695 21.83 17.3912 21.8585 17.3095 21.8644C17.2279 21.8702 17.1463 21.8532 17.0738 21.8152L14.9763 20.7075L12.8746 21.8082C12.8021 21.8464 12.7203 21.8635 12.6385 21.8576C12.5567 21.8517 12.4782 21.823 12.4119 21.7749C12.3456 21.7267 12.294 21.6609 12.2631 21.585C12.2322 21.5091 12.2231 21.426 12.2369 21.3452L12.6431 19.0079L10.9462 17.3484C10.8878 17.291 10.8465 17.2184 10.8271 17.1388C10.8077 17.0592 10.811 16.9758 10.8365 16.8979C10.862 16.8201 10.9088 16.7509 10.9715 16.6982C11.0343 16.6456 11.1105 16.6115 11.1916 16.5998L13.5387 16.2629L14.5923 14.1377C14.629 14.0648 14.6853 14.0035 14.7548 13.9607C14.8243 13.9179 14.9044 13.8952 14.986 13.8952C15.0677 13.8952 15.1477 13.9179 15.2172 13.9607C15.2867 14.0035 15.343 14.0648 15.3797 14.1377L16.4264 16.2671L18.7735 16.6123C18.8543 16.6244 18.9302 16.6588 18.9926 16.7116C19.055 16.7645 19.1014 16.8337 19.1266 16.9115C19.1519 16.9892 19.1549 17.0725 19.1353 17.1519C19.1158 17.2313 19.0745 17.3037 19.0161 17.3609ZM29.9986 14.9141C30.0079 16.8904 29.627 18.8492 28.8776 20.678C28.1282 22.5068 27.0251 24.1697 25.6317 25.5713C24.2382 26.9729 22.5817 28.0855 20.7573 28.8455C18.9328 29.6055 16.9763 29.9978 14.9999 30C12.0368 30 9.14012 29.1223 6.67526 27.4779C4.2104 25.8334 2.28779 23.4958 1.14999 20.7599C0.0121838 18.024 -0.289845 15.0125 0.282005 12.1051C0.853856 9.19777 2.27397 6.52492 4.36318 4.42375C6.4524 2.32258 9.11712 0.887232 12.0212 0.298783C14.9252 -0.289665 17.9385 -0.00485063 20.6809 1.1173C23.4232 2.23944 25.7718 4.14864 27.4303 6.60405C29.0889 9.05945 29.983 11.9511 30 14.9141H29.9986ZM21.4144 18.2551C21.427 17.4025 21.2698 16.5559 20.9522 15.7646C20.6346 14.9733 20.1628 14.253 19.5643 13.6457C18.9658 13.0383 18.2526 12.556 17.466 12.2268C16.6794 11.8977 15.8352 11.7281 14.9826 11.7281C14.1299 11.7281 13.2857 11.8977 12.4991 12.2268C11.7125 12.556 10.9993 13.0383 10.4008 13.6457C9.80226 14.253 9.33049 14.9733 9.01288 15.7646C8.69526 16.5559 8.53814 17.4025 8.55066 18.2551C8.57547 19.9446 9.26402 21.5564 10.4675 22.7424C11.6711 23.9284 13.2929 24.5932 14.9826 24.5932C16.6722 24.5932 18.294 23.9284 19.4976 22.7424C20.7011 21.5564 21.3896 19.9446 21.4144 18.2551ZM22.7287 5.76433C22.7283 5.65585 22.6852 5.5519 22.6086 5.47506C22.532 5.39822 22.4282 5.35471 22.3197 5.35398H7.644C7.59011 5.35398 7.53675 5.36459 7.48696 5.38522C7.43718 5.40584 7.39194 5.43606 7.35383 5.47417C7.31573 5.51227 7.2855 5.55751 7.26488 5.6073C7.24426 5.65708 7.23364 5.71044 7.23364 5.76433V9.82625C7.23364 10.274 7.39723 10.7052 7.69113 11.0407L9.38662 12.9704C10.105 12.2073 10.9719 11.5991 11.934 11.1835C12.8961 10.7678 13.9331 10.5534 14.9812 10.5534C16.0292 10.5534 17.0662 10.7678 18.0283 11.1835C18.9905 11.5991 19.8574 12.2073 20.5757 12.9704L22.2712 11.0407C22.5665 10.7052 22.7287 10.274 22.7287 9.82625V5.76433Z" fill="#00FF94"/>
</svg>
