<svg width="23" height="23" viewBox="0 0 23 23" fill="none" xmlns="http://www.w3.org/2000/svg">
<path d="M22.127 3.96V10.188C22.127 10.4108 22.0385 10.6244 21.881 10.782C21.7235 10.9395 21.5098 11.028 21.287 11.028H19.78V9.357C19.7793 8.80559 19.5599 8.277 19.17 7.88709C18.78 7.49719 18.2515 7.27779 17.7 7.277H7.36605V3.96H22.126H22.127ZM22.127 1.689C22.127 1.46622 22.0385 1.25256 21.881 1.09503C21.7235 0.937499 21.5098 0.848999 21.287 0.848999H8.20705C7.98426 0.848999 7.77061 0.937499 7.61308 1.09503C7.45555 1.25256 7.36705 1.46622 7.36705 1.689V2.72H22.127V1.69V1.689ZM22.127 17.367C22.127 17.9951 22.0033 18.6171 21.763 19.1974C21.5226 19.7777 21.1703 20.3049 20.7261 20.7491C20.282 21.1932 19.7547 21.5455 19.1744 21.7859C18.5941 22.0263 17.9722 22.15 17.344 22.15C16.7159 22.15 16.094 22.0263 15.5137 21.7859C14.9334 21.5455 14.4061 21.1932 13.962 20.7491C13.5178 20.3049 13.1655 19.7777 12.9251 19.1974C12.6848 18.6171 12.561 17.9951 12.561 17.367C12.561 16.0985 13.065 14.8819 13.962 13.9849C14.8589 13.0879 16.0755 12.584 17.344 12.584C18.6126 12.584 19.8292 13.0879 20.7261 13.9849C21.6231 14.8819 22.127 16.0985 22.127 17.367ZM19.737 17.964C19.6286 17.6359 19.4195 17.3503 19.1394 17.1478C18.8594 16.9453 18.5226 16.8362 18.177 16.836L16.507 16.841H16.504C16.3601 16.8292 16.2258 16.7638 16.1278 16.6576C16.0298 16.5515 15.9752 16.4124 15.975 16.2679C15.9747 16.1235 16.0288 15.9842 16.1264 15.8777C16.224 15.7712 16.3581 15.7053 16.502 15.693L19.219 15.685C19.2526 15.6846 19.2846 15.6709 19.308 15.647C19.3197 15.6353 19.3288 15.6214 19.335 15.6061C19.3412 15.5908 19.3443 15.5745 19.344 15.558L19.342 14.752C19.3418 14.7186 19.3285 14.6867 19.305 14.663C19.2932 14.6514 19.2791 14.6422 19.2636 14.636C19.2482 14.6298 19.2317 14.6268 19.215 14.627L17.864 14.631L17.861 13.892C17.861 13.8754 17.8578 13.859 17.8513 13.8437C17.8449 13.8284 17.8356 13.8145 17.8237 13.8029C17.8119 13.7913 17.7979 13.7821 17.7825 13.7759C17.7671 13.7698 17.7506 13.7667 17.734 13.767L16.928 13.771C16.8948 13.7713 16.863 13.7847 16.8396 13.8083C16.8162 13.8319 16.803 13.8638 16.803 13.897L16.806 14.634H16.549C15.634 14.637 14.853 15.389 14.873 16.304C14.8827 16.7311 15.0595 17.1373 15.3654 17.4356C15.6712 17.7338 16.0819 17.9002 16.509 17.899L18.18 17.894C18.2554 17.8938 18.3301 17.9085 18.3998 17.9371C18.4695 17.9658 18.5329 18.0079 18.5864 18.0611C18.6398 18.1142 18.6823 18.1774 18.7113 18.247C18.7403 18.3165 18.7554 18.3911 18.7555 18.4665C18.7557 18.5419 18.7411 18.6166 18.7124 18.6863C18.6838 18.756 18.6416 18.8194 18.5885 18.8728C18.5353 18.9263 18.4722 18.9687 18.4026 18.9977C18.333 19.0268 18.2584 19.0418 18.183 19.042L15.513 19.05C15.4965 19.0499 15.48 19.053 15.4647 19.0593C15.4493 19.0656 15.4354 19.0749 15.4237 19.0866C15.4119 19.0983 15.4027 19.1123 15.3964 19.1276C15.3901 19.143 15.3869 19.1594 15.387 19.176L15.389 19.983C15.3892 19.9995 15.3926 20.0159 15.399 20.0311C15.4055 20.0464 15.4149 20.0602 15.4267 20.0718C15.4385 20.0834 15.4524 20.0926 15.4678 20.0988C15.4831 20.105 15.4995 20.1081 15.516 20.108L16.822 20.104L16.826 20.842C16.826 20.8585 16.8293 20.8748 16.8357 20.8901C16.842 20.9053 16.8513 20.9191 16.863 20.9307C16.8747 20.9424 16.8886 20.9515 16.9039 20.9578C16.9192 20.964 16.9355 20.9671 16.952 20.967L17.758 20.964C17.7746 20.9641 17.791 20.9609 17.8063 20.9545C17.8216 20.9481 17.8354 20.9388 17.847 20.927C17.8701 20.9031 17.883 20.8712 17.883 20.838L17.88 20.101H18.187C18.444 20.0994 18.6971 20.0374 18.9256 19.9199C19.1542 19.8024 19.352 19.6328 19.5029 19.4248C19.6538 19.2167 19.7536 18.9761 19.7943 18.7223C19.8349 18.4686 19.8153 18.2088 19.737 17.964ZM11.249 16.989H4.81605C4.61499 16.3549 4.26451 15.7783 3.79412 15.3079C3.32372 14.8375 2.74718 14.4871 2.11305 14.286V12.46C2.74718 12.2589 3.32372 11.9085 3.79412 11.4381C4.26451 10.9677 4.61499 10.3911 4.81605 9.757H14.598C14.807 10.417 15.178 11.014 15.678 11.493C16.6097 11.2277 17.5912 11.1886 18.541 11.379V9.357C18.541 9.13422 18.4525 8.92056 18.295 8.76303C18.1375 8.6055 17.9238 8.517 17.701 8.517H1.71305C1.49027 8.517 1.27661 8.6055 1.11908 8.76303C0.961547 8.92056 0.873047 9.13422 0.873047 9.357V17.389C0.873047 17.6118 0.961547 17.8254 1.11908 17.983C1.27661 18.1405 1.49027 18.229 1.71305 18.229H11.298C11.2397 17.8184 11.2233 17.4029 11.249 16.989ZM12.215 13.373C12.215 14.0382 11.9508 14.6761 11.4805 15.1464C11.0101 15.6168 10.3722 15.881 9.70705 15.881C9.04188 15.881 8.40396 15.6168 7.93362 15.1464C7.46328 14.6761 7.19905 14.0382 7.19905 13.373C7.19905 12.7078 7.46328 12.0699 7.93362 11.5996C8.40396 11.1292 9.04188 10.865 9.70705 10.865C10.3722 10.865 11.0101 11.1292 11.4805 11.5996C11.9508 12.0699 12.215 12.7078 12.215 13.373Z" fill="#6F7174"/>
</svg>
