<svg width="17" height="17" viewBox="0 0 17 17" fill="none" xmlns="http://www.w3.org/2000/svg">
<path d="M8.115 16.23C12.5968 16.23 16.23 12.5968 16.23 8.115C16.23 3.63321 12.5968 0 8.115 0C3.63321 0 0 3.63321 0 8.115C0 12.5968 3.63321 16.23 8.115 16.23Z" fill="white"/>
<path d="M6.58841 11.9573C6.58841 12.0788 6.62441 12.1988 6.69116 12.3L7.01741 12.7973C7.07275 12.8818 7.14813 12.9514 7.23684 12.9998C7.32555 13.0482 7.42485 13.074 7.52591 13.0748H8.70491C8.80613 13.0749 8.90575 13.0495 8.99461 13.001C9.08347 12.9525 9.15871 12.8824 9.21341 12.7973L9.53966 12.3C9.60651 12.1982 9.64222 12.0791 9.64241 11.9573V11.2148H6.58841V11.9573ZM4.75391 6.56477C4.75391 7.42502 5.06891 8.20877 5.58641 8.80802C5.90141 9.17327 6.39491 9.93602 6.58316 10.5795L6.58541 10.5945H9.64541L9.64766 10.5795C9.83516 9.93602 10.3294 9.17327 10.6452 8.80802C11.1834 8.18506 11.4787 7.38879 11.4769 6.56552C11.4769 4.67852 9.96641 3.15002 8.10491 3.15602C6.15641 3.16202 4.75391 4.76252 4.75391 6.56477ZM8.11541 5.01602C7.27316 5.01602 6.58766 5.71127 6.58766 6.56627C6.58795 6.60672 6.58027 6.64682 6.56504 6.68429C6.54981 6.72176 6.52734 6.75586 6.49892 6.78463C6.47049 6.81341 6.43667 6.83629 6.39939 6.85197C6.36211 6.86765 6.3221 6.87583 6.28166 6.87602C6.24127 6.87573 6.20135 6.86748 6.16415 6.85176C6.12696 6.83603 6.09322 6.81313 6.06488 6.78437C6.03653 6.75561 6.01413 6.72154 5.99895 6.68412C5.98377 6.6467 5.97611 6.60666 5.97641 6.56627C5.97641 5.36927 6.93641 4.39652 8.11541 4.39652C8.15579 4.39682 8.19572 4.40506 8.23291 4.42079C8.27011 4.43652 8.30384 4.45941 8.33219 4.48818C8.36053 4.51694 8.38293 4.551 8.39811 4.58843C8.41329 4.62585 8.42095 4.66589 8.42066 4.70627C8.42095 4.74666 8.41329 4.7867 8.39811 4.82412C8.38293 4.86154 8.36053 4.89561 8.33219 4.92437C8.30384 4.95313 8.27011 4.97603 8.23291 4.99176C8.19572 5.00748 8.15579 5.01573 8.11541 5.01602Z" fill="#720E8B"/>
</svg>
