<svg width="144" height="78" viewBox="0 0 144 78" fill="none" xmlns="http://www.w3.org/2000/svg">
<g filter="url(#filter0_d)">
<path d="M45.04 39.4492H47.8683C47.797 40.6568 47.4794 41.8372 46.935 42.9175L44.4892 41.505C44.7922 40.8575 44.9784 40.1615 45.0392 39.4492H45.04ZM42.4667 43.9033L43.8792 46.3492C44.8878 45.6832 45.7512 44.8201 46.4175 43.8117L43.9717 42.3992C43.5621 42.9849 43.0526 43.4941 42.4667 43.9033ZM41.5725 44.4208C40.9251 44.7245 40.2291 44.9113 39.5167 44.9725V47.8008C40.7243 47.7296 41.9047 47.412 42.985 46.8675L41.6808 44.6092L41.5725 44.4208ZM34.0283 42.4L31.5833 43.8117C32.2494 44.82 33.1125 45.6832 34.1208 46.3492L35.5333 43.9042C34.9473 43.4947 34.4378 42.9852 34.0283 42.3992V42.4ZM36.3192 44.61L35.015 46.8683C36.0953 47.4128 37.2757 47.7304 38.4833 47.8017V44.9733C37.7709 44.9121 37.0749 44.7254 36.4275 44.4217L36.3192 44.61ZM47.875 31V38.4167H44.545C44.4771 38.4167 44.41 38.43 44.3473 38.456C44.2846 38.482 44.2276 38.52 44.1797 38.568C44.1317 38.616 44.0936 38.6729 44.0677 38.7356C44.0417 38.7983 44.0283 38.8655 44.0283 38.9333C44.028 39.8159 43.7955 40.6828 43.3542 41.447C42.9129 42.2113 42.2783 42.846 41.5142 43.2875C40.75 43.7292 39.883 43.9617 39.0004 43.9617C38.1178 43.9617 37.2508 43.7292 36.4867 43.2875H36.4858C35.7217 42.846 35.0871 42.2113 34.6458 41.447C34.2045 40.6828 33.972 39.8159 33.9717 38.9333C33.9717 38.7963 33.9172 38.6649 33.8203 38.568C33.7234 38.4711 33.592 38.4167 33.455 38.4167H30.125V31C30.125 30.7878 30.2093 30.5844 30.3593 30.4343C30.5093 30.2843 30.7128 30.2 30.925 30.2H33.6642C33.7746 30.2002 33.8838 30.2232 33.985 30.2677C34.0861 30.3121 34.1769 30.3771 34.2517 30.4583L35.4875 31.7958C35.5624 31.877 35.6532 31.9417 35.7543 31.9861C35.8554 32.0304 35.9646 32.0533 36.075 32.0533H41.925C42.0354 32.0533 42.1446 32.0304 42.2457 31.9861C42.3468 31.9417 42.4376 31.877 42.5125 31.7958L43.7483 30.4575C43.8232 30.3764 43.914 30.3116 44.0151 30.2673C44.1163 30.223 44.2254 30.2001 44.3358 30.2H47.075C47.2872 30.2 47.4907 30.2843 47.6407 30.4343C47.7907 30.5844 47.875 30.7878 47.875 31ZM36.3558 36.7167L36.355 33.7517C36.355 33.681 36.3269 33.6131 36.2769 33.5631C36.2269 33.5131 36.1591 33.485 36.0883 33.485H34.0608C33.9902 33.4852 33.9225 33.5134 33.8725 33.5634C33.8226 33.6133 33.7944 33.681 33.7942 33.7517V36.7183C33.7944 36.7891 33.8227 36.857 33.8728 36.907C33.923 36.9569 33.9909 36.985 34.0617 36.985L36.0875 36.9842C36.1583 36.984 36.2261 36.9557 36.2761 36.9055C36.3261 36.8554 36.3542 36.7875 36.3542 36.7167H36.3558ZM39.5167 34.2417C39.5167 34.1047 39.4622 33.9732 39.3653 33.8763C39.2684 33.7794 39.137 33.725 39 33.725C38.863 33.725 38.7316 33.7794 38.6347 33.8763C38.5378 33.9732 38.4833 34.1047 38.4833 34.2417V36.1917C38.4833 36.3287 38.5378 36.4601 38.6347 36.557C38.7316 36.6539 38.863 36.7083 39 36.7083C39.137 36.7083 39.2684 36.6539 39.3653 36.557C39.4622 36.4601 39.5167 36.3287 39.5167 36.1917V34.2417ZM44.1567 36.8158L44.1558 33.8508C44.1558 33.8158 44.1489 33.7812 44.1355 33.7488C44.1221 33.7164 44.1025 33.687 44.0777 33.6623C44.053 33.6375 44.0236 33.6179 43.9912 33.6045C43.9589 33.5911 43.9242 33.5842 43.8892 33.5842H41.8625C41.7919 33.5846 41.7243 33.6129 41.6744 33.6628C41.6245 33.7127 41.5963 33.7803 41.5958 33.8508V36.8175C41.5963 36.8882 41.6246 36.9559 41.6747 37.0059C41.7248 37.0558 41.7926 37.084 41.8633 37.0842L43.8892 37.0833C43.9243 37.0833 43.959 37.0764 43.9914 37.063C44.0238 37.0495 44.0533 37.0298 44.078 37.0049C44.1028 36.9801 44.1224 36.9506 44.1358 36.9182C44.1491 36.8857 44.1559 36.8509 44.1558 36.8158H44.1567ZM32.96 39.4492H30.1317C30.2033 40.6567 30.5208 41.8367 31.065 42.9175L33.5117 41.505C33.2081 40.8576 33.0213 40.1616 32.96 39.4492Z" fill="#00FFA9"/>
</g>
<path d="M59.8672 43V34.4688H62.791C63.7559 34.4688 64.4902 34.6621 64.9941 35.0488C65.498 35.4355 65.75 36.0117 65.75 36.7773C65.75 37.168 65.6445 37.5195 65.4336 37.832C65.2227 38.1445 64.9141 38.3867 64.5078 38.5586C64.9688 38.6836 65.3242 38.9199 65.5742 39.2676C65.8281 39.6113 65.9551 40.0254 65.9551 40.5098C65.9551 41.3105 65.6973 41.9258 65.1816 42.3555C64.6699 42.7852 63.9355 43 62.9785 43H59.8672ZM61.3496 39.1504V41.8164H62.9961C63.4609 41.8164 63.8242 41.7012 64.0859 41.4707C64.3477 41.2402 64.4785 40.9199 64.4785 40.5098C64.4785 39.623 64.0254 39.1699 63.1191 39.1504H61.3496ZM61.3496 38.0605H62.8027C63.2637 38.0605 63.623 37.957 63.8809 37.75C64.1426 37.5391 64.2734 37.2422 64.2734 36.8594C64.2734 36.4375 64.1523 36.1328 63.9102 35.9453C63.6719 35.7578 63.2988 35.6641 62.791 35.6641H61.3496V38.0605ZM71.0879 43C71.0254 42.8789 70.9707 42.6816 70.9238 42.4082C70.4707 42.8809 69.916 43.1172 69.2598 43.1172C68.623 43.1172 68.1035 42.9355 67.7012 42.5723C67.2988 42.209 67.0977 41.7598 67.0977 41.2246C67.0977 40.5488 67.3477 40.0312 67.8477 39.6719C68.3516 39.3086 69.0703 39.127 70.0039 39.127H70.877V38.7109C70.877 38.3828 70.7852 38.1211 70.6016 37.9258C70.418 37.7266 70.1387 37.627 69.7637 37.627C69.4395 37.627 69.1738 37.709 68.9668 37.873C68.7598 38.0332 68.6562 38.2383 68.6562 38.4883H67.2324C67.2324 38.1406 67.3477 37.8164 67.5781 37.5156C67.8086 37.2109 68.1211 36.9727 68.5156 36.8008C68.9141 36.6289 69.3574 36.543 69.8457 36.543C70.5879 36.543 71.1797 36.7305 71.6211 37.1055C72.0625 37.4766 72.2891 38 72.3008 38.6758V41.5352C72.3008 42.1055 72.3809 42.5605 72.541 42.9004V43H71.0879ZM69.5234 41.9746C69.8047 41.9746 70.0684 41.9062 70.3145 41.7695C70.5645 41.6328 70.752 41.4492 70.877 41.2188V40.0234H70.1094C69.582 40.0234 69.1855 40.1152 68.9199 40.2988C68.6543 40.4824 68.5215 40.7422 68.5215 41.0781C68.5215 41.3516 68.6113 41.5703 68.791 41.7344C68.9746 41.8945 69.2188 41.9746 69.5234 41.9746ZM76.3965 41.9805C76.752 41.9805 77.0469 41.877 77.2812 41.6699C77.5156 41.4629 77.6406 41.207 77.6562 40.9023H78.998C78.9824 41.2969 78.8594 41.666 78.6289 42.0098C78.3984 42.3496 78.0859 42.6191 77.6914 42.8184C77.2969 43.0176 76.8711 43.1172 76.4141 43.1172C75.5273 43.1172 74.8242 42.8301 74.3047 42.2559C73.7852 41.6816 73.5254 40.8887 73.5254 39.877V39.7305C73.5254 38.7656 73.7832 37.9941 74.2988 37.416C74.8145 36.834 75.5176 36.543 76.4082 36.543C77.1621 36.543 77.7754 36.7637 78.248 37.2051C78.7246 37.6426 78.9746 38.2188 78.998 38.9336H77.6562C77.6406 38.5703 77.5156 38.2715 77.2812 38.0371C77.0508 37.8027 76.7559 37.6855 76.3965 37.6855C75.9355 37.6855 75.5801 37.8535 75.3301 38.1895C75.0801 38.5215 74.9531 39.0273 74.9492 39.707V39.9355C74.9492 40.623 75.0723 41.1367 75.3184 41.4766C75.5684 41.8125 75.9277 41.9805 76.3965 41.9805ZM82.6777 41.9805C83.0332 41.9805 83.3281 41.877 83.5625 41.6699C83.7969 41.4629 83.9219 41.207 83.9375 40.9023H85.2793C85.2637 41.2969 85.1406 41.666 84.9102 42.0098C84.6797 42.3496 84.3672 42.6191 83.9727 42.8184C83.5781 43.0176 83.1523 43.1172 82.6953 43.1172C81.8086 43.1172 81.1055 42.8301 80.5859 42.2559C80.0664 41.6816 79.8066 40.8887 79.8066 39.877V39.7305C79.8066 38.7656 80.0645 37.9941 80.5801 37.416C81.0957 36.834 81.7988 36.543 82.6895 36.543C83.4434 36.543 84.0566 36.7637 84.5293 37.2051C85.0059 37.6426 85.2559 38.2188 85.2793 38.9336H83.9375C83.9219 38.5703 83.7969 38.2715 83.5625 38.0371C83.332 37.8027 83.0371 37.6855 82.6777 37.6855C82.2168 37.6855 81.8613 37.8535 81.6113 38.1895C81.3613 38.5215 81.2344 39.0273 81.2305 39.707V39.9355C81.2305 40.623 81.3535 41.1367 81.5996 41.4766C81.8496 41.8125 82.209 41.9805 82.6777 41.9805ZM90.1426 43C90.0801 42.8789 90.0254 42.6816 89.9785 42.4082C89.5254 42.8809 88.9707 43.1172 88.3145 43.1172C87.6777 43.1172 87.1582 42.9355 86.7559 42.5723C86.3535 42.209 86.1523 41.7598 86.1523 41.2246C86.1523 40.5488 86.4023 40.0312 86.9023 39.6719C87.4062 39.3086 88.125 39.127 89.0586 39.127H89.9316V38.7109C89.9316 38.3828 89.8398 38.1211 89.6562 37.9258C89.4727 37.7266 89.1934 37.627 88.8184 37.627C88.4941 37.627 88.2285 37.709 88.0215 37.873C87.8145 38.0332 87.7109 38.2383 87.7109 38.4883H86.2871C86.2871 38.1406 86.4023 37.8164 86.6328 37.5156C86.8633 37.2109 87.1758 36.9727 87.5703 36.8008C87.9688 36.6289 88.4121 36.543 88.9004 36.543C89.6426 36.543 90.2344 36.7305 90.6758 37.1055C91.1172 37.4766 91.3438 38 91.3555 38.6758V41.5352C91.3555 42.1055 91.4355 42.5605 91.5957 42.9004V43H90.1426ZM88.5781 41.9746C88.8594 41.9746 89.123 41.9062 89.3691 41.7695C89.6191 41.6328 89.8066 41.4492 89.9316 41.2188V40.0234H89.1641C88.6367 40.0234 88.2402 40.1152 87.9746 40.2988C87.709 40.4824 87.5762 40.7422 87.5762 41.0781C87.5762 41.3516 87.666 41.5703 87.8457 41.7344C88.0293 41.8945 88.2734 41.9746 88.5781 41.9746ZM96.166 37.9609C95.9785 37.9297 95.7852 37.9141 95.5859 37.9141C94.9336 37.9141 94.4941 38.1641 94.2676 38.6641V43H92.8438V36.6602H94.2031L94.2383 37.3691C94.582 36.8184 95.0586 36.543 95.668 36.543C95.8711 36.543 96.0391 36.5703 96.1719 36.625L96.166 37.9609ZM100.678 43C100.615 42.8789 100.561 42.6816 100.514 42.4082C100.061 42.8809 99.5059 43.1172 98.8496 43.1172C98.2129 43.1172 97.6934 42.9355 97.291 42.5723C96.8887 42.209 96.6875 41.7598 96.6875 41.2246C96.6875 40.5488 96.9375 40.0312 97.4375 39.6719C97.9414 39.3086 98.6602 39.127 99.5938 39.127H100.467V38.7109C100.467 38.3828 100.375 38.1211 100.191 37.9258C100.008 37.7266 99.7285 37.627 99.3535 37.627C99.0293 37.627 98.7637 37.709 98.5566 37.873C98.3496 38.0332 98.2461 38.2383 98.2461 38.4883H96.8223C96.8223 38.1406 96.9375 37.8164 97.168 37.5156C97.3984 37.2109 97.7109 36.9727 98.1055 36.8008C98.5039 36.6289 98.9473 36.543 99.4355 36.543C100.178 36.543 100.77 36.7305 101.211 37.1055C101.652 37.4766 101.879 38 101.891 38.6758V41.5352C101.891 42.1055 101.971 42.5605 102.131 42.9004V43H100.678ZM99.1133 41.9746C99.3945 41.9746 99.6582 41.9062 99.9043 41.7695C100.154 41.6328 100.342 41.4492 100.467 41.2188V40.0234H99.6992C99.1719 40.0234 98.7754 40.1152 98.5098 40.2988C98.2441 40.4824 98.1113 40.7422 98.1113 41.0781C98.1113 41.3516 98.2012 41.5703 98.3809 41.7344C98.5645 41.8945 98.8086 41.9746 99.1133 41.9746ZM105.166 35.1191V36.6602H106.285V37.7148H105.166V41.2539C105.166 41.4961 105.213 41.6719 105.307 41.7812C105.404 41.8867 105.576 41.9395 105.822 41.9395C105.986 41.9395 106.152 41.9199 106.32 41.8809V42.9824C105.996 43.0723 105.684 43.1172 105.383 43.1172C104.289 43.1172 103.742 42.5137 103.742 41.3066V37.7148H102.699V36.6602H103.742V35.1191H105.166Z" fill="white"/>
<defs>
<filter id="filter0_d" x="-1" y="-1" width="80" height="80" filterUnits="userSpaceOnUse" color-interpolation-filters="sRGB">
<feFlood flood-opacity="0" result="BackgroundImageFix"/>
<feColorMatrix in="SourceAlpha" type="matrix" values="0 0 0 0 0 0 0 0 0 0 0 0 0 0 0 0 0 0 127 0"/>
<feOffset/>
<feGaussianBlur stdDeviation="15"/>
<feColorMatrix type="matrix" values="0 0 0 0 0.00392157 0 0 0 0 0.690196 0 0 0 0 0.458824 0 0 0 0.3 0"/>
<feBlend mode="normal" in2="BackgroundImageFix" result="effect1_dropShadow"/>
<feBlend mode="normal" in="SourceGraphic" in2="effect1_dropShadow" result="shape"/>
</filter>
</defs>
</svg>
