<svg width="145" height="80" viewBox="0 0 145 80" fill="none" xmlns="http://www.w3.org/2000/svg">
<g filter="url(#filter0_d)">
<path d="M48.3167 30.9833H31.6834C31.4977 30.9833 31.3197 31.0571 31.1884 31.1884C31.0571 31.3196 30.9834 31.4977 30.9834 31.6833V48.3167C30.9834 48.5023 31.0571 48.6804 31.1884 48.8116C31.3197 48.9429 31.4977 49.0167 31.6834 49.0167H48.3167C48.5024 49.0167 48.6804 48.9429 48.8117 48.8116C48.943 48.6804 49.0167 48.5023 49.0167 48.3167V31.6833C49.0167 31.4977 48.943 31.3196 48.8117 31.1884C48.6804 31.0571 48.5024 30.9833 48.3167 30.9833ZM36.8709 46.8192C36.8709 46.8891 36.8432 46.9562 36.7938 47.0057C36.7445 47.0552 36.6775 47.0831 36.6076 47.0833H33.1817C33.147 47.0834 33.1126 47.0767 33.0805 47.0635C33.0484 47.0502 33.0192 47.0308 32.9947 47.0062C32.9701 46.9817 32.9507 46.9525 32.9374 46.9204C32.9242 46.8883 32.9175 46.8539 32.9176 46.8192V43.3933C32.9176 43.3233 32.9454 43.2561 32.9949 43.2065C33.0445 43.157 33.1117 43.1292 33.1817 43.1292H36.6084C36.6783 43.1294 36.7453 43.1573 36.7947 43.2068C36.844 43.2564 36.8717 43.3234 36.8717 43.3933V46.8192H36.8709ZM36.8709 41.7142C36.8709 41.7841 36.8432 41.8512 36.7938 41.9007C36.7445 41.9502 36.6775 41.9781 36.6076 41.9783H33.1817C33.1117 41.9783 33.0445 41.9505 32.9949 41.901C32.9454 41.8514 32.9176 41.7842 32.9176 41.7142V38.2867C32.9176 38.2166 32.9454 38.1494 32.9949 38.0999C33.0445 38.0503 33.1117 38.0225 33.1817 38.0225H36.6084C36.6783 38.0227 36.7453 38.0507 36.7947 38.1002C36.844 38.1497 36.8717 38.2168 36.8717 38.2867V41.7133L36.8709 41.7142ZM36.8709 36.6092C36.8709 36.6791 36.8432 36.7462 36.7938 36.7957C36.7445 36.8452 36.6775 36.8731 36.6076 36.8733H33.1817C33.1117 36.8733 33.0445 36.8455 32.9949 36.796C32.9454 36.7464 32.9176 36.6792 32.9176 36.6092V33.1817C32.9176 33.1116 32.9454 33.0444 32.9949 32.9949C33.0445 32.9453 33.1117 32.9175 33.1817 32.9175H36.6084C36.6783 32.9177 36.7453 32.9457 36.7947 32.9952C36.844 33.0447 36.8717 33.1118 36.8717 33.1817V36.6083L36.8709 36.6092ZM41.9767 46.8192C41.9767 46.8892 41.9489 46.9564 41.8994 47.006C41.8498 47.0555 41.7826 47.0833 41.7126 47.0833H38.2867C38.252 47.0834 38.2176 47.0767 38.1855 47.0635C38.1534 47.0502 38.1242 47.0308 38.0997 47.0062C38.0751 46.9817 38.0557 46.9525 38.0424 46.9204C38.0292 46.8883 38.0225 46.8539 38.0226 46.8192V43.3933C38.0226 43.3233 38.0504 43.2561 38.0999 43.2065C38.1495 43.157 38.2167 43.1292 38.2867 43.1292H41.7134C41.7835 43.1292 41.8507 43.157 41.9002 43.2065C41.9497 43.2561 41.9776 43.3233 41.9776 43.3933V46.8192H41.9767ZM41.9767 41.7142C41.9767 41.7842 41.9489 41.8514 41.8994 41.901C41.8498 41.9505 41.7826 41.9783 41.7126 41.9783H38.2867C38.2168 41.9781 38.1498 41.9502 38.1005 41.9007C38.0511 41.8512 38.0234 41.7841 38.0234 41.7142V38.2867C38.0234 38.2168 38.0511 38.1497 38.1005 38.1002C38.1498 38.0507 38.2168 38.0227 38.2867 38.0225H41.7134C41.7835 38.0225 41.8507 38.0503 41.9002 38.0999C41.9497 38.1494 41.9776 38.2166 41.9776 38.2867V41.7133L41.9767 41.7142ZM41.9767 36.6092C41.9767 36.6792 41.9489 36.7464 41.8994 36.796C41.8498 36.8455 41.7826 36.8733 41.7126 36.8733H38.2867C38.2167 36.8733 38.1495 36.8455 38.0999 36.796C38.0504 36.7464 38.0226 36.6792 38.0226 36.6092V33.1817C38.0226 33.1116 38.0504 33.0444 38.0999 32.9949C38.1495 32.9453 38.2167 32.9175 38.2867 32.9175H41.7134C41.7835 32.9175 41.8507 32.9453 41.9002 32.9949C41.9497 33.0444 41.9776 33.1116 41.9776 33.1817V36.6083L41.9767 36.6092ZM47.0817 46.8192C47.0817 46.8892 47.0539 46.9564 47.0044 47.006C46.9548 47.0555 46.8876 47.0833 46.8176 47.0833H43.3917C43.3217 47.0833 43.2545 47.0555 43.2049 47.006C43.1554 46.9564 43.1276 46.8892 43.1276 46.8192V43.3933C43.1276 43.3234 43.1553 43.2564 43.2046 43.2068C43.254 43.1573 43.321 43.1294 43.3909 43.1292H46.8176C46.8875 43.1292 46.9545 43.1569 47.0041 43.2062C47.0536 43.2556 47.0815 43.3226 47.0817 43.3925V46.8192ZM47.0817 41.7142C47.0817 41.7842 47.0539 41.8514 47.0044 41.901C46.9548 41.9505 46.8876 41.9783 46.8176 41.9783H43.3917C43.3217 41.9783 43.2545 41.9505 43.2049 41.901C43.1554 41.8514 43.1276 41.7842 43.1276 41.7142V38.2875C43.1276 38.2176 43.1553 38.1505 43.2046 38.101C43.254 38.0515 43.321 38.0236 43.3909 38.0233H46.8176C46.8875 38.0233 46.9545 38.0511 47.0041 38.1004C47.0536 38.1498 47.0815 38.2168 47.0817 38.2867V41.7133V41.7142ZM47.0817 36.6092C47.0815 36.6791 47.0536 36.7461 47.0041 36.7954C46.9545 36.8448 46.8875 36.8725 46.8176 36.8725H43.3917C43.3218 36.8725 43.2547 36.8448 43.2052 36.7954C43.1557 36.7461 43.1278 36.6791 43.1276 36.6092V33.1817C43.1276 33.1118 43.1553 33.0447 43.2046 32.9952C43.254 32.9457 43.321 32.9177 43.3909 32.9175H46.8176C46.8876 32.9175 46.9548 32.9453 47.0044 32.9949C47.0539 33.0444 47.0817 33.1116 47.0817 33.1817V36.6083V36.6092ZM40.6884 40.6275C40.6711 40.6516 40.65 40.6727 40.6259 40.69C39.6792 41.365 38.6342 40.3217 39.3101 39.3742C39.3273 39.35 39.3484 39.3289 39.3726 39.3117C40.3201 38.6367 41.3642 39.6808 40.6892 40.6275H40.6884ZM35.5842 35.5217C35.567 35.5458 35.5458 35.5669 35.5217 35.5842C34.5742 36.2592 33.5301 35.215 34.2051 34.2675C34.2227 34.2436 34.2441 34.2228 34.2684 34.2058C35.2151 33.5308 36.2601 34.5742 35.5842 35.5217ZM35.5842 40.6267C35.567 40.6508 35.5459 40.6719 35.5217 40.6892C34.5742 41.3642 33.5301 40.3208 34.2051 39.3733C34.2226 39.3492 34.244 39.328 34.2684 39.3108C35.2151 38.6358 36.2601 39.68 35.5842 40.6267ZM45.7942 45.7317C45.7769 45.7558 45.7558 45.7769 45.7317 45.7942C44.7851 46.4692 43.7409 45.4258 44.4159 44.4792C44.4331 44.4547 44.4542 44.4333 44.4784 44.4158C45.4259 43.7408 46.4701 44.785 45.7951 45.7325L45.7942 45.7317ZM45.7942 35.5217C45.7769 35.5458 45.7558 35.5669 45.7317 35.5842C44.7851 36.2592 43.7409 35.215 44.4159 34.2675C44.4332 34.2437 44.4544 34.2229 44.4784 34.2058C45.4259 33.5308 46.4701 34.5742 45.7951 35.5217H45.7942Z" fill="#00FFA9"/>
</g>
<path d="M60.8672 44V35.4688H63.791C64.7559 35.4688 65.4902 35.6621 65.9941 36.0488C66.498 36.4355 66.75 37.0117 66.75 37.7773C66.75 38.168 66.6445 38.5195 66.4336 38.832C66.2227 39.1445 65.9141 39.3867 65.5078 39.5586C65.9688 39.6836 66.3242 39.9199 66.5742 40.2676C66.8281 40.6113 66.9551 41.0254 66.9551 41.5098C66.9551 42.3105 66.6973 42.9258 66.1816 43.3555C65.6699 43.7852 64.9355 44 63.9785 44H60.8672ZM62.3496 40.1504V42.8164H63.9961C64.4609 42.8164 64.8242 42.7012 65.0859 42.4707C65.3477 42.2402 65.4785 41.9199 65.4785 41.5098C65.4785 40.623 65.0254 40.1699 64.1191 40.1504H62.3496ZM62.3496 39.0605H63.8027C64.2637 39.0605 64.623 38.957 64.8809 38.75C65.1426 38.5391 65.2734 38.2422 65.2734 37.8594C65.2734 37.4375 65.1523 37.1328 64.9102 36.9453C64.6719 36.7578 64.2988 36.6641 63.791 36.6641H62.3496V39.0605ZM69.8145 44H68.3906V37.6602H69.8145V44ZM68.3027 36.0137C68.3027 35.7949 68.3711 35.6133 68.5078 35.4688C68.6484 35.3242 68.8477 35.252 69.1055 35.252C69.3633 35.252 69.5625 35.3242 69.7031 35.4688C69.8438 35.6133 69.9141 35.7949 69.9141 36.0137C69.9141 36.2285 69.8438 36.4082 69.7031 36.5527C69.5625 36.6934 69.3633 36.7637 69.1055 36.7637C68.8477 36.7637 68.6484 36.6934 68.5078 36.5527C68.3711 36.4082 68.3027 36.2285 68.3027 36.0137ZM72.6914 37.6602L72.7324 38.3926C73.2012 37.8262 73.8164 37.543 74.5781 37.543C75.8984 37.543 76.5703 38.2988 76.5938 39.8105V44H75.1699V39.8926C75.1699 39.4902 75.082 39.1934 74.9062 39.002C74.7344 38.8066 74.4512 38.709 74.0566 38.709C73.4824 38.709 73.0547 38.9688 72.7734 39.4883V44H71.3496V37.6602H72.6914ZM77.8008 40.7832C77.8008 39.7988 78.0312 39.0137 78.4922 38.4277C78.957 37.8379 79.5723 37.543 80.3379 37.543C81.0605 37.543 81.6289 37.7949 82.043 38.2988L82.1074 37.6602H83.3906V43.8066C83.3906 44.6387 83.1309 45.2949 82.6113 45.7754C82.0957 46.2559 81.3984 46.4961 80.5195 46.4961C80.0547 46.4961 79.5996 46.3984 79.1543 46.2031C78.7129 46.0117 78.377 45.7598 78.1465 45.4473L78.8203 44.5918C79.2578 45.1113 79.7969 45.3711 80.4375 45.3711C80.9102 45.3711 81.2832 45.2422 81.5566 44.9844C81.8301 44.7305 81.9668 44.3555 81.9668 43.8594V43.4316C81.5566 43.8887 81.0098 44.1172 80.3262 44.1172C79.584 44.1172 78.9766 43.8223 78.5039 43.2324C78.0352 42.6426 77.8008 41.8262 77.8008 40.7832ZM79.2188 40.9062C79.2188 41.543 79.3477 42.0449 79.6055 42.4121C79.8672 42.7754 80.2285 42.957 80.6895 42.957C81.2637 42.957 81.6895 42.7109 81.9668 42.2188V39.4297C81.6973 38.9492 81.2754 38.709 80.7012 38.709C80.2324 38.709 79.8672 38.8945 79.6055 39.2656C79.3477 39.6367 79.2188 40.1836 79.2188 40.9062ZM84.5918 40.7715C84.5918 40.1504 84.7148 39.5918 84.9609 39.0957C85.207 38.5957 85.5527 38.2129 85.998 37.9473C86.4434 37.6777 86.9551 37.543 87.5332 37.543C88.3887 37.543 89.082 37.8184 89.6133 38.3691C90.1484 38.9199 90.4375 39.6504 90.4805 40.5605L90.4863 40.8945C90.4863 41.5195 90.3652 42.0781 90.123 42.5703C89.8848 43.0625 89.541 43.4434 89.0918 43.7129C88.6465 43.9824 88.1309 44.1172 87.5449 44.1172C86.6504 44.1172 85.9336 43.8203 85.3945 43.2266C84.8594 42.6289 84.5918 41.834 84.5918 40.8418V40.7715ZM86.0156 40.8945C86.0156 41.5469 86.1504 42.0586 86.4199 42.4297C86.6895 42.7969 87.0645 42.9805 87.5449 42.9805C88.0254 42.9805 88.3984 42.793 88.6641 42.418C88.9336 42.043 89.0684 41.4941 89.0684 40.7715C89.0684 40.1309 88.9297 39.623 88.6523 39.248C88.3789 38.873 88.0059 38.6855 87.5332 38.6855C87.0684 38.6855 86.6992 38.8711 86.4258 39.2422C86.1523 39.6094 86.0156 40.1602 86.0156 40.8945Z" fill="white"/>
<defs>
<filter id="filter0_d" x="0" y="0" width="80" height="80" filterUnits="userSpaceOnUse" color-interpolation-filters="sRGB">
<feFlood flood-opacity="0" result="BackgroundImageFix"/>
<feColorMatrix in="SourceAlpha" type="matrix" values="0 0 0 0 0 0 0 0 0 0 0 0 0 0 0 0 0 0 127 0"/>
<feOffset/>
<feGaussianBlur stdDeviation="15"/>
<feColorMatrix type="matrix" values="0 0 0 0 0.00392157 0 0 0 0 0.690196 0 0 0 0 0.458824 0 0 0 0.3 0"/>
<feBlend mode="normal" in2="BackgroundImageFix" result="effect1_dropShadow"/>
<feBlend mode="normal" in="SourceGraphic" in2="effect1_dropShadow" result="shape"/>
</filter>
</defs>
</svg>
