<svg width="145" height="78" viewBox="0 0 145 78" fill="none" xmlns="http://www.w3.org/2000/svg">
<g filter="url(#filter0_d)">
<path d="M49.4362 34.1158L41.3446 31.5425C41.2098 31.4992 41.065 31.498 40.9296 31.5391L41.4212 34.4266L42.1629 33.4816C42.1794 33.4605 42.202 33.4449 42.2276 33.437C42.2532 33.4291 42.2807 33.4293 42.3062 33.4375L42.7012 33.5625C42.7269 33.5705 42.7495 33.5863 42.7659 33.6076C42.7823 33.6289 42.7917 33.6548 42.7929 33.6816L42.8846 35.5925C42.8855 35.6135 42.8814 35.6345 42.8726 35.6536C42.8637 35.6727 42.8504 35.6894 42.8337 35.7022C42.817 35.715 42.7974 35.7237 42.7767 35.7273C42.756 35.731 42.7347 35.7296 42.7146 35.7233L42.2179 35.565C42.1924 35.557 42.1699 35.5414 42.1535 35.5202C42.1371 35.4991 42.1276 35.4734 42.1262 35.4466L42.1137 35.1783L41.8504 35.095L41.6837 35.3066C41.6714 35.3224 41.6555 35.3351 41.6375 35.3438C41.6194 35.3524 41.5996 35.3568 41.5796 35.3566L41.9612 37.5983C42.5337 37.2572 43.1507 36.9969 43.7946 36.825C43.8999 36.7958 44.0115 36.7982 44.1154 36.8318C44.2194 36.8654 44.3113 36.9288 44.3796 37.0141C44.8912 37.6516 46.0271 39.265 45.5571 40.5091C45.3496 41.0583 44.6654 41.4608 44.0846 41.375C43.7995 41.3346 43.5342 41.2057 43.3262 41.0066C43.3109 40.9909 43.2911 40.9802 43.2695 40.9759C43.2479 40.9717 43.2256 40.9741 43.2054 40.9829C43.1852 40.9916 43.1682 41.0063 43.1566 41.025C43.145 41.0437 43.1393 41.0655 43.1404 41.0875C43.1579 41.3691 43.2154 41.6458 43.3087 41.9125C43.3176 41.9378 43.3192 41.9651 43.3133 41.9913C43.3075 42.0175 43.2944 42.0415 43.2755 42.0606C43.2567 42.0797 43.2329 42.0931 43.2068 42.0993C43.1807 42.1056 43.1533 42.1043 43.1279 42.0958L42.7046 41.9583L42.9379 43.3333C43.0145 43.7863 42.9084 44.2512 42.6428 44.626C42.3773 45.0009 41.974 45.2553 41.5212 45.3333L39.9987 45.5916L45.2554 47.2633C45.4323 47.3196 45.6243 47.3032 45.7892 47.2179C45.9541 47.1326 46.0783 46.9852 46.1346 46.8083L49.8912 34.995C49.9475 34.8181 49.9311 34.626 49.8458 34.4612C49.7605 34.2963 49.6132 34.1721 49.4362 34.1158ZM45.6179 43.8191L44.4362 45.3241C44.4198 45.3453 44.3972 45.3609 44.3715 45.3688C44.3459 45.3767 44.3184 45.3765 44.2929 45.3683L43.8979 45.2433C43.8722 45.2353 43.8496 45.2195 43.8332 45.1982C43.8168 45.1769 43.8074 45.151 43.8062 45.1241L43.7146 43.2133C43.7135 43.1922 43.7177 43.1711 43.7266 43.1519C43.7355 43.1327 43.7489 43.116 43.7657 43.1031C43.7825 43.0903 43.8022 43.0817 43.823 43.0781C43.8439 43.0745 43.8653 43.076 43.8854 43.0825L44.3812 43.2408C44.4068 43.2488 44.4293 43.2644 44.4457 43.2856C44.4621 43.3067 44.4716 43.3324 44.4729 43.3591L44.4854 43.6275L44.7496 43.7108L44.9162 43.4991C44.9327 43.4784 44.9551 43.4632 44.9803 43.4555C45.0056 43.4478 45.0327 43.4479 45.0579 43.4558L45.5546 43.6141C45.5848 43.6239 45.6106 43.6443 45.6269 43.6716C45.6433 43.6989 45.6493 43.7311 45.6437 43.7625C45.64 43.7831 45.6315 43.8025 45.6187 43.8191H45.6179ZM41.9196 43.5066L39.8379 31.2858C39.8225 31.1951 39.7893 31.1084 39.7403 31.0305C39.6913 30.9526 39.6275 30.8852 39.5524 30.832C39.4773 30.7788 39.3925 30.741 39.3028 30.7206C39.2131 30.7003 39.1202 30.6978 39.0296 30.7133L30.6587 32.1391C30.568 32.1546 30.4813 32.1877 30.4034 32.2367C30.3255 32.2857 30.2581 32.3496 30.2049 32.4246C30.1518 32.4997 30.1139 32.5845 30.0935 32.6742C30.0732 32.764 30.0707 32.8568 30.0862 32.9475L32.1687 45.1666C32.1999 45.3496 32.3025 45.5127 32.4539 45.6201C32.6054 45.7275 32.7932 45.7703 32.9762 45.7391L41.3471 44.3133C41.4378 44.2979 41.5245 44.2647 41.6024 44.2157C41.6802 44.1667 41.7477 44.1029 41.8009 44.0278C41.854 43.9527 41.8919 43.8679 41.9123 43.7782C41.9326 43.6885 41.9351 43.5956 41.9196 43.505V43.5066ZM31.9296 34.7241C31.924 34.69 31.9322 34.6551 31.9524 34.627C31.9725 34.5989 32.003 34.5799 32.0371 34.5741L32.5237 34.4908C32.5563 34.4852 32.5898 34.4928 32.6168 34.5119C32.6438 34.5309 32.6622 34.5599 32.6679 34.5925C32.6694 34.6021 32.6729 34.6113 32.6782 34.6195C32.6835 34.6277 32.6905 34.6347 32.6987 34.64C32.7087 34.646 32.7201 34.6491 32.7317 34.6488C32.7434 34.6486 32.7547 34.645 32.7643 34.6385C32.7739 34.632 32.7815 34.6229 32.7862 34.6122C32.7908 34.6015 32.7923 34.5898 32.7904 34.5783L32.5987 33.4566C32.5932 33.4225 32.6014 33.3876 32.6215 33.3595C32.6417 33.3314 32.6721 33.3124 32.7062 33.3066L33.1871 33.2233C33.2041 33.2205 33.2215 33.221 33.2383 33.2249C33.2551 33.2288 33.271 33.236 33.285 33.2461C33.2991 33.2561 33.3109 33.2689 33.32 33.2836C33.3291 33.2983 33.3352 33.3146 33.3379 33.3316L33.5296 34.4525C33.5648 34.6645 33.5148 34.8818 33.3903 35.057C33.2659 35.2322 33.0772 35.351 32.8654 35.3875C32.6535 35.423 32.4362 35.3733 32.2609 35.2492C32.0856 35.1251 31.9664 34.9366 31.9296 34.725V34.7241ZM39.5562 41.6016C39.1575 41.7241 38.7928 41.938 38.4911 42.2261C38.1895 42.5143 37.9593 42.8689 37.8187 43.2616C37.8039 43.3022 37.7786 43.3381 37.7454 43.3656C37.7121 43.3931 37.6722 43.4113 37.6296 43.4183L36.1879 43.6633C36.1453 43.671 36.1015 43.6672 36.0609 43.6522C36.0203 43.6373 35.9845 43.6118 35.9571 43.5783C35.6944 43.2542 35.3598 42.9957 34.9798 42.8236C34.5997 42.6514 34.1848 42.5703 33.7679 42.5866C33.6424 42.5907 33.518 42.5609 33.408 42.5002C33.298 42.4396 33.2064 42.3504 33.1429 42.242C33.0793 42.1337 33.0462 42.0102 33.0469 41.8846C33.0476 41.759 33.0822 41.6359 33.1471 41.5283L33.7621 40.5033C33.5473 39.984 33.439 39.4269 33.4437 38.865L32.5104 37.1583C32.4915 37.1239 32.4811 37.0854 32.4801 37.0462C32.4791 37.0069 32.4875 36.968 32.5047 36.9327C32.5218 36.8973 32.5472 36.8666 32.5786 36.8431C32.61 36.8196 32.6467 36.8039 32.6854 36.7975L38.6604 35.78C38.6989 35.7735 38.7384 35.7763 38.7756 35.7882C38.8128 35.8 38.8467 35.8206 38.8744 35.8481C38.9021 35.8756 38.9228 35.9093 38.9349 35.9465C38.9469 35.9836 38.95 36.0231 38.9437 36.0616L38.5687 38.3508L38.5729 38.355C38.7104 38.5083 39.0346 38.8691 38.9779 39.4025C38.9679 39.4941 38.9462 39.5833 38.9146 39.6691L39.7912 40.3958C39.8882 40.4759 39.9618 40.5807 40.0042 40.6991C40.0466 40.8175 40.0563 40.9451 40.0322 41.0686C40.0082 41.192 39.9512 41.3067 39.8675 41.4005C39.7837 41.4943 39.6762 41.5638 39.5562 41.6016ZM37.7712 39.5316C37.7195 39.5932 37.693 39.6721 37.6971 39.7525C37.7087 39.9425 37.7554 40.1291 37.7687 40.3191C37.7754 40.3597 37.7733 40.4011 37.7628 40.4408C37.7523 40.4805 37.7336 40.5175 37.7078 40.5495C37.682 40.5814 37.6497 40.6075 37.6131 40.6261C37.5765 40.6448 37.5364 40.6554 37.4954 40.6575C37.0752 40.6992 36.6511 40.6804 36.2362 40.6016C35.8529 41.2716 34.7971 41.2791 34.7971 41.2791C34.8254 41.1975 34.8454 41.1141 34.8587 41.0291C34.9287 40.6283 34.7671 40.2658 34.6421 39.8766C34.4892 39.4207 34.4405 38.9364 34.4996 38.4591L37.5329 37.9416C37.3979 38.3583 37.5362 38.7475 37.8037 39.0458C38.0154 39.2808 37.9937 39.3075 37.7712 39.5316Z" fill="#00FFA9"/>
</g>
<path d="M60.8672 43V34.4688H63.791C64.7559 34.4688 65.4902 34.6621 65.9941 35.0488C66.498 35.4355 66.75 36.0117 66.75 36.7773C66.75 37.168 66.6445 37.5195 66.4336 37.832C66.2227 38.1445 65.9141 38.3867 65.5078 38.5586C65.9688 38.6836 66.3242 38.9199 66.5742 39.2676C66.8281 39.6113 66.9551 40.0254 66.9551 40.5098C66.9551 41.3105 66.6973 41.9258 66.1816 42.3555C65.6699 42.7852 64.9355 43 63.9785 43H60.8672ZM62.3496 39.1504V41.8164H63.9961C64.4609 41.8164 64.8242 41.7012 65.0859 41.4707C65.3477 41.2402 65.4785 40.9199 65.4785 40.5098C65.4785 39.623 65.0254 39.1699 64.1191 39.1504H62.3496ZM62.3496 38.0605H63.8027C64.2637 38.0605 64.623 37.957 64.8809 37.75C65.1426 37.5391 65.2734 37.2422 65.2734 36.8594C65.2734 36.4375 65.1523 36.1328 64.9102 35.9453C64.6719 35.7578 64.2988 35.6641 63.791 35.6641H62.3496V38.0605ZM69.8145 43H68.3906V34H69.8145V43ZM75.1582 43C75.0957 42.8789 75.041 42.6816 74.9941 42.4082C74.541 42.8809 73.9863 43.1172 73.3301 43.1172C72.6934 43.1172 72.1738 42.9355 71.7715 42.5723C71.3691 42.209 71.168 41.7598 71.168 41.2246C71.168 40.5488 71.418 40.0312 71.918 39.6719C72.4219 39.3086 73.1406 39.127 74.0742 39.127H74.9473V38.7109C74.9473 38.3828 74.8555 38.1211 74.6719 37.9258C74.4883 37.7266 74.209 37.627 73.834 37.627C73.5098 37.627 73.2441 37.709 73.0371 37.873C72.8301 38.0332 72.7266 38.2383 72.7266 38.4883H71.3027C71.3027 38.1406 71.418 37.8164 71.6484 37.5156C71.8789 37.2109 72.1914 36.9727 72.5859 36.8008C72.9844 36.6289 73.4277 36.543 73.916 36.543C74.6582 36.543 75.25 36.7305 75.6914 37.1055C76.1328 37.4766 76.3594 38 76.3711 38.6758V41.5352C76.3711 42.1055 76.4512 42.5605 76.6113 42.9004V43H75.1582ZM73.5938 41.9746C73.875 41.9746 74.1387 41.9062 74.3848 41.7695C74.6348 41.6328 74.8223 41.4492 74.9473 41.2188V40.0234H74.1797C73.6523 40.0234 73.2559 40.1152 72.9902 40.2988C72.7246 40.4824 72.5918 40.7422 72.5918 41.0781C72.5918 41.3516 72.6816 41.5703 72.8613 41.7344C73.0449 41.8945 73.2891 41.9746 73.5938 41.9746ZM80.4668 41.9805C80.8223 41.9805 81.1172 41.877 81.3516 41.6699C81.5859 41.4629 81.7109 41.207 81.7266 40.9023H83.0684C83.0527 41.2969 82.9297 41.666 82.6992 42.0098C82.4688 42.3496 82.1562 42.6191 81.7617 42.8184C81.3672 43.0176 80.9414 43.1172 80.4844 43.1172C79.5977 43.1172 78.8945 42.8301 78.375 42.2559C77.8555 41.6816 77.5957 40.8887 77.5957 39.877V39.7305C77.5957 38.7656 77.8535 37.9941 78.3691 37.416C78.8848 36.834 79.5879 36.543 80.4785 36.543C81.2324 36.543 81.8457 36.7637 82.3184 37.2051C82.7949 37.6426 83.0449 38.2188 83.0684 38.9336H81.7266C81.7109 38.5703 81.5859 38.2715 81.3516 38.0371C81.1211 37.8027 80.8262 37.6855 80.4668 37.6855C80.0059 37.6855 79.6504 37.8535 79.4004 38.1895C79.1504 38.5215 79.0234 39.0273 79.0195 39.707V39.9355C79.0195 40.623 79.1426 41.1367 79.3887 41.4766C79.6387 41.8125 79.998 41.9805 80.4668 41.9805ZM86.2031 40.2812L85.5703 40.9316V43H84.1465V34H85.5703V39.1914L86.0156 38.6348L87.7676 36.6602H89.4785L87.123 39.3027L89.7305 43H88.084L86.2031 40.2812ZM91.8984 36.6602V43.5625C91.8984 44.2109 91.7363 44.7051 91.4121 45.0449C91.0918 45.3887 90.6211 45.5605 90 45.5605C89.7383 45.5605 89.4863 45.5273 89.2441 45.4609V44.3359C89.3926 44.3711 89.5605 44.3887 89.748 44.3887C90.2207 44.3887 90.4629 44.1309 90.4746 43.6152V36.6602H91.8984ZM90.3516 35.0137C90.3516 34.7949 90.4199 34.6133 90.5566 34.4688C90.6973 34.3242 90.8965 34.252 91.1543 34.252C91.4121 34.252 91.6113 34.3242 91.752 34.4688C91.8926 34.6133 91.9629 34.7949 91.9629 35.0137C91.9629 35.2285 91.8926 35.4082 91.752 35.5527C91.6113 35.6934 91.4121 35.7637 91.1543 35.7637C90.8965 35.7637 90.6973 35.6934 90.5566 35.5527C90.4199 35.4082 90.3516 35.2285 90.3516 35.0137ZM97.2129 43C97.1504 42.8789 97.0957 42.6816 97.0488 42.4082C96.5957 42.8809 96.041 43.1172 95.3848 43.1172C94.748 43.1172 94.2285 42.9355 93.8262 42.5723C93.4238 42.209 93.2227 41.7598 93.2227 41.2246C93.2227 40.5488 93.4727 40.0312 93.9727 39.6719C94.4766 39.3086 95.1953 39.127 96.1289 39.127H97.002V38.7109C97.002 38.3828 96.9102 38.1211 96.7266 37.9258C96.543 37.7266 96.2637 37.627 95.8887 37.627C95.5645 37.627 95.2988 37.709 95.0918 37.873C94.8848 38.0332 94.7812 38.2383 94.7812 38.4883H93.3574C93.3574 38.1406 93.4727 37.8164 93.7031 37.5156C93.9336 37.2109 94.2461 36.9727 94.6406 36.8008C95.0391 36.6289 95.4824 36.543 95.9707 36.543C96.7129 36.543 97.3047 36.7305 97.7461 37.1055C98.1875 37.4766 98.4141 38 98.4258 38.6758V41.5352C98.4258 42.1055 98.5059 42.5605 98.666 42.9004V43H97.2129ZM95.6484 41.9746C95.9297 41.9746 96.1934 41.9062 96.4395 41.7695C96.6895 41.6328 96.877 41.4492 97.002 41.2188V40.0234H96.2344C95.707 40.0234 95.3105 40.1152 95.0449 40.2988C94.7793 40.4824 94.6465 40.7422 94.6465 41.0781C94.6465 41.3516 94.7363 41.5703 94.916 41.7344C95.0996 41.8945 95.3438 41.9746 95.6484 41.9746ZM102.521 41.9805C102.877 41.9805 103.172 41.877 103.406 41.6699C103.641 41.4629 103.766 41.207 103.781 40.9023H105.123C105.107 41.2969 104.984 41.666 104.754 42.0098C104.523 42.3496 104.211 42.6191 103.816 42.8184C103.422 43.0176 102.996 43.1172 102.539 43.1172C101.652 43.1172 100.949 42.8301 100.43 42.2559C99.9102 41.6816 99.6504 40.8887 99.6504 39.877V39.7305C99.6504 38.7656 99.9082 37.9941 100.424 37.416C100.939 36.834 101.643 36.543 102.533 36.543C103.287 36.543 103.9 36.7637 104.373 37.2051C104.85 37.6426 105.1 38.2188 105.123 38.9336H103.781C103.766 38.5703 103.641 38.2715 103.406 38.0371C103.176 37.8027 102.881 37.6855 102.521 37.6855C102.061 37.6855 101.705 37.8535 101.455 38.1895C101.205 38.5215 101.078 39.0273 101.074 39.707V39.9355C101.074 40.623 101.197 41.1367 101.443 41.4766C101.693 41.8125 102.053 41.9805 102.521 41.9805ZM108.258 40.2812L107.625 40.9316V43H106.201V34H107.625V39.1914L108.07 38.6348L109.822 36.6602H111.533L109.178 39.3027L111.785 43H110.139L108.258 40.2812Z" fill="white"/>
<defs>
<filter id="filter0_d" x="0" y="-1" width="80" height="80" filterUnits="userSpaceOnUse" color-interpolation-filters="sRGB">
<feFlood flood-opacity="0" result="BackgroundImageFix"/>
<feColorMatrix in="SourceAlpha" type="matrix" values="0 0 0 0 0 0 0 0 0 0 0 0 0 0 0 0 0 0 127 0"/>
<feOffset/>
<feGaussianBlur stdDeviation="15"/>
<feColorMatrix type="matrix" values="0 0 0 0 0.00392157 0 0 0 0 0.690196 0 0 0 0 0.458824 0 0 0 0.3 0"/>
<feBlend mode="normal" in2="BackgroundImageFix" result="effect1_dropShadow"/>
<feBlend mode="normal" in="SourceGraphic" in2="effect1_dropShadow" result="shape"/>
</filter>
</defs>
</svg>
