<svg width="145" height="79" viewBox="0 0 145 79" fill="none" xmlns="http://www.w3.org/2000/svg">
<g filter="url(#filter0_d)">
<path d="M48.3371 44.3983C48.5679 44.165 48.7804 43.915 48.9746 43.6516C48.8396 44.5766 48.3729 45.4641 47.6021 46.245C45.9571 47.9116 43.1346 48.9141 40.0521 48.925H39.9996C37.6579 48.925 35.4462 48.3558 33.7646 47.3183C32.1896 46.3466 31.2354 45.065 31.0279 43.6641C31.6275 44.4517 32.3723 45.1173 33.2221 45.625C35.0637 46.76 37.4696 47.3858 39.9987 47.3858H40.0554C43.4071 47.3733 46.5029 46.2566 48.3371 44.3983ZM30.9846 40.5458C30.9737 39.4008 31.4629 38.295 32.3987 37.3458C33.8779 35.8475 36.3096 34.8875 39.0246 34.7L39.0846 34.2516C38.7663 34.0555 38.5208 33.7608 38.3852 33.4124C38.2496 33.064 38.2314 32.6809 38.3334 32.3212C38.4354 31.9616 38.6519 31.645 38.9501 31.4195C39.2483 31.1941 39.612 31.0721 39.9858 31.0721C40.3596 31.0721 40.7233 31.1941 41.0215 31.4195C41.3197 31.645 41.5363 31.9616 41.6382 32.3212C41.7402 32.6809 41.722 33.064 41.5864 33.4124C41.4508 33.7608 41.2053 34.0555 40.8871 34.2516L40.9462 34.6983C42.9329 34.8308 44.7829 35.3766 46.2362 36.2733C48.0137 37.37 49.0012 38.8616 49.0162 40.4733C49.0271 41.6175 48.5379 42.7233 47.6021 43.6725C45.9571 45.3391 43.1346 46.3408 40.0521 46.3516H39.9996C37.6579 46.3516 35.4462 45.7825 33.7646 44.7458C31.9871 43.6491 30.9996 42.1575 30.9846 40.5458ZM32.1346 40.51C32.1354 41.3691 32.5371 42.2016 33.2846 42.9291L35.3179 42.1958C35.7929 42.7091 36.4762 43.135 37.2971 43.4308L36.2046 44.6125C37.4296 45.0116 38.7112 45.21 40.0004 45.2008V43.885C40.4637 43.885 40.9262 43.8483 41.3837 43.7733C41.8334 43.6996 42.2755 43.5853 42.7046 43.4316L43.7912 44.6066C44.9712 44.2133 45.9887 43.64 46.7162 42.9291L44.6829 42.1958C45.1429 41.6991 45.4096 41.1241 45.4096 40.5091H47.8654C47.8654 39.6491 47.4637 38.8175 46.7171 38.0891L44.6837 38.8225C44.2087 38.3091 43.5237 37.8841 42.7037 37.5875L43.7954 36.4066C42.922 36.12 42.0176 35.9381 41.1012 35.865L41.6204 39.7941C42.0821 39.9675 42.3354 40.2175 42.3354 40.52C42.3354 41.1891 41.1254 41.4941 40.0004 41.4941C38.8754 41.4941 37.6654 41.1891 37.6654 40.52C37.6654 40.225 37.9071 39.9783 38.3496 39.8066L38.6896 37.2341C38.2146 37.3075 37.7487 37.4258 37.2971 37.5866L36.2087 36.4116C35.0287 36.805 34.0112 37.3791 33.2837 38.09L35.3171 38.8225C34.8571 39.3191 34.5904 39.8941 34.5904 40.5091H32.1354L32.1346 40.51Z" fill="#00FFA9"/>
<path d="M35.0004 33.3333C35.0004 33.7936 34.6273 34.1666 34.1671 34.1666C33.7068 34.1666 33.3337 33.7936 33.3337 33.3333C33.3337 32.8731 33.7068 32.5 34.1671 32.5C34.6273 32.5 35.0004 32.8731 35.0004 33.3333Z" fill="#00FFA9"/>
<path d="M45.8337 31.6666C45.8337 32.1269 45.4606 32.5 45.0004 32.5C44.5401 32.5 44.1671 32.1269 44.1671 31.6666C44.1671 31.2064 44.5401 30.8333 45.0004 30.8333C45.4606 30.8333 45.8337 31.2064 45.8337 31.6666Z" fill="#00FFA9"/>
<path d="M47.5004 35C47.5004 35.4602 47.1273 35.8333 46.6671 35.8333C46.2068 35.8333 45.8337 35.4602 45.8337 35C45.8337 34.5397 46.2068 34.1666 46.6671 34.1666C47.1273 34.1666 47.5004 34.5397 47.5004 35Z" fill="#00FFA9"/>
<path d="M33.3337 36.6666C33.3337 37.1269 32.9606 37.5 32.5004 37.5C32.0401 37.5 31.6671 37.1269 31.6671 36.6666C31.6671 36.2064 32.0401 35.8333 32.5004 35.8333C32.9606 35.8333 33.3337 36.2064 33.3337 36.6666Z" fill="#00FFA9"/>
</g>
<path d="M64.3594 35.4688H65.8359V41.4512C65.8359 42.2676 65.5801 42.916 65.0684 43.3965C64.5605 43.877 63.8887 44.1172 63.0527 44.1172C62.1621 44.1172 61.4746 43.8926 60.9902 43.4434C60.5059 42.9941 60.2637 42.3691 60.2637 41.5684H61.7402C61.7402 42.0215 61.8516 42.3633 62.0742 42.5938C62.3008 42.8203 62.627 42.9336 63.0527 42.9336C63.4512 42.9336 63.7676 42.8027 64.002 42.541C64.2402 42.2754 64.3594 41.9102 64.3594 41.4453V35.4688ZM71.1855 44C71.123 43.8789 71.0684 43.6816 71.0215 43.4082C70.5684 43.8809 70.0137 44.1172 69.3574 44.1172C68.7207 44.1172 68.2012 43.9355 67.7988 43.5723C67.3965 43.209 67.1953 42.7598 67.1953 42.2246C67.1953 41.5488 67.4453 41.0312 67.9453 40.6719C68.4492 40.3086 69.168 40.127 70.1016 40.127H70.9746V39.7109C70.9746 39.3828 70.8828 39.1211 70.6992 38.9258C70.5156 38.7266 70.2363 38.627 69.8613 38.627C69.5371 38.627 69.2715 38.709 69.0645 38.873C68.8574 39.0332 68.7539 39.2383 68.7539 39.4883H67.3301C67.3301 39.1406 67.4453 38.8164 67.6758 38.5156C67.9062 38.2109 68.2188 37.9727 68.6133 37.8008C69.0117 37.6289 69.4551 37.543 69.9434 37.543C70.6855 37.543 71.2773 37.7305 71.7188 38.1055C72.1602 38.4766 72.3867 39 72.3984 39.6758V42.5352C72.3984 43.1055 72.4785 43.5605 72.6387 43.9004V44H71.1855ZM69.6211 42.9746C69.9023 42.9746 70.166 42.9062 70.4121 42.7695C70.6621 42.6328 70.8496 42.4492 70.9746 42.2188V41.0234H70.207C69.6797 41.0234 69.2832 41.1152 69.0176 41.2988C68.752 41.4824 68.6191 41.7422 68.6191 42.0781C68.6191 42.3516 68.709 42.5703 68.8887 42.7344C69.0723 42.8945 69.3164 42.9746 69.6211 42.9746ZM76.4941 42.9805C76.8496 42.9805 77.1445 42.877 77.3789 42.6699C77.6133 42.4629 77.7383 42.207 77.7539 41.9023H79.0957C79.0801 42.2969 78.957 42.666 78.7266 43.0098C78.4961 43.3496 78.1836 43.6191 77.7891 43.8184C77.3945 44.0176 76.9688 44.1172 76.5117 44.1172C75.625 44.1172 74.9219 43.8301 74.4023 43.2559C73.8828 42.6816 73.623 41.8887 73.623 40.877V40.7305C73.623 39.7656 73.8809 38.9941 74.3965 38.416C74.9121 37.834 75.6152 37.543 76.5059 37.543C77.2598 37.543 77.873 37.7637 78.3457 38.2051C78.8223 38.6426 79.0723 39.2188 79.0957 39.9336H77.7539C77.7383 39.5703 77.6133 39.2715 77.3789 39.0371C77.1484 38.8027 76.8535 38.6855 76.4941 38.6855C76.0332 38.6855 75.6777 38.8535 75.4277 39.1895C75.1777 39.5215 75.0508 40.0273 75.0469 40.707V40.9355C75.0469 41.623 75.1699 42.1367 75.416 42.4766C75.666 42.8125 76.0254 42.9805 76.4941 42.9805ZM82.2305 41.2812L81.5977 41.9316V44H80.1738V35H81.5977V40.1914L82.043 39.6348L83.7949 37.6602H85.5059L83.1504 40.3027L85.7578 44H84.1113L82.2305 41.2812ZM91.9922 40.8945C91.9922 41.875 91.7695 42.6582 91.3242 43.2441C90.8789 43.8262 90.2812 44.1172 89.5312 44.1172C88.8359 44.1172 88.2793 43.8887 87.8613 43.4316V46.4375H86.4375V37.6602H87.75L87.8086 38.3047C88.2266 37.7969 88.7949 37.543 89.5137 37.543C90.2871 37.543 90.8926 37.832 91.3301 38.4102C91.7715 38.9844 91.9922 39.7832 91.9922 40.8066V40.8945ZM90.5742 40.7715C90.5742 40.1387 90.4473 39.6367 90.1934 39.2656C89.9434 38.8945 89.584 38.709 89.1152 38.709C88.5332 38.709 88.1152 38.9492 87.8613 39.4297V42.2422C88.1191 42.7344 88.541 42.9805 89.127 42.9805C89.5801 42.9805 89.9336 42.7988 90.1875 42.4355C90.4453 42.0684 90.5742 41.5137 90.5742 40.7715ZM92.9355 40.7715C92.9355 40.1504 93.0586 39.5918 93.3047 39.0957C93.5508 38.5957 93.8965 38.2129 94.3418 37.9473C94.7871 37.6777 95.2988 37.543 95.877 37.543C96.7324 37.543 97.4258 37.8184 97.957 38.3691C98.4922 38.9199 98.7812 39.6504 98.8242 40.5605L98.8301 40.8945C98.8301 41.5195 98.709 42.0781 98.4668 42.5703C98.2285 43.0625 97.8848 43.4434 97.4355 43.7129C96.9902 43.9824 96.4746 44.1172 95.8887 44.1172C94.9941 44.1172 94.2773 43.8203 93.7383 43.2266C93.2031 42.6289 92.9355 41.834 92.9355 40.8418V40.7715ZM94.3594 40.8945C94.3594 41.5469 94.4941 42.0586 94.7637 42.4297C95.0332 42.7969 95.4082 42.9805 95.8887 42.9805C96.3691 42.9805 96.7422 42.793 97.0078 42.418C97.2773 42.043 97.4121 41.4941 97.4121 40.7715C97.4121 40.1309 97.2734 39.623 96.9961 39.248C96.7227 38.873 96.3496 38.6855 95.877 38.6855C95.4121 38.6855 95.043 38.8711 94.7695 39.2422C94.4961 39.6094 94.3594 40.1602 94.3594 40.8945ZM101.818 36.1191V37.6602H102.938V38.7148H101.818V42.2539C101.818 42.4961 101.865 42.6719 101.959 42.7812C102.057 42.8867 102.229 42.9395 102.475 42.9395C102.639 42.9395 102.805 42.9199 102.973 42.8809V43.9824C102.648 44.0723 102.336 44.1172 102.035 44.1172C100.941 44.1172 100.395 43.5137 100.395 42.3066V38.7148H99.3516V37.6602H100.395V36.1191H101.818ZM106.77 40.7832C106.77 39.7988 107 39.0137 107.461 38.4277C107.926 37.8379 108.541 37.543 109.307 37.543C110.029 37.543 110.598 37.7949 111.012 38.2988L111.076 37.6602H112.359V43.8066C112.359 44.6387 112.1 45.2949 111.58 45.7754C111.064 46.2559 110.367 46.4961 109.488 46.4961C109.023 46.4961 108.568 46.3984 108.123 46.2031C107.682 46.0117 107.346 45.7598 107.115 45.4473L107.789 44.5918C108.227 45.1113 108.766 45.3711 109.406 45.3711C109.879 45.3711 110.252 45.2422 110.525 44.9844C110.799 44.7305 110.936 44.3555 110.936 43.8594V43.4316C110.525 43.8887 109.979 44.1172 109.295 44.1172C108.553 44.1172 107.945 43.8223 107.473 43.2324C107.004 42.6426 106.77 41.8262 106.77 40.7832ZM108.188 40.9062C108.188 41.543 108.316 42.0449 108.574 42.4121C108.836 42.7754 109.197 42.957 109.658 42.957C110.232 42.957 110.658 42.7109 110.936 42.2188V39.4297C110.666 38.9492 110.244 38.709 109.67 38.709C109.201 38.709 108.836 38.8945 108.574 39.2656C108.316 39.6367 108.188 40.1836 108.188 40.9062ZM117.615 44C117.553 43.8789 117.498 43.6816 117.451 43.4082C116.998 43.8809 116.443 44.1172 115.787 44.1172C115.15 44.1172 114.631 43.9355 114.229 43.5723C113.826 43.209 113.625 42.7598 113.625 42.2246C113.625 41.5488 113.875 41.0312 114.375 40.6719C114.879 40.3086 115.598 40.127 116.531 40.127H117.404V39.7109C117.404 39.3828 117.312 39.1211 117.129 38.9258C116.945 38.7266 116.666 38.627 116.291 38.627C115.967 38.627 115.701 38.709 115.494 38.873C115.287 39.0332 115.184 39.2383 115.184 39.4883H113.76C113.76 39.1406 113.875 38.8164 114.105 38.5156C114.336 38.2109 114.648 37.9727 115.043 37.8008C115.441 37.6289 115.885 37.543 116.373 37.543C117.115 37.543 117.707 37.7305 118.148 38.1055C118.59 38.4766 118.816 39 118.828 39.6758V42.5352C118.828 43.1055 118.908 43.5605 119.068 43.9004V44H117.615ZM116.051 42.9746C116.332 42.9746 116.596 42.9062 116.842 42.7695C117.092 42.6328 117.279 42.4492 117.404 42.2188V41.0234H116.637C116.109 41.0234 115.713 41.1152 115.447 41.2988C115.182 41.4824 115.049 41.7422 115.049 42.0781C115.049 42.3516 115.139 42.5703 115.318 42.7344C115.502 42.8945 115.746 42.9746 116.051 42.9746ZM121.658 37.6602L121.699 38.3223C122.145 37.8027 122.754 37.543 123.527 37.543C124.375 37.543 124.955 37.8672 125.268 38.5156C125.729 37.8672 126.377 37.543 127.213 37.543C127.912 37.543 128.432 37.7363 128.771 38.123C129.115 38.5098 129.291 39.0801 129.299 39.834V44H127.875V39.875C127.875 39.4727 127.787 39.1777 127.611 38.9902C127.436 38.8027 127.145 38.709 126.738 38.709C126.414 38.709 126.148 38.7969 125.941 38.9727C125.738 39.1445 125.596 39.3711 125.514 39.6523L125.52 44H124.096V39.8281C124.076 39.082 123.695 38.709 122.953 38.709C122.383 38.709 121.979 38.9414 121.74 39.4062V44H120.316V37.6602H121.658ZM133.553 44.1172C132.65 44.1172 131.918 43.834 131.355 43.2676C130.797 42.6973 130.518 41.9395 130.518 40.9941V40.8184C130.518 40.1855 130.639 39.6211 130.881 39.125C131.127 38.625 131.471 38.2363 131.912 37.959C132.354 37.6816 132.846 37.543 133.389 37.543C134.252 37.543 134.918 37.8184 135.387 38.3691C135.859 38.9199 136.096 39.6992 136.096 40.707V41.2812H131.953C131.996 41.8047 132.17 42.2188 132.475 42.5234C132.783 42.8281 133.17 42.9805 133.635 42.9805C134.287 42.9805 134.818 42.7168 135.229 42.1895L135.996 42.9219C135.742 43.3008 135.402 43.5957 134.977 43.8066C134.555 44.0137 134.08 44.1172 133.553 44.1172ZM133.383 38.6855C132.992 38.6855 132.676 38.8223 132.434 39.0957C132.195 39.3691 132.043 39.75 131.977 40.2383H134.689V40.1328C134.658 39.6562 134.531 39.2969 134.309 39.0547C134.086 38.8086 133.777 38.6855 133.383 38.6855ZM140.76 42.2773C140.76 42.0234 140.654 41.8301 140.443 41.6973C140.236 41.5645 139.891 41.4473 139.406 41.3457C138.922 41.2441 138.518 41.1152 138.193 40.959C137.482 40.6152 137.127 40.1172 137.127 39.4648C137.127 38.918 137.357 38.4609 137.818 38.0938C138.279 37.7266 138.865 37.543 139.576 37.543C140.334 37.543 140.945 37.7305 141.41 38.1055C141.879 38.4805 142.113 38.9668 142.113 39.5645H140.689C140.689 39.291 140.588 39.0645 140.385 38.8848C140.182 38.7012 139.912 38.6094 139.576 38.6094C139.264 38.6094 139.008 38.6816 138.809 38.8262C138.613 38.9707 138.516 39.1641 138.516 39.4062C138.516 39.625 138.607 39.7949 138.791 39.916C138.975 40.0371 139.346 40.1602 139.904 40.2852C140.463 40.4062 140.9 40.5527 141.217 40.7246C141.537 40.8926 141.773 41.0957 141.926 41.334C142.082 41.5723 142.16 41.8613 142.16 42.2012C142.16 42.7715 141.924 43.2344 141.451 43.5898C140.979 43.9414 140.359 44.1172 139.594 44.1172C139.074 44.1172 138.611 44.0234 138.205 43.8359C137.799 43.6484 137.482 43.3906 137.256 43.0625C137.029 42.7344 136.916 42.3809 136.916 42.002H138.299C138.318 42.3379 138.445 42.5977 138.68 42.7812C138.914 42.9609 139.225 43.0508 139.611 43.0508C139.986 43.0508 140.271 42.9805 140.467 42.8398C140.662 42.6953 140.76 42.5078 140.76 42.2773Z" fill="white"/>
<defs>
<filter id="filter0_d" x="0" y="0" width="80" height="80" filterUnits="userSpaceOnUse" color-interpolation-filters="sRGB">
<feFlood flood-opacity="0" result="BackgroundImageFix"/>
<feColorMatrix in="SourceAlpha" type="matrix" values="0 0 0 0 0 0 0 0 0 0 0 0 0 0 0 0 0 0 127 0"/>
<feOffset/>
<feGaussianBlur stdDeviation="15"/>
<feColorMatrix type="matrix" values="0 0 0 0 0.00392157 0 0 0 0 0.690196 0 0 0 0 0.458824 0 0 0 0.3 0"/>
<feBlend mode="normal" in2="BackgroundImageFix" result="effect1_dropShadow"/>
<feBlend mode="normal" in="SourceGraphic" in2="effect1_dropShadow" result="shape"/>
</filter>
</defs>
</svg>
