<svg width="143" height="76" viewBox="0 0 143 76" fill="none" xmlns="http://www.w3.org/2000/svg">
<g filter="url(#filter0_d)">
<path d="M34.4126 31.1367C34.6898 30.9836 35.0026 30.9069 35.3192 30.9146C35.6357 30.9223 35.9445 31.0141 36.2139 31.1805C36.4832 31.3469 36.7035 31.582 36.8521 31.8616C37.0006 32.1412 37.0721 32.4553 37.0593 32.7717C37.0076 34.43 35.0593 35.8917 34.2009 36.4567C34.0825 36.5348 33.9437 36.5765 33.8018 36.5765C33.6599 36.5765 33.5211 36.5348 33.4026 36.4567C32.5443 35.8917 30.5943 34.4283 30.5443 32.7692C30.5321 32.451 30.6052 32.1354 30.756 31.855C30.9068 31.5746 31.1299 31.3397 31.402 31.1745C31.6742 31.0092 31.9855 30.9198 32.3039 30.9153C32.6222 30.9109 32.936 30.9916 33.2126 31.1492C33.2676 31.18 33.5459 31.345 33.6976 31.435C33.7277 31.453 33.762 31.4626 33.7971 31.4628C33.8321 31.4629 33.8666 31.4536 33.8968 31.4358C34.0568 31.3425 34.3576 31.1675 34.4134 31.1367H34.4126ZM30.7451 42.74C30.7784 43.4517 31.4168 44.1758 32.1184 44.2992C32.4609 44.3617 32.8143 44.3158 33.1301 44.1675C33.154 44.1558 33.1808 44.1515 33.2071 44.1551C33.2334 44.1587 33.2581 44.1701 33.2778 44.1879C33.2976 44.2056 33.3117 44.2289 33.3182 44.2546C33.3247 44.2804 33.3233 44.3075 33.3143 44.3325C33.1893 44.6475 33.0218 44.9433 32.8168 45.2125C32.796 45.2384 32.783 45.2696 32.7793 45.3025C32.7755 45.3355 32.7811 45.3688 32.7955 45.3987C32.8099 45.4286 32.8324 45.4538 32.8605 45.4715C32.8886 45.4891 32.9211 45.4984 32.9543 45.4983H34.6318C34.6644 45.4985 34.6965 45.4895 34.7243 45.4724C34.7521 45.4553 34.7747 45.4309 34.7894 45.4017C34.8041 45.3725 34.8104 45.3399 34.8076 45.3073C34.8048 45.2748 34.7929 45.2437 34.7734 45.2175C34.5644 44.9439 34.3942 44.6427 34.2676 44.3225C34.2584 44.2973 34.257 44.2698 34.2636 44.2438C34.2702 44.2177 34.2846 44.1943 34.3048 44.1765C34.3249 44.1588 34.35 44.1476 34.3767 44.1443C34.4034 44.1411 34.4304 44.1459 34.4543 44.1583C34.7701 44.3117 35.1259 44.3617 35.4726 44.3017C36.1793 44.1833 36.8243 43.4583 36.8584 42.7417C36.9376 41.12 35.0109 39.6717 34.1768 39.1225C34.0654 39.0493 33.9351 39.0103 33.8018 39.0103C33.6685 39.0103 33.5381 39.0493 33.4268 39.1225C32.5934 39.6708 30.6684 41.1183 30.7451 42.7392V42.74ZM45.0201 41.815L42.6834 39.2417C42.6223 39.1742 42.5477 39.1203 42.4644 39.0835C42.3812 39.0466 42.2912 39.0275 42.2001 39.0275C42.1091 39.0275 42.019 39.0466 41.9358 39.0835C41.8525 39.1203 41.7779 39.1742 41.7168 39.2417L39.3784 41.815C39.2692 41.9354 39.2087 42.0921 39.2087 42.2546C39.2087 42.4171 39.2692 42.5738 39.3784 42.6942L41.7159 45.2667C41.7772 45.3343 41.8519 45.3883 41.9353 45.4253C42.0187 45.4622 42.1089 45.4813 42.2001 45.4813C42.2913 45.4813 42.3815 45.4622 42.4649 45.4253C42.5483 45.3883 42.623 45.3343 42.6843 45.2667L45.0218 42.6942C45.1312 42.5739 45.1918 42.4172 45.1918 42.2546C45.1918 42.092 45.1312 41.9353 45.0218 41.815H45.0201ZM44.3351 32.4692C44.2647 32.4408 44.193 32.4161 44.1201 32.395C44.0826 32.3842 44.0496 32.3615 44.0263 32.3301C44.0029 32.2988 43.9905 32.2607 43.9909 32.2217C43.9909 32.1833 43.9893 32.1467 43.9876 32.125C43.9421 31.6834 43.7348 31.2742 43.4056 30.9764C43.0763 30.6785 42.6486 30.513 42.2046 30.5118C41.7606 30.5105 41.3319 30.6736 41.0011 30.9697C40.6702 31.2657 40.4606 31.6737 40.4126 32.115C40.4097 32.151 40.4083 32.1872 40.4084 32.2233C40.4085 32.2621 40.3959 32.2998 40.3726 32.3308C40.3493 32.3618 40.3165 32.3843 40.2793 32.395C40.1866 32.4193 40.0963 32.4517 40.0093 32.4917C39.6317 32.6566 39.3224 32.9464 39.1333 33.3125C38.9443 33.6786 38.8869 34.0986 38.971 34.5019C39.0551 34.9053 39.2754 35.2674 39.595 35.5275C39.9146 35.7875 40.3139 35.9297 40.7259 35.93C41.0034 35.93 41.2768 35.865 41.5243 35.74C41.5462 35.7282 41.5713 35.7236 41.5961 35.7268C41.6208 35.73 41.6439 35.7408 41.6621 35.7579C41.6803 35.7749 41.6927 35.7972 41.6976 35.8216C41.7025 35.8461 41.6996 35.8715 41.6893 35.8942C41.5679 36.1845 41.41 36.4581 41.2193 36.7083C41.1993 36.7343 41.187 36.7654 41.1838 36.798C41.1806 36.8307 41.1867 36.8635 41.2013 36.8929C41.2159 36.9223 41.2384 36.9469 41.2664 36.9641C41.2943 36.9813 41.3265 36.9902 41.3593 36.99H43.0384C43.0713 36.9904 43.1036 36.9815 43.1317 36.9644C43.1597 36.9473 43.1824 36.9227 43.1971 36.8933C43.2118 36.8639 43.2179 36.831 43.2147 36.7983C43.2116 36.7655 43.1993 36.7344 43.1793 36.7083C42.9879 36.4569 42.8297 36.1818 42.7084 35.89C42.6981 35.8677 42.695 35.8428 42.6996 35.8186C42.7043 35.7945 42.7164 35.7725 42.7344 35.7556C42.7523 35.7388 42.7751 35.7281 42.7994 35.725C42.8238 35.7219 42.8485 35.7266 42.8701 35.7383C43.0866 35.8483 43.3232 35.9132 43.5656 35.929C43.8079 35.9448 44.0509 35.9112 44.2799 35.8303C44.5089 35.7494 44.719 35.6228 44.8976 35.4582C45.0762 35.2936 45.2195 35.0945 45.3188 34.8728C45.4181 34.6512 45.4714 34.4117 45.4754 34.1689C45.4794 33.9261 45.434 33.685 45.342 33.4602C45.25 33.2355 45.1133 33.0317 44.9403 32.8614C44.7672 32.691 44.5613 32.5576 44.3351 32.4692Z" fill="#00FFA9"/>
</g>
<path d="M60.3496 38.8301V42H58.8672V33.4688H62.1309C63.084 33.4688 63.8398 33.7168 64.3984 34.2129C64.9609 34.709 65.2422 35.3652 65.2422 36.1816C65.2422 37.0176 64.9668 37.668 64.416 38.1328C63.8691 38.5977 63.1016 38.8301 62.1133 38.8301H60.3496ZM60.3496 37.6406H62.1309C62.6582 37.6406 63.0605 37.5176 63.3379 37.2715C63.6152 37.0215 63.7539 36.6621 63.7539 36.1934C63.7539 35.7324 63.6133 35.3652 63.332 35.0918C63.0508 34.8145 62.6641 34.6719 62.1719 34.6641H60.3496V37.6406ZM66.0566 38.7715C66.0566 38.1504 66.1797 37.5918 66.4258 37.0957C66.6719 36.5957 67.0176 36.2129 67.4629 35.9473C67.9082 35.6777 68.4199 35.543 68.998 35.543C69.8535 35.543 70.5469 35.8184 71.0781 36.3691C71.6133 36.9199 71.9023 37.6504 71.9453 38.5605L71.9512 38.8945C71.9512 39.5195 71.8301 40.0781 71.5879 40.5703C71.3496 41.0625 71.0059 41.4434 70.5566 41.7129C70.1113 41.9824 69.5957 42.1172 69.0098 42.1172C68.1152 42.1172 67.3984 41.8203 66.8594 41.2266C66.3242 40.6289 66.0566 39.834 66.0566 38.8418V38.7715ZM67.4805 38.8945C67.4805 39.5469 67.6152 40.0586 67.8848 40.4297C68.1543 40.7969 68.5293 40.9805 69.0098 40.9805C69.4902 40.9805 69.8633 40.793 70.1289 40.418C70.3984 40.043 70.5332 39.4941 70.5332 38.7715C70.5332 38.1309 70.3945 37.623 70.1172 37.248C69.8438 36.873 69.4707 36.6855 68.998 36.6855C68.5332 36.6855 68.1641 36.8711 67.8906 37.2422C67.6172 37.6094 67.4805 38.1602 67.4805 38.8945ZM75.2148 39.2812L74.582 39.9316V42H73.1582V33H74.582V38.1914L75.0273 37.6348L76.7793 35.6602H78.4902L76.1348 38.3027L78.7422 42H77.0957L75.2148 39.2812ZM82.0996 42.1172C81.1973 42.1172 80.4648 41.834 79.9023 41.2676C79.3438 40.6973 79.0645 39.9395 79.0645 38.9941V38.8184C79.0645 38.1855 79.1855 37.6211 79.4277 37.125C79.6738 36.625 80.0176 36.2363 80.459 35.959C80.9004 35.6816 81.3926 35.543 81.9355 35.543C82.7988 35.543 83.4648 35.8184 83.9336 36.3691C84.4062 36.9199 84.6426 37.6992 84.6426 38.707V39.2812H80.5C80.543 39.8047 80.7168 40.2188 81.0215 40.5234C81.3301 40.8281 81.7168 40.9805 82.1816 40.9805C82.834 40.9805 83.3652 40.7168 83.7754 40.1895L84.543 40.9219C84.2891 41.3008 83.9492 41.5957 83.5234 41.8066C83.1016 42.0137 82.627 42.1172 82.0996 42.1172ZM81.9297 36.6855C81.5391 36.6855 81.2227 36.8223 80.9805 37.0957C80.7422 37.3691 80.5898 37.75 80.5234 38.2383H83.2363V38.1328C83.2051 37.6562 83.0781 37.2969 82.8555 37.0547C82.6328 36.8086 82.3242 36.6855 81.9297 36.6855ZM89.0723 36.9609C88.8848 36.9297 88.6914 36.9141 88.4922 36.9141C87.8398 36.9141 87.4004 37.1641 87.1738 37.6641V42H85.75V35.6602H87.1094L87.1445 36.3691C87.4883 35.8184 87.9648 35.543 88.5742 35.543C88.7773 35.543 88.9453 35.5703 89.0781 35.625L89.0723 36.9609Z" fill="white"/>
<defs>
<filter id="filter0_d" x="-2" y="-2" width="80" height="80" filterUnits="userSpaceOnUse" color-interpolation-filters="sRGB">
<feFlood flood-opacity="0" result="BackgroundImageFix"/>
<feColorMatrix in="SourceAlpha" type="matrix" values="0 0 0 0 0 0 0 0 0 0 0 0 0 0 0 0 0 0 127 0"/>
<feOffset/>
<feGaussianBlur stdDeviation="15"/>
<feColorMatrix type="matrix" values="0 0 0 0 0.00392157 0 0 0 0 0.690196 0 0 0 0 0.458824 0 0 0 0.3 0"/>
<feBlend mode="normal" in2="BackgroundImageFix" result="effect1_dropShadow"/>
<feBlend mode="normal" in="SourceGraphic" in2="effect1_dropShadow" result="shape"/>
</filter>
</defs>
</svg>
