<svg width="115" height="30" viewBox="0 0 115 30" fill="none" xmlns="http://www.w3.org/2000/svg">
<path d="M6.71168 12.925H6.70835C5.28662 12.9254 3.92325 13.4904 2.91786 14.4956C1.91247 15.5008 1.34734 16.8641 1.34668 18.2858V18.29C1.34717 19.3505 1.66206 20.3871 2.25155 21.2687C2.84103 22.1503 3.67865 22.8373 4.65852 23.243C5.63839 23.6486 6.71652 23.7547 7.75665 23.5477C8.79678 23.3408 9.75221 22.8301 10.5022 22.0802C11.2521 21.3304 11.7629 20.3751 11.9701 19.335C12.1772 18.2949 12.0713 17.2167 11.6658 16.2368C11.2603 15.2568 10.5734 14.4191 9.69189 13.8295C8.81038 13.2399 7.77386 12.9248 6.71335 12.9242L6.71168 12.925ZM10.2 20.7333L10.0917 20.5208C10.0514 20.4425 9.98426 20.3813 9.90254 20.3484C9.82083 20.3155 9.73001 20.3131 9.64668 20.3417L8.63001 20.6858C8.56201 20.7089 8.5023 20.7515 8.45835 20.8083L7.81585 21.635C7.76197 21.7045 7.73486 21.791 7.73945 21.8788C7.74404 21.9666 7.78002 22.0498 7.84085 22.1133L8.05085 22.335C7.19752 22.6191 6.27603 22.6249 5.41918 22.3517L5.62918 22.1242C5.68879 22.0597 5.72326 21.9759 5.72632 21.8881C5.72938 21.8003 5.70082 21.7143 5.64585 21.6458L4.97418 20.8083C4.92946 20.7522 4.86917 20.7104 4.80085 20.6883L3.80501 20.3683C3.72125 20.3412 3.63053 20.3452 3.54944 20.3795C3.46835 20.4137 3.40229 20.476 3.36335 20.555L3.25335 20.7767C2.7363 20.062 2.45518 19.2038 2.44918 18.3217L2.68335 18.455C2.75975 18.4988 2.84938 18.5137 2.93583 18.4968C3.02229 18.48 3.09979 18.4326 3.15418 18.3633L3.81835 17.5217C3.86284 17.4651 3.88978 17.3967 3.89585 17.325L3.98418 16.2825C3.99171 16.1947 3.96739 16.1072 3.91567 16.0359C3.86394 15.9646 3.78828 15.9143 3.70251 15.8942L3.26335 15.79C3.7867 15.0681 4.52316 14.5283 5.36918 14.2467L5.33001 14.5333C5.31822 14.6204 5.33794 14.7088 5.38562 14.7826C5.43329 14.8564 5.50579 14.9108 5.59001 14.9358L6.61835 15.2392C6.68751 15.2592 6.76001 15.2592 6.82918 15.2383L7.83001 14.9325C7.91429 14.907 7.98659 14.8521 8.03372 14.7778C8.08084 14.7034 8.09964 14.6146 8.08668 14.5275L8.04501 14.245C8.89448 14.5266 9.63383 15.0682 10.1583 15.7933L9.75001 15.8783C9.66391 15.8962 9.58709 15.9444 9.53355 16.0141C9.48001 16.0839 9.45332 16.1705 9.45835 16.2583L9.51918 17.33C9.52337 17.4017 9.54827 17.4705 9.59085 17.5283L10.2158 18.3683C10.2682 18.4388 10.3441 18.4881 10.4297 18.5074C10.5153 18.5267 10.605 18.5146 10.6825 18.4733L10.9708 18.32C10.966 19.1842 10.697 20.0263 10.2 20.7333ZM7.46168 19.6892H5.95001C5.87254 19.6891 5.79706 19.6646 5.73435 19.6191C5.67164 19.5736 5.62491 19.5095 5.60085 19.4358L5.15918 18.09C5.13506 18.0162 5.13497 17.9367 5.15893 17.8629C5.18289 17.789 5.22966 17.7247 5.29251 17.6792L6.49335 16.8008C6.55626 16.7549 6.63213 16.7302 6.71001 16.7302C6.7879 16.7302 6.86377 16.7549 6.92668 16.8008L8.13418 17.6775C8.19759 17.7235 8.24458 17.7887 8.26828 17.8633C8.29197 17.938 8.29112 18.0183 8.26585 18.0925L7.80918 19.44C7.7846 19.5127 7.73785 19.5758 7.67551 19.6205C7.61317 19.6652 7.53839 19.6892 7.46168 19.6892ZM15.9083 22.2958C16.8433 22.2958 17.66 22.1358 18.295 21.8542C18.5367 22.0308 18.675 22.2375 18.675 22.4575C18.675 23.1167 17.4367 23.6517 15.9083 23.6517C14.38 23.6517 13.1417 23.1167 13.1417 22.4575C13.1417 22.2367 13.2808 22.0308 13.5217 21.8533C14.1567 22.1358 14.9733 22.2958 15.9083 22.2958ZM15.9083 19.9075C16.8433 19.9075 17.66 19.7467 18.295 19.4642C18.5367 19.6417 18.675 19.8475 18.675 20.0683C18.675 20.7283 17.4367 21.2625 15.9083 21.2625C14.38 21.2625 13.1417 20.7283 13.1417 20.0683C13.1417 19.8483 13.2808 19.6417 13.5217 19.4642C14.1567 19.7467 14.9733 19.9075 15.9083 19.9075ZM18.675 17.6792C18.675 18.3392 17.4367 18.8742 15.9083 18.8742C14.38 18.8742 13.1417 18.3392 13.1417 17.6792C13.1417 17.02 14.3808 16.485 15.9083 16.485C17.4367 16.485 18.675 17.02 18.675 17.6792ZM12.195 14.8708H14.2833C14.3029 14.8707 14.3222 14.8745 14.3402 14.8819C14.3583 14.8893 14.3747 14.9002 14.3885 14.914C14.4023 14.9278 14.4132 14.9442 14.4206 14.9623C14.428 14.9803 14.4318 14.9997 14.4317 15.0192V15.5317C14.9172 15.4294 15.4122 15.3791 15.9083 15.3817C16.5279 15.3757 17.1453 15.4565 17.7425 15.6217C17.9994 14.8248 18.1285 13.9923 18.125 13.155C18.114 12.3126 17.9666 11.4777 17.6883 10.6825C17.6699 10.6141 17.6476 10.5468 17.6217 10.4808C17.242 9.44522 16.6586 8.49625 15.9058 7.69C15.095 6.8525 14.1792 6.34166 13.3417 6.34833C12.5283 6.35666 11.6375 6.85 10.8308 7.70333C10.5867 7.95666 10.3642 8.23083 10.1667 8.52166C9.71366 9.16141 9.3576 9.86455 9.11001 10.6083C8.9413 11.1102 8.81939 11.6265 8.74585 12.1508C10.1766 12.6297 11.3963 13.5913 12.1958 14.8708H12.195ZM12.5033 10.4083H14.2833C14.3028 10.4082 14.3221 10.412 14.34 10.4193C14.358 10.4267 14.3744 10.4375 14.3882 10.4512C14.402 10.4649 14.4129 10.4812 14.4204 10.4992C14.4278 10.5171 14.4317 10.5364 14.4317 10.5558V11.3625C14.4317 11.4018 14.4161 11.4396 14.3882 11.4674C14.3604 11.4952 14.3227 11.5108 14.2833 11.5108H12.5033C12.464 11.5108 12.4263 11.4952 12.3985 11.4674C12.3706 11.4396 12.355 11.4018 12.355 11.3625V10.5558C12.3552 10.5166 12.371 10.4791 12.3988 10.4515C12.4265 10.4238 12.4641 10.4083 12.5033 10.4083ZM12.5033 12.6392H14.2833C14.3029 12.6391 14.3222 12.6428 14.3402 12.6502C14.3583 12.6576 14.3747 12.6686 14.3885 12.6824C14.4023 12.6962 14.4132 12.7126 14.4206 12.7306C14.428 12.7486 14.4318 12.768 14.4317 12.7875V13.5942C14.4317 13.6136 14.4278 13.6329 14.4204 13.6509C14.4129 13.6689 14.402 13.6853 14.3882 13.6991C14.3745 13.7128 14.3581 13.7238 14.3401 13.7312C14.3221 13.7387 14.3028 13.7425 14.2833 13.7425H12.5033C12.4641 13.7423 12.4265 13.7266 12.3987 13.6988C12.3709 13.671 12.3552 13.6334 12.355 13.5942V12.7875C12.355 12.7482 12.3706 12.7104 12.3985 12.6826C12.4263 12.6548 12.464 12.6392 12.5033 12.6392Z" fill="#6F7174"/>
<path d="M35.3262 16.8027C35.3262 16.4277 35.1934 16.1387 34.9277 15.9355C34.666 15.7324 34.1914 15.5273 33.5039 15.3203C32.8164 15.1133 32.2695 14.8828 31.8633 14.6289C31.0859 14.1406 30.6973 13.5039 30.6973 12.7188C30.6973 12.0312 30.9766 11.4648 31.5352 11.0195C32.0977 10.5742 32.8262 10.3516 33.7207 10.3516C34.3145 10.3516 34.8438 10.4609 35.3086 10.6797C35.7734 10.8984 36.1387 11.2109 36.4043 11.6172C36.6699 12.0195 36.8027 12.4668 36.8027 12.959H35.3262C35.3262 12.5137 35.1855 12.166 34.9043 11.916C34.627 11.6621 34.2285 11.5352 33.709 11.5352C33.2246 11.5352 32.8477 11.6387 32.5781 11.8457C32.3125 12.0527 32.1797 12.3418 32.1797 12.7129C32.1797 13.0254 32.3242 13.2871 32.6133 13.498C32.9023 13.7051 33.3789 13.9082 34.043 14.1074C34.707 14.3027 35.2402 14.5273 35.6426 14.7812C36.0449 15.0312 36.3398 15.3203 36.5273 15.6484C36.7148 15.9727 36.8086 16.3535 36.8086 16.791C36.8086 17.502 36.5352 18.0684 35.9883 18.4902C35.4453 18.9082 34.707 19.1172 33.7734 19.1172C33.1562 19.1172 32.5879 19.0039 32.0684 18.7773C31.5527 18.5469 31.1504 18.2305 30.8613 17.8281C30.5762 17.4258 30.4336 16.957 30.4336 16.4219H31.916C31.916 16.9062 32.0762 17.2812 32.3965 17.5469C32.7168 17.8125 33.1758 17.9453 33.7734 17.9453C34.2891 17.9453 34.6758 17.8418 34.9336 17.6348C35.1953 17.4238 35.3262 17.1465 35.3262 16.8027ZM43.5234 15.8945C43.5234 16.875 43.3008 17.6582 42.8555 18.2441C42.4102 18.8262 41.8125 19.1172 41.0625 19.1172C40.3672 19.1172 39.8105 18.8887 39.3926 18.4316V21.4375H37.9688V12.6602H39.2812L39.3398 13.3047C39.7578 12.7969 40.3262 12.543 41.0449 12.543C41.8184 12.543 42.4238 12.832 42.8613 13.4102C43.3027 13.9844 43.5234 14.7832 43.5234 15.8066V15.8945ZM42.1055 15.7715C42.1055 15.1387 41.9785 14.6367 41.7246 14.2656C41.4746 13.8945 41.1152 13.709 40.6465 13.709C40.0645 13.709 39.6465 13.9492 39.3926 14.4297V17.2422C39.6504 17.7344 40.0723 17.9805 40.6582 17.9805C41.1113 17.9805 41.4648 17.7988 41.7188 17.4355C41.9766 17.0684 42.1055 16.5137 42.1055 15.7715ZM44.4668 15.7715C44.4668 15.1504 44.5898 14.5918 44.8359 14.0957C45.082 13.5957 45.4277 13.2129 45.873 12.9473C46.3184 12.6777 46.8301 12.543 47.4082 12.543C48.2637 12.543 48.957 12.8184 49.4883 13.3691C50.0234 13.9199 50.3125 14.6504 50.3555 15.5605L50.3613 15.8945C50.3613 16.5195 50.2402 17.0781 49.998 17.5703C49.7598 18.0625 49.416 18.4434 48.9668 18.7129C48.5215 18.9824 48.0059 19.1172 47.4199 19.1172C46.5254 19.1172 45.8086 18.8203 45.2695 18.2266C44.7344 17.6289 44.4668 16.834 44.4668 15.8418V15.7715ZM45.8906 15.8945C45.8906 16.5469 46.0254 17.0586 46.2949 17.4297C46.5645 17.7969 46.9395 17.9805 47.4199 17.9805C47.9004 17.9805 48.2734 17.793 48.5391 17.418C48.8086 17.043 48.9434 16.4941 48.9434 15.7715C48.9434 15.1309 48.8047 14.623 48.5273 14.248C48.2539 13.873 47.8809 13.6855 47.4082 13.6855C46.9434 13.6855 46.5742 13.8711 46.3008 14.2422C46.0273 14.6094 45.8906 15.1602 45.8906 15.8945ZM54.8848 13.9609C54.6973 13.9297 54.5039 13.9141 54.3047 13.9141C53.6523 13.9141 53.2129 14.1641 52.9863 14.6641V19H51.5625V12.6602H52.9219L52.957 13.3691C53.3008 12.8184 53.7773 12.543 54.3867 12.543C54.5898 12.543 54.7578 12.5703 54.8906 12.625L54.8848 13.9609ZM57.8613 11.1191V12.6602H58.9805V13.7148H57.8613V17.2539C57.8613 17.4961 57.9082 17.6719 58.002 17.7812C58.0996 17.8867 58.2715 17.9395 58.5176 17.9395C58.6816 17.9395 58.8477 17.9199 59.0156 17.8809V18.9824C58.6914 19.0723 58.3789 19.1172 58.0781 19.1172C56.9844 19.1172 56.4375 18.5137 56.4375 17.3066V13.7148H55.3945V12.6602H56.4375V11.1191H57.8613ZM63.627 17.2773C63.627 17.0234 63.5215 16.8301 63.3105 16.6973C63.1035 16.5645 62.7578 16.4473 62.2734 16.3457C61.7891 16.2441 61.3848 16.1152 61.0605 15.959C60.3496 15.6152 59.9941 15.1172 59.9941 14.4648C59.9941 13.918 60.2246 13.4609 60.6855 13.0938C61.1465 12.7266 61.7324 12.543 62.4434 12.543C63.2012 12.543 63.8125 12.7305 64.2773 13.1055C64.7461 13.4805 64.9805 13.9668 64.9805 14.5645H63.5566C63.5566 14.291 63.4551 14.0645 63.252 13.8848C63.0488 13.7012 62.7793 13.6094 62.4434 13.6094C62.1309 13.6094 61.875 13.6816 61.6758 13.8262C61.4805 13.9707 61.3828 14.1641 61.3828 14.4062C61.3828 14.625 61.4746 14.7949 61.6582 14.916C61.8418 15.0371 62.2129 15.1602 62.7715 15.2852C63.3301 15.4062 63.7676 15.5527 64.084 15.7246C64.4043 15.8926 64.6406 16.0957 64.793 16.334C64.9492 16.5723 65.0273 16.8613 65.0273 17.2012C65.0273 17.7715 64.791 18.2344 64.3184 18.5898C63.8457 18.9414 63.2266 19.1172 62.4609 19.1172C61.9414 19.1172 61.4785 19.0234 61.0723 18.8359C60.666 18.6484 60.3496 18.3906 60.123 18.0625C59.8965 17.7344 59.7832 17.3809 59.7832 17.002H61.166C61.1855 17.3379 61.3125 17.5977 61.5469 17.7812C61.7812 17.9609 62.0918 18.0508 62.4785 18.0508C62.8535 18.0508 63.1387 17.9805 63.334 17.8398C63.5293 17.6953 63.627 17.5078 63.627 17.2773ZM74.8242 15.8945C74.8242 16.8789 74.6035 17.6621 74.1621 18.2441C73.7246 18.8262 73.1211 19.1172 72.3516 19.1172C71.6094 19.1172 71.0312 18.8496 70.6172 18.3145L70.5469 19H69.2578V10H70.6816V13.2695C71.0918 12.7852 71.6445 12.543 72.3398 12.543C73.1133 12.543 73.7207 12.8301 74.1621 13.4043C74.6035 13.9785 74.8242 14.7812 74.8242 15.8125V15.8945ZM73.4004 15.7715C73.4004 15.084 73.2793 14.5684 73.0371 14.2246C72.7949 13.8809 72.4434 13.709 71.9824 13.709C71.3652 13.709 70.9316 13.9785 70.6816 14.5176V17.1309C70.9355 17.6816 71.373 17.957 71.9941 17.957C72.4395 17.957 72.7832 17.791 73.0254 17.459C73.2676 17.127 73.3926 16.625 73.4004 15.9531V15.7715ZM78.8145 19.1172C77.9121 19.1172 77.1797 18.834 76.6172 18.2676C76.0586 17.6973 75.7793 16.9395 75.7793 15.9941V15.8184C75.7793 15.1855 75.9004 14.6211 76.1426 14.125C76.3887 13.625 76.7324 13.2363 77.1738 12.959C77.6152 12.6816 78.1074 12.543 78.6504 12.543C79.5137 12.543 80.1797 12.8184 80.6484 13.3691C81.1211 13.9199 81.3574 14.6992 81.3574 15.707V16.2812H77.2148C77.2578 16.8047 77.4316 17.2188 77.7363 17.5234C78.0449 17.8281 78.4316 17.9805 78.8965 17.9805C79.5488 17.9805 80.0801 17.7168 80.4902 17.1895L81.2578 17.9219C81.0039 18.3008 80.6641 18.5957 80.2383 18.8066C79.8164 19.0137 79.3418 19.1172 78.8145 19.1172ZM78.6445 13.6855C78.2539 13.6855 77.9375 13.8223 77.6953 14.0957C77.457 14.3691 77.3047 14.75 77.2383 15.2383H79.9512V15.1328C79.9199 14.6562 79.793 14.2969 79.5703 14.0547C79.3477 13.8086 79.0391 13.6855 78.6445 13.6855ZM84.252 11.1191V12.6602H85.3711V13.7148H84.252V17.2539C84.252 17.4961 84.2988 17.6719 84.3926 17.7812C84.4902 17.8867 84.6621 17.9395 84.9082 17.9395C85.0723 17.9395 85.2383 17.9199 85.4062 17.8809V18.9824C85.082 19.0723 84.7695 19.1172 84.4688 19.1172C83.375 19.1172 82.8281 18.5137 82.8281 17.3066V13.7148H81.7852V12.6602H82.8281V11.1191H84.252ZM88.248 11.1191V12.6602H89.3672V13.7148H88.248V17.2539C88.248 17.4961 88.2949 17.6719 88.3887 17.7812C88.4863 17.8867 88.6582 17.9395 88.9043 17.9395C89.0684 17.9395 89.2344 17.9199 89.4023 17.8809V18.9824C89.0781 19.0723 88.7656 19.1172 88.4648 19.1172C87.3711 19.1172 86.8242 18.5137 86.8242 17.3066V13.7148H85.7812V12.6602H86.8242V11.1191H88.248ZM91.9746 19H90.5508V12.6602H91.9746V19ZM90.4629 11.0137C90.4629 10.7949 90.5312 10.6133 90.668 10.4688C90.8086 10.3242 91.0078 10.252 91.2656 10.252C91.5234 10.252 91.7227 10.3242 91.8633 10.4688C92.0039 10.6133 92.0742 10.7949 92.0742 11.0137C92.0742 11.2285 92.0039 11.4082 91.8633 11.5527C91.7227 11.6934 91.5234 11.7637 91.2656 11.7637C91.0078 11.7637 90.8086 11.6934 90.668 11.5527C90.5312 11.4082 90.4629 11.2285 90.4629 11.0137ZM94.8516 12.6602L94.8926 13.3926C95.3613 12.8262 95.9766 12.543 96.7383 12.543C98.0586 12.543 98.7305 13.2988 98.7539 14.8105V19H97.3301V14.8926C97.3301 14.4902 97.2422 14.1934 97.0664 14.002C96.8945 13.8066 96.6113 13.709 96.2168 13.709C95.6426 13.709 95.2148 13.9688 94.9336 14.4883V19H93.5098V12.6602H94.8516ZM99.9609 15.7832C99.9609 14.7988 100.191 14.0137 100.652 13.4277C101.117 12.8379 101.732 12.543 102.498 12.543C103.221 12.543 103.789 12.7949 104.203 13.2988L104.268 12.6602H105.551V18.8066C105.551 19.6387 105.291 20.2949 104.771 20.7754C104.256 21.2559 103.559 21.4961 102.68 21.4961C102.215 21.4961 101.76 21.3984 101.314 21.2031C100.873 21.0117 100.537 20.7598 100.307 20.4473L100.98 19.5918C101.418 20.1113 101.957 20.3711 102.598 20.3711C103.07 20.3711 103.443 20.2422 103.717 19.9844C103.99 19.7305 104.127 19.3555 104.127 18.8594V18.4316C103.717 18.8887 103.17 19.1172 102.486 19.1172C101.744 19.1172 101.137 18.8223 100.664 18.2324C100.195 17.6426 99.9609 16.8262 99.9609 15.7832ZM101.379 15.9062C101.379 16.543 101.508 17.0449 101.766 17.4121C102.027 17.7754 102.389 17.957 102.85 17.957C103.424 17.957 103.85 17.7109 104.127 17.2188V14.4297C103.857 13.9492 103.436 13.709 102.861 13.709C102.393 13.709 102.027 13.8945 101.766 14.2656C101.508 14.6367 101.379 15.1836 101.379 15.9062Z" fill="#E8290F"/>
</svg>
