<svg width="20" height="16" viewBox="0 0 20 16" fill="none" xmlns="http://www.w3.org/2000/svg">
<path d="M2.61708 1.91169C3.06772 1.34313 3.641 0.883758 4.29411 0.567882C4.94722 0.252006 5.66326 0.0877975 6.38875 0.0875244H10.8562C11.5819 0.0877326 12.2981 0.251907 12.9513 0.567784C13.6046 0.883659 14.178 1.34307 14.6287 1.91169H2.61625H2.61708ZM19.0929 4.82252C19.0929 4.99685 19.0494 5.16843 18.9665 5.32177C18.8836 5.47511 18.7638 5.60539 18.6179 5.70086V11.5459C18.618 11.5719 18.6103 11.5973 18.5959 11.6189C18.5815 11.6406 18.5611 11.6575 18.5371 11.6675C18.5212 11.6741 18.5042 11.6775 18.4871 11.6775H16.3387V13.01C16.3385 13.2025 16.262 13.3869 16.1259 13.523C15.9898 13.6591 15.8054 13.7356 15.6129 13.7359H1.63208C1.43965 13.7356 1.25516 13.6591 1.11909 13.523C0.983013 13.3869 0.906471 13.2025 0.90625 13.01V3.70669C0.90625 3.51419 0.982721 3.32957 1.11884 3.19345C1.25496 3.05733 1.43958 2.98086 1.63208 2.98086H15.6129C15.8054 2.98108 15.9898 3.05762 16.1259 3.19369C16.262 3.32977 16.3385 3.51426 16.3387 3.70669V10.5267H17.4671V5.70002C17.3151 5.60034 17.1916 5.4629 17.1086 5.30116C17.0257 5.13942 16.9861 4.95892 16.9939 4.77732C17.0016 4.59571 17.0564 4.41923 17.1528 4.26513C17.2492 4.11103 17.3839 3.98459 17.5438 3.8982C17.7038 3.8118 17.8834 3.7684 18.0651 3.77224C18.2468 3.77608 18.4245 3.82704 18.5806 3.92011C18.7367 4.01319 18.866 4.14521 18.9558 4.30324C19.0456 4.46128 19.0929 4.63992 19.0929 4.82169V4.82252ZM5.66708 4.13169H2.05708V10.6067H5.66708V4.13169ZM10.4279 4.13169H6.81708V10.6067H10.4271V4.13169H10.4279ZM15.1879 4.13169H11.5787V10.6067H15.1879V4.13169ZM15.4812 14.81H1.76458C1.72966 14.81 1.69617 14.8239 1.67148 14.8486C1.64679 14.8733 1.63292 14.9068 1.63292 14.9417V15.7809C1.63292 15.8158 1.64679 15.8493 1.67148 15.874C1.69617 15.8987 1.72966 15.9125 1.76458 15.9125H15.4812C15.4986 15.9125 15.5158 15.9091 15.5318 15.9024C15.5479 15.8958 15.5624 15.886 15.5746 15.8737C15.5869 15.8614 15.5966 15.8467 15.6031 15.8307C15.6097 15.8146 15.613 15.7974 15.6129 15.78V14.9417C15.6129 14.9243 15.6095 14.9071 15.6028 14.8911C15.5961 14.8751 15.5864 14.8605 15.5741 14.8483C15.5617 14.8361 15.5471 14.8264 15.5311 14.8198C15.515 14.8132 15.4978 14.8099 15.4804 14.81H15.4812ZM14.4937 6.68419C14.4246 6.50587 14.3179 6.34452 14.1808 6.21108C14.0438 6.07765 13.8797 5.97526 13.6996 5.91086C13.6839 5.83946 13.6442 5.77557 13.5873 5.72976C13.5303 5.68396 13.4594 5.65899 13.3862 5.65899C13.3131 5.65899 13.2422 5.68396 13.1852 5.72976C13.1283 5.77557 13.0886 5.83946 13.0729 5.91086C12.5996 6.07669 12.3229 6.44919 12.1904 6.95002C12.119 7.22201 12.1185 7.50775 12.1887 7.78002C12.3196 8.28502 12.5971 8.66002 13.0729 8.82753C13.0883 8.89935 13.1278 8.96373 13.1849 9.00992C13.242 9.05611 13.3132 9.08131 13.3867 9.08131C13.4601 9.08131 13.5313 9.05611 13.5884 9.00992C13.6455 8.96373 13.6851 8.89935 13.7004 8.82753C13.9079 8.75669 14.0921 8.63253 14.2354 8.46669C14.4971 8.16253 14.6371 7.77336 14.6296 7.37336C14.6334 7.13663 14.5871 6.90176 14.4937 6.68419ZM4.97292 6.68419C4.90375 6.50587 4.79704 6.34452 4.66001 6.21108C4.52298 6.07765 4.35884 5.97526 4.17875 5.91086C4.16303 5.83946 4.12341 5.77557 4.06642 5.72976C4.00944 5.68396 3.93853 5.65899 3.86542 5.65899C3.79231 5.65899 3.72139 5.68396 3.66441 5.72976C3.60743 5.77557 3.5678 5.83946 3.55208 5.91086C3.07875 6.07669 2.80208 6.44919 2.66875 6.95002C2.59761 7.22208 2.59732 7.50783 2.66792 7.78002C2.79792 8.28502 3.07625 8.66002 3.55125 8.82753C3.5666 8.89935 3.60612 8.96373 3.66323 9.00992C3.72033 9.05611 3.79155 9.08131 3.865 9.08131C3.93845 9.08131 4.00967 9.05611 4.06677 9.00992C4.12388 8.96373 4.1634 8.89935 4.17875 8.82753C4.38708 8.75669 4.57125 8.63253 4.71458 8.46669C4.97542 8.16253 5.11625 7.77336 5.10875 7.37336C5.11261 7.13662 5.06632 6.90175 4.97292 6.68419ZM9.73292 6.68419C9.66375 6.50587 9.55703 6.34452 9.42001 6.21108C9.28298 6.07765 9.11884 5.97526 8.93875 5.91086C8.92303 5.83946 8.8834 5.77557 8.82642 5.72976C8.76944 5.68396 8.69852 5.65899 8.62542 5.65899C8.55231 5.65899 8.48139 5.68396 8.42441 5.72976C8.36743 5.77557 8.3278 5.83946 8.31208 5.91086C7.83875 6.07669 7.56208 6.44919 7.43042 6.95002C7.35873 7.22194 7.35786 7.50768 7.42792 7.78002C7.55875 8.28502 7.83625 8.66002 8.31292 8.82753C8.32863 8.89892 8.36826 8.96282 8.42524 9.00862C8.48222 9.05442 8.55314 9.07939 8.62625 9.07939C8.69936 9.07939 8.77027 9.05442 8.82726 9.00862C8.88424 8.96282 8.92387 8.89892 8.93958 8.82753C9.14708 8.75669 9.33125 8.63253 9.47542 8.46669C9.73625 8.16253 9.87625 7.77336 9.86958 7.37336C9.87316 7.13657 9.82658 6.9017 9.73292 6.68419Z" fill="#00FFA9"/>
</svg>
