<svg width="145" height="76" viewBox="0 0 145 76" fill="none" xmlns="http://www.w3.org/2000/svg">
<g filter="url(#filter0_d)">
<path d="M49.4175 45.4291L47.1092 41.9108C47.0727 41.8554 47.0229 41.8099 46.9644 41.7784C46.9059 41.747 46.8406 41.7306 46.7742 41.7308H33.2958C33.2305 41.7306 33.166 41.7465 33.1082 41.777C33.0504 41.8075 33.0009 41.8518 32.9642 41.9058L30.5858 45.4275C30.5656 45.4575 30.5539 45.4924 30.552 45.5286C30.5501 45.5647 30.5581 45.6007 30.575 45.6327C30.5919 45.6647 30.6172 45.6915 30.6482 45.7102C30.6792 45.729 30.7146 45.739 30.7508 45.7391H49.2508C49.2868 45.739 49.322 45.7291 49.3528 45.7106C49.3837 45.6921 49.4089 45.6657 49.426 45.634C49.443 45.6024 49.4512 45.5668 49.4498 45.5308C49.4483 45.4949 49.4371 45.4601 49.4175 45.43V45.4291ZM42.0458 44.5325H37.9542C37.9308 44.5323 37.908 44.5261 37.8878 44.5143C37.8677 44.5025 37.8511 44.4856 37.8396 44.4653C37.8281 44.445 37.8221 44.422 37.8224 44.3987C37.8226 44.3754 37.829 44.3525 37.8408 44.3325L38.3542 43.4791C38.3718 43.4495 38.3968 43.425 38.4268 43.4079C38.4567 43.3909 38.4905 43.3818 38.525 43.3816H41.4917C41.5267 43.3818 41.561 43.3911 41.5913 43.4086C41.6215 43.4262 41.6467 43.4513 41.6642 43.4816L42.16 44.3341C42.1773 44.3646 42.1819 44.4006 42.1729 44.4345C42.1639 44.4683 42.1419 44.4972 42.1117 44.515C42.0916 44.5264 42.0689 44.5325 42.0458 44.5325ZM45.8708 31.4125V39.4291H34.2258V31.4125H45.87H45.8708ZM46.7575 30.2616H33.3383C33.2684 30.2619 33.2014 30.2898 33.1521 30.3393C33.1027 30.3888 33.075 30.4559 33.075 30.5258V40.3158C33.0752 40.3856 33.103 40.4524 33.1524 40.5018C33.2017 40.5511 33.2686 40.5789 33.3383 40.5791H46.7575C46.8273 40.5789 46.8941 40.5511 46.9435 40.5018C46.9928 40.4524 47.0206 40.3856 47.0208 40.3158V30.525C47.0211 30.4903 47.0144 30.4559 47.0013 30.4238C46.9881 30.3917 46.9687 30.3625 46.9442 30.338C46.9198 30.3134 46.8907 30.294 46.8586 30.2807C46.8265 30.2675 46.7922 30.2607 46.7575 30.2608V30.2616ZM38.7433 38.0783C38.586 38.1059 38.4239 38.0835 38.28 38.0141C38.2691 38.0085 38.2568 38.0063 38.2446 38.0078C38.2325 38.0093 38.2211 38.0145 38.2119 38.0226C38.2027 38.0307 38.1962 38.0414 38.1932 38.0533C38.1901 38.0651 38.1908 38.0776 38.195 38.0891C38.2533 38.2333 38.33 38.3708 38.425 38.495C38.4318 38.5038 38.4366 38.5139 38.4392 38.5247C38.4418 38.5356 38.4421 38.5468 38.44 38.5577C38.438 38.5686 38.4336 38.579 38.4273 38.5882C38.421 38.5973 38.4128 38.605 38.4033 38.6108C38.3908 38.6184 38.3764 38.6225 38.3617 38.6225H37.5992C37.588 38.6223 37.5769 38.6198 37.5667 38.6151C37.5565 38.6104 37.5474 38.6037 37.54 38.5953C37.5325 38.5869 37.5269 38.5771 37.5235 38.5664C37.52 38.5557 37.5188 38.5445 37.52 38.5333C37.5217 38.5184 37.5274 38.5043 37.5367 38.4925C37.63 38.37 37.7058 38.2358 37.7625 38.0925C37.7664 38.0812 37.7669 38.069 37.7639 38.0574C37.761 38.0458 37.7546 38.0353 37.7457 38.0273C37.7368 38.0193 37.7258 38.0141 37.7139 38.0124C37.7021 38.0106 37.69 38.0124 37.6792 38.0175C37.5358 38.0848 37.375 38.1057 37.2192 38.0775C37.0541 38.0395 36.9052 37.9507 36.7932 37.8236C36.6813 37.6966 36.6119 37.5376 36.595 37.3691C36.56 36.6325 37.435 35.975 37.8133 35.7258C37.864 35.6923 37.9234 35.6745 37.9842 35.6745C38.0449 35.6745 38.1043 35.6923 38.155 35.7258C38.5333 35.9758 39.4083 36.6333 39.3725 37.37C39.3553 37.5391 39.2852 37.6986 39.1723 37.8257C39.0594 37.9528 38.9093 38.0412 38.7433 38.0783ZM38.165 34.925C38.1112 34.9604 38.0482 34.9792 37.9838 34.9792C37.9193 34.9792 37.8563 34.9604 37.8025 34.925C37.4125 34.6666 36.5267 34.0025 36.5042 33.2491C36.4986 33.1045 36.5318 32.9611 36.6003 32.8336C36.6688 32.7062 36.7701 32.5994 36.8938 32.5242C37.0174 32.4491 37.1589 32.4084 37.3036 32.4063C37.4483 32.4043 37.5909 32.4409 37.7167 32.5125L37.9367 32.6425C37.9504 32.6507 37.9661 32.655 37.9821 32.655C37.9981 32.655 38.0138 32.6507 38.0275 32.6425C38.1 32.6008 38.2367 32.5208 38.2617 32.5075C38.3875 32.4379 38.5296 32.4031 38.6733 32.4065C38.817 32.4099 38.9572 32.4515 39.0796 32.527C39.202 32.6024 39.3021 32.7091 39.3697 32.836C39.4372 32.9629 39.4699 33.1055 39.4642 33.2491C39.4408 34.0033 38.5558 34.6675 38.165 34.9241V34.925ZM43.39 37.3491L42.3275 38.5183C42.2996 38.5488 42.2657 38.5732 42.2279 38.5898C42.1901 38.6065 42.1492 38.6151 42.1079 38.6151C42.0666 38.6151 42.0257 38.6065 41.9879 38.5898C41.9501 38.5732 41.9162 38.5488 41.8883 38.5183L40.8258 37.3491C40.7759 37.2945 40.7483 37.2231 40.7483 37.1491C40.7483 37.0751 40.7759 37.0038 40.8258 36.9491L41.8875 35.7808C41.9153 35.7501 41.9493 35.7255 41.9872 35.7087C42.025 35.6919 42.066 35.6832 42.1075 35.6832C42.149 35.6832 42.19 35.6919 42.2278 35.7087C42.2657 35.7255 42.2997 35.7501 42.3275 35.7808L43.39 36.95C43.4397 37.0046 43.4672 37.0757 43.4672 37.1496C43.4672 37.2234 43.4397 37.2945 43.39 37.3491ZM43.5825 33.9958C43.5547 34.1689 43.4722 34.3285 43.3472 34.4513C43.2221 34.5741 43.061 34.6537 42.8875 34.6783C42.7247 34.7005 42.559 34.6726 42.4125 34.5983C42.4027 34.5932 42.3915 34.5912 42.3805 34.5927C42.3695 34.5943 42.3593 34.5992 42.3512 34.6068C42.3431 34.6144 42.3376 34.6243 42.3355 34.6352C42.3333 34.6461 42.3346 34.6574 42.3392 34.6675C42.3942 34.8 42.4658 34.925 42.5533 35.0391C42.5621 35.051 42.5674 35.0651 42.5687 35.0799C42.5699 35.0946 42.5671 35.1094 42.5604 35.1226C42.5538 35.1358 42.5436 35.1469 42.531 35.1547C42.5184 35.1625 42.504 35.1666 42.4892 35.1666H41.7258C41.7111 35.1664 41.6967 35.1622 41.6843 35.1544C41.6718 35.1465 41.6618 35.1354 41.6552 35.1222C41.6487 35.1091 41.6459 35.0943 41.6472 35.0797C41.6485 35.065 41.6538 35.051 41.6625 35.0391C41.7492 34.9258 41.8208 34.8008 41.8758 34.6691C41.8793 34.6615 41.8809 34.6531 41.8806 34.6448C41.8802 34.6364 41.8779 34.6282 41.8739 34.6208C41.8699 34.6135 41.8642 34.6072 41.8573 34.6024C41.8504 34.5976 41.8425 34.5945 41.8342 34.5933C41.8227 34.5916 41.811 34.5937 41.8008 34.5991C41.7009 34.6494 41.5916 34.6785 41.4799 34.6845C41.3682 34.6905 41.2565 34.6734 41.1517 34.6342C41.0469 34.595 40.9514 34.5346 40.8711 34.4567C40.7907 34.3788 40.7274 34.2852 40.685 34.1816C40.6405 34.0738 40.6197 33.9576 40.6239 33.841C40.6281 33.7244 40.6573 33.6101 40.7094 33.5057C40.7615 33.4013 40.8354 33.3093 40.9261 33.2359C41.0167 33.1624 41.1221 33.1093 41.235 33.08C41.2519 33.0751 41.2668 33.0648 41.2773 33.0506C41.2879 33.0365 41.2935 33.0193 41.2933 33.0016L41.2958 32.9516C41.3215 32.7503 41.4212 32.5657 41.5755 32.4339C41.7299 32.302 41.9278 32.2324 42.1307 32.2385C42.3335 32.2447 42.5269 32.3261 42.673 32.4671C42.819 32.608 42.9074 32.7983 42.9208 33.0008C42.9207 33.0188 42.9266 33.0362 42.9374 33.0506C42.9483 33.0649 42.9635 33.0752 42.9808 33.08C43.1771 33.1307 43.3474 33.2527 43.4586 33.4222C43.5698 33.5916 43.614 33.7964 43.5825 33.9966V33.9958Z" fill="#00FFA9"/>
</g>
<path d="M63.873 40.1426L66.041 33.4688H67.6699L64.5996 42H63.1641L60.1055 33.4688H61.7285L63.873 40.1426ZM70.0137 42H68.5898V35.6602H70.0137V42ZM68.502 34.0137C68.502 33.7949 68.5703 33.6133 68.707 33.4688C68.8477 33.3242 69.0469 33.252 69.3047 33.252C69.5625 33.252 69.7617 33.3242 69.9023 33.4688C70.043 33.6133 70.1133 33.7949 70.1133 34.0137C70.1133 34.2285 70.043 34.4082 69.9023 34.5527C69.7617 34.6934 69.5625 34.7637 69.3047 34.7637C69.0469 34.7637 68.8477 34.6934 68.707 34.5527C68.5703 34.4082 68.502 34.2285 68.502 34.0137ZM71.3027 38.7832C71.3027 37.8066 71.5293 37.0234 71.9824 36.4336C72.4355 35.8398 73.043 35.543 73.8047 35.543C74.4766 35.543 75.0195 35.7773 75.4336 36.2461V33H76.8574V42H75.5684L75.498 41.3438C75.0723 41.8594 74.5039 42.1172 73.793 42.1172C73.0508 42.1172 72.4492 41.8184 71.9883 41.2207C71.5312 40.623 71.3027 39.8105 71.3027 38.7832ZM72.7266 38.9062C72.7266 39.5508 72.8496 40.0547 73.0957 40.418C73.3457 40.7773 73.6992 40.957 74.1562 40.957C74.7383 40.957 75.1641 40.6973 75.4336 40.1777V37.4707C75.1719 36.9629 74.75 36.709 74.168 36.709C73.707 36.709 73.3516 36.8926 73.1016 37.2598C72.8516 37.623 72.7266 38.1719 72.7266 38.9062ZM81.1348 42.1172C80.2324 42.1172 79.5 41.834 78.9375 41.2676C78.3789 40.6973 78.0996 39.9395 78.0996 38.9941V38.8184C78.0996 38.1855 78.2207 37.6211 78.4629 37.125C78.709 36.625 79.0527 36.2363 79.4941 35.959C79.9355 35.6816 80.4277 35.543 80.9707 35.543C81.834 35.543 82.5 35.8184 82.9688 36.3691C83.4414 36.9199 83.6777 37.6992 83.6777 38.707V39.2812H79.5352C79.5781 39.8047 79.752 40.2188 80.0566 40.5234C80.3652 40.8281 80.752 40.9805 81.2168 40.9805C81.8691 40.9805 82.4004 40.7168 82.8105 40.1895L83.5781 40.9219C83.3242 41.3008 82.9844 41.5957 82.5586 41.8066C82.1367 42.0137 81.6621 42.1172 81.1348 42.1172ZM80.9648 36.6855C80.5742 36.6855 80.2578 36.8223 80.0156 37.0957C79.7773 37.3691 79.625 37.75 79.5586 38.2383H82.2715V38.1328C82.2402 37.6562 82.1133 37.2969 81.8906 37.0547C81.668 36.8086 81.3594 36.6855 80.9648 36.6855ZM84.5215 38.7715C84.5215 38.1504 84.6445 37.5918 84.8906 37.0957C85.1367 36.5957 85.4824 36.2129 85.9277 35.9473C86.373 35.6777 86.8848 35.543 87.4629 35.543C88.3184 35.543 89.0117 35.8184 89.543 36.3691C90.0781 36.9199 90.3672 37.6504 90.4102 38.5605L90.416 38.8945C90.416 39.5195 90.2949 40.0781 90.0527 40.5703C89.8145 41.0625 89.4707 41.4434 89.0215 41.7129C88.5762 41.9824 88.0605 42.1172 87.4746 42.1172C86.5801 42.1172 85.8633 41.8203 85.3242 41.2266C84.7891 40.6289 84.5215 39.834 84.5215 38.8418V38.7715ZM85.9453 38.8945C85.9453 39.5469 86.0801 40.0586 86.3496 40.4297C86.6191 40.7969 86.9941 40.9805 87.4746 40.9805C87.9551 40.9805 88.3281 40.793 88.5938 40.418C88.8633 40.043 88.998 39.4941 88.998 38.7715C88.998 38.1309 88.8594 37.623 88.582 37.248C88.3086 36.873 87.9355 36.6855 87.4629 36.6855C86.998 36.6855 86.6289 36.8711 86.3555 37.2422C86.082 37.6094 85.9453 38.1602 85.9453 38.8945ZM100.16 38.8945C100.16 39.875 99.9375 40.6582 99.4922 41.2441C99.0469 41.8262 98.4492 42.1172 97.6992 42.1172C97.0039 42.1172 96.4473 41.8887 96.0293 41.4316V44.4375H94.6055V35.6602H95.918L95.9766 36.3047C96.3945 35.7969 96.9629 35.543 97.6816 35.543C98.4551 35.543 99.0605 35.832 99.498 36.4102C99.9395 36.9844 100.16 37.7832 100.16 38.8066V38.8945ZM98.7422 38.7715C98.7422 38.1387 98.6152 37.6367 98.3613 37.2656C98.1113 36.8945 97.752 36.709 97.2832 36.709C96.7012 36.709 96.2832 36.9492 96.0293 37.4297V40.2422C96.2871 40.7344 96.709 40.9805 97.2949 40.9805C97.748 40.9805 98.1016 40.7988 98.3555 40.4355C98.6133 40.0684 98.7422 39.5137 98.7422 38.7715ZM101.104 38.7715C101.104 38.1504 101.227 37.5918 101.473 37.0957C101.719 36.5957 102.064 36.2129 102.51 35.9473C102.955 35.6777 103.467 35.543 104.045 35.543C104.9 35.543 105.594 35.8184 106.125 36.3691C106.66 36.9199 106.949 37.6504 106.992 38.5605L106.998 38.8945C106.998 39.5195 106.877 40.0781 106.635 40.5703C106.396 41.0625 106.053 41.4434 105.604 41.7129C105.158 41.9824 104.643 42.1172 104.057 42.1172C103.162 42.1172 102.445 41.8203 101.906 41.2266C101.371 40.6289 101.104 39.834 101.104 38.8418V38.7715ZM102.527 38.8945C102.527 39.5469 102.662 40.0586 102.932 40.4297C103.201 40.7969 103.576 40.9805 104.057 40.9805C104.537 40.9805 104.91 40.793 105.176 40.418C105.445 40.043 105.58 39.4941 105.58 38.7715C105.58 38.1309 105.441 37.623 105.164 37.248C104.891 36.873 104.518 36.6855 104.045 36.6855C103.58 36.6855 103.211 36.8711 102.938 37.2422C102.664 37.6094 102.527 38.1602 102.527 38.8945ZM110.262 39.2812L109.629 39.9316V42H108.205V33H109.629V38.1914L110.074 37.6348L111.826 35.6602H113.537L111.182 38.3027L113.789 42H112.143L110.262 39.2812ZM117.146 42.1172C116.244 42.1172 115.512 41.834 114.949 41.2676C114.391 40.6973 114.111 39.9395 114.111 38.9941V38.8184C114.111 38.1855 114.232 37.6211 114.475 37.125C114.721 36.625 115.064 36.2363 115.506 35.959C115.947 35.6816 116.439 35.543 116.982 35.543C117.846 35.543 118.512 35.8184 118.98 36.3691C119.453 36.9199 119.689 37.6992 119.689 38.707V39.2812H115.547C115.59 39.8047 115.764 40.2188 116.068 40.5234C116.377 40.8281 116.764 40.9805 117.229 40.9805C117.881 40.9805 118.412 40.7168 118.822 40.1895L119.59 40.9219C119.336 41.3008 118.996 41.5957 118.57 41.8066C118.148 42.0137 117.674 42.1172 117.146 42.1172ZM116.977 36.6855C116.586 36.6855 116.27 36.8223 116.027 37.0957C115.789 37.3691 115.637 37.75 115.57 38.2383H118.283V38.1328C118.252 37.6562 118.125 37.2969 117.902 37.0547C117.68 36.8086 117.371 36.6855 116.977 36.6855ZM124.119 36.9609C123.932 36.9297 123.738 36.9141 123.539 36.9141C122.887 36.9141 122.447 37.1641 122.221 37.6641V42H120.797V35.6602H122.156L122.191 36.3691C122.535 35.8184 123.012 35.543 123.621 35.543C123.824 35.543 123.992 35.5703 124.125 35.625L124.119 36.9609Z" fill="white"/>
<defs>
<filter id="filter0_d" x="0" y="-2" width="80" height="80" filterUnits="userSpaceOnUse" color-interpolation-filters="sRGB">
<feFlood flood-opacity="0" result="BackgroundImageFix"/>
<feColorMatrix in="SourceAlpha" type="matrix" values="0 0 0 0 0 0 0 0 0 0 0 0 0 0 0 0 0 0 127 0"/>
<feOffset/>
<feGaussianBlur stdDeviation="15"/>
<feColorMatrix type="matrix" values="0 0 0 0 0.00392157 0 0 0 0 0.690196 0 0 0 0 0.458824 0 0 0 0.3 0"/>
<feBlend mode="normal" in2="BackgroundImageFix" result="effect1_dropShadow"/>
<feBlend mode="normal" in="SourceGraphic" in2="effect1_dropShadow" result="shape"/>
</filter>
</defs>
</svg>
