<svg width="20" height="19" viewBox="0 0 20 19" fill="none" xmlns="http://www.w3.org/2000/svg">
<path d="M19.1353 9.37801L10.2466 0.185112C10.1316 0.0665679 9.97593 0 9.81359 0C9.65125 0 9.49553 0.0665679 9.38057 0.185112L0.491862 9.37801C0.406164 9.46664 0.347822 9.57957 0.324223 9.70252C0.300623 9.82546 0.312827 9.95288 0.359289 10.0686C0.405751 10.1844 0.484382 10.2833 0.585226 10.3528C0.686071 10.4224 0.804593 10.4594 0.925789 10.4592H2.86532V18.3667C2.86556 18.5346 2.93016 18.6955 3.04495 18.8142C3.15975 18.9329 3.31537 18.9998 3.47771 19H7.23721C7.31778 19.0001 7.39758 18.9838 7.47204 18.952C7.54651 18.9201 7.61416 18.8734 7.67114 18.8145C7.72811 18.7556 7.77328 18.6856 7.80406 18.6086C7.83484 18.5316 7.85062 18.449 7.8505 18.3657V13.4826C7.85098 13.3146 7.91578 13.1536 8.03071 13.035C8.14565 12.9163 8.30137 12.8495 8.4638 12.8492H11.1616C11.3242 12.8495 11.48 12.9164 11.595 13.0353C11.7099 13.1542 11.7746 13.3154 11.7749 13.4835V18.3667C11.7749 18.5346 11.8394 18.6957 11.9542 18.8145C12.0691 18.9333 12.2248 19 12.3873 19H16.1477C16.3102 18.9998 16.4659 18.9328 16.5807 18.8139C16.6956 18.695 16.76 18.5338 16.76 18.3657V10.4592H18.7005C18.8215 10.4589 18.9397 10.4217 19.0403 10.3521C19.1408 10.2825 19.2193 10.1837 19.2656 10.0681C19.312 9.95249 19.3243 9.8253 19.301 9.70251C19.2776 9.57971 19.2197 9.46681 19.1344 9.37801H19.1353Z" fill="#6F7174"/>
</svg>
