<svg width="21" height="20" viewBox="0 0 21 20" fill="none" xmlns="http://www.w3.org/2000/svg">
<path d="M21 3.27494V8.83017C21 9.02889 20.9126 9.21947 20.7569 9.35998C20.6013 9.50049 20.3902 9.57943 20.17 9.57943H18.681V8.08894C18.6803 7.5971 18.4635 7.1256 18.0782 6.77782C17.693 6.43003 17.1707 6.23434 16.6259 6.23363H6.4154V3.27494H20.999H21ZM21 1.24926C21 1.05054 20.9126 0.859967 20.7569 0.719453C20.6013 0.57894 20.3902 0.5 20.17 0.5H7.24635C7.02623 0.5 6.81513 0.57894 6.65948 0.719453C6.50383 0.859967 6.41639 1.05054 6.41639 1.24926V2.16889H21V1.25015V1.24926ZM21 15.2337C21 15.7939 20.8778 16.3487 20.6403 16.8663C20.4028 17.3839 20.0547 17.8543 19.6158 18.2504C19.177 18.6466 18.656 18.9608 18.0827 19.1752C17.5093 19.3897 16.8948 19.5 16.2742 19.5C15.6536 19.5 15.039 19.3897 14.4657 19.1752C13.8923 18.9608 13.3713 18.6466 12.9325 18.2504C12.4937 17.8543 12.1455 17.3839 11.9081 16.8663C11.6706 16.3487 11.5483 15.7939 11.5483 15.2337C11.5483 14.1022 12.0462 13.017 12.9325 12.2169C13.8188 11.4168 15.0208 10.9673 16.2742 10.9673C17.5275 10.9673 18.7296 11.4168 19.6158 12.2169C20.5021 13.017 21 14.1022 21 15.2337ZM18.6386 15.7662C18.5314 15.4735 18.3248 15.2188 18.0481 15.0381C17.7714 14.8575 17.4387 14.7602 17.0972 14.76L15.4472 14.7645H15.4442C15.3019 14.754 15.1692 14.6956 15.0724 14.6009C14.9756 14.5062 14.9217 14.3822 14.9215 14.2533C14.9212 14.1245 14.9746 14.0002 15.0711 13.9052C15.1675 13.8103 15.3 13.7515 15.4422 13.7405L18.1268 13.7334C18.1599 13.733 18.1915 13.7208 18.2147 13.6995C18.2262 13.689 18.2352 13.6766 18.2413 13.663C18.2474 13.6494 18.2505 13.6348 18.2503 13.6201L18.2483 12.9012C18.248 12.8714 18.2349 12.8429 18.2117 12.8218C18.2 12.8114 18.1861 12.8032 18.1708 12.7977C18.1556 12.7922 18.1392 12.7894 18.1228 12.7897L16.7879 12.7932L16.785 12.1341C16.785 12.1193 16.7817 12.1046 16.7754 12.091C16.7691 12.0773 16.7598 12.065 16.7481 12.0546C16.7364 12.0442 16.7226 12.036 16.7074 12.0305C16.6922 12.025 16.6759 12.0223 16.6595 12.0226L15.8631 12.0261C15.8303 12.0264 15.7989 12.0383 15.7757 12.0594C15.7526 12.0804 15.7396 12.1089 15.7396 12.1385L15.7426 12.7959H15.4887C14.5846 12.7986 13.8129 13.4693 13.8327 14.2855C13.8423 14.6665 14.0169 15.0288 14.3191 15.2948C14.6213 15.5608 15.0271 15.7092 15.4491 15.7082L17.1002 15.7037C17.1746 15.7036 17.2484 15.7166 17.3173 15.7422C17.3862 15.7678 17.4488 15.8053 17.5016 15.8528C17.5544 15.9002 17.5964 15.9565 17.6251 16.0186C17.6537 16.0806 17.6686 16.1472 17.6688 16.2144C17.669 16.2816 17.6545 16.3483 17.6262 16.4104C17.5979 16.4726 17.5563 16.5292 17.5037 16.5768C17.4512 16.6245 17.3888 16.6624 17.3201 16.6882C17.2513 16.7141 17.1776 16.7276 17.1031 16.7277L14.465 16.7349C14.4487 16.7348 14.4324 16.7376 14.4172 16.7432C14.4021 16.7488 14.3883 16.7571 14.3767 16.7675C14.3651 16.778 14.356 16.7904 14.3498 16.8041C14.3435 16.8178 14.3404 16.8325 14.3405 16.8473L14.3425 17.5671C14.3427 17.5818 14.346 17.5964 14.3524 17.61C14.3588 17.6236 14.368 17.6359 14.3797 17.6463C14.3913 17.6567 14.4051 17.6648 14.4203 17.6704C14.4354 17.6759 14.4517 17.6787 14.468 17.6786L15.7584 17.675L15.7623 18.3333C15.7623 18.348 15.7656 18.3626 15.7718 18.3762C15.7781 18.3898 15.7873 18.4021 15.7989 18.4125C15.8104 18.4228 15.8242 18.431 15.8393 18.4366C15.8544 18.4421 15.8705 18.4449 15.8868 18.4448L16.6832 18.4421C16.6996 18.4422 16.7158 18.4393 16.7309 18.4336C16.746 18.428 16.7597 18.4196 16.7711 18.4091C16.794 18.3878 16.8067 18.3594 16.8067 18.3297L16.8038 17.6723H17.1071C17.361 17.6709 17.611 17.6156 17.8369 17.5108C18.0627 17.406 18.2581 17.2547 18.4072 17.0691C18.5563 16.8836 18.6549 16.6689 18.6951 16.4426C18.7353 16.2162 18.7159 15.9845 18.6386 15.7662ZM10.252 14.8965H3.89588C3.69723 14.3309 3.35093 13.8166 2.88616 13.397C2.42138 12.9775 1.85174 12.6648 1.22518 12.4855V10.8567C1.85174 10.6774 2.42138 10.3648 2.88616 9.94521C3.35093 9.52562 3.69723 9.01136 3.89588 8.44573H13.561C13.7675 9.03444 14.134 9.56695 14.6281 9.9942C15.5486 9.75755 16.5184 9.72269 17.4569 9.89252V8.08894C17.4569 7.89022 17.3694 7.69965 17.2138 7.55913C17.0581 7.41862 16.847 7.33968 16.6269 7.33968H0.829961C0.609842 7.33968 0.398738 7.41862 0.24309 7.55913C0.0874421 7.69965 0 7.89022 0 8.08894V15.2533C0 15.452 0.0874421 15.6426 0.24309 15.7831C0.398738 15.9236 0.609842 16.0026 0.829961 16.0026H10.3004C10.2428 15.6363 10.2265 15.2657 10.252 14.8965ZM11.2065 11.6711C11.2065 12.2644 10.9454 12.8334 10.4807 13.253C10.0159 13.6725 9.38564 13.9082 8.72843 13.9082C8.07121 13.9082 7.44092 13.6725 6.9762 13.253C6.51148 12.8334 6.2504 12.2644 6.2504 11.6711C6.2504 11.0778 6.51148 10.5088 6.9762 10.0893C7.44092 9.66973 8.07121 9.43404 8.72843 9.43404C9.38564 9.43404 10.0159 9.66973 10.4807 10.0893C10.9454 10.5088 11.2065 11.0778 11.2065 11.6711Z" fill="#6F7174"/>
</svg>
